<svg width="448" height="423" viewBox="0 0 448 423" fill="none" xmlns="http://www.w3.org/2000/svg">
<g filter="url(#filter0_d)">
<circle cx="223.229" cy="349.606" r="3.85275" fill="#FF7070"/>
</g>
<path fill-rule="evenodd" clip-rule="evenodd" d="M224.604 359.494C224.604 359.217 224.38 358.992 224.102 358.992C223.825 358.992 223.601 359.217 223.601 359.494V359.731C223.601 360.008 223.825 360.233 224.102 360.233C224.38 360.233 224.604 360.008 224.604 359.731V359.494ZM224.604 365.421C224.604 365.144 224.38 364.919 224.102 364.919C223.825 364.919 223.601 365.144 223.601 365.421V365.895C223.601 366.172 223.825 366.397 224.102 366.397C224.38 366.397 224.604 366.172 224.604 365.895V365.421ZM224.604 371.586C224.604 371.309 224.38 371.084 224.102 371.084C223.825 371.084 223.601 371.309 223.601 371.586V372.06C223.601 372.337 223.825 372.562 224.102 372.562C224.38 372.562 224.604 372.337 224.604 372.06V371.586ZM224.604 377.75C224.604 377.473 224.38 377.248 224.102 377.248C223.825 377.248 223.601 377.473 223.601 377.75V378.224C223.601 378.501 223.825 378.726 224.102 378.726C224.38 378.726 224.604 378.501 224.604 378.224V377.75ZM224.604 383.914C224.604 383.637 224.38 383.413 224.102 383.413C223.825 383.413 223.601 383.637 223.601 383.914V384.389C223.601 384.666 223.825 384.89 224.102 384.89C224.38 384.89 224.604 384.666 224.604 384.389V383.914ZM224.604 390.079C224.604 389.802 224.38 389.577 224.102 389.577C223.825 389.577 223.601 389.802 223.601 390.079V390.553C223.601 390.83 223.825 391.055 224.102 391.055C224.38 391.055 224.604 390.83 224.604 390.553V390.079ZM224.604 396.243C224.604 395.966 224.38 395.741 224.102 395.741C223.825 395.741 223.601 395.966 223.601 396.243V396.717C223.601 396.994 223.825 397.219 224.102 397.219C224.38 397.219 224.604 396.994 224.604 396.717V396.243ZM224.604 402.408C224.604 402.13 224.38 401.906 224.102 401.906C223.825 401.906 223.601 402.13 223.601 402.408V402.882C223.601 403.159 223.825 403.383 224.102 403.383C224.38 403.383 224.604 403.159 224.604 402.882V402.408ZM224.604 408.572C224.604 408.295 224.38 408.07 224.102 408.07C223.825 408.07 223.601 408.295 223.601 408.572V409.046C223.601 409.323 223.825 409.548 224.102 409.548C224.38 409.548 224.604 409.323 224.604 409.046V408.572ZM164 422.388H279.582V413.141H164V422.388Z" fill="#FF7070"/>
<g filter="url(#filter1_d)">
<circle cx="283.331" cy="318.783" r="3.85275" fill="#FF7070"/>
</g>
<path d="M324.17 330.343L367.658 330.343L447.458 330.343" stroke="#FF7070" stroke-width="9.24659"/>
<path d="M282.561 318.014L327.253 334.966" stroke="#FF7070" stroke-width="1.00344" stroke-linecap="round" stroke-linejoin="bevel" stroke-dasharray="0.5 6.02"/>
<g filter="url(#filter2_d)">
<circle cx="283.331" cy="247.894" r="3.85275" fill="#FF7070"/>
</g>
<path d="M447.458 176.232L385.814 176.232" stroke="#FF7070" stroke-width="9.24659"/>
<path d="M284.102 247.124L387.356 179.315" stroke="#FF7070" stroke-width="1.00344" stroke-linecap="round" stroke-linejoin="bevel" stroke-dasharray="0.5 6.02"/>
<g filter="url(#filter3_d)">
<circle cx="287.956" cy="161.592" r="3.85275" fill="#FF7070"/>
</g>
<path d="M324.172 5.16992L447.46 5.16992" stroke="#FF7070" stroke-width="9.24659"/>
<path d="M288.727 160.821L328.796 5.16992" stroke="#FF7070" stroke-width="1.00344" stroke-linecap="round" stroke-linejoin="bevel" stroke-dasharray="0.5 6.02"/>
<g filter="url(#filter4_d)">
<circle cx="158.503" cy="311.08" r="3.85275" fill="#FF7070"/>
</g>
<path d="M0.540527 330.344L44.0281 330.344L123.828 330.344" stroke="#FF7070" stroke-width="9.24659"/>
<path d="M159.274 311.851L120.747 330.344" stroke="#FF7070" stroke-width="1.00344" stroke-linecap="round" stroke-linejoin="bevel" stroke-dasharray="0.5 6.02"/>
<g filter="url(#filter5_d)">
<circle cx="163.126" cy="272.552" r="3.85275" fill="#FF7070"/>
</g>
<path d="M62.184 174.691H0.540039" stroke="#FF7070" stroke-width="9.24659"/>
<path d="M162.355 271.781L59.1016 177.774" stroke="#FF7070" stroke-width="1.00344" stroke-linecap="round" stroke-linejoin="bevel" stroke-dasharray="0.5 6.02"/>
<g filter="url(#filter6_d)">
<circle cx="163.127" cy="160.052" r="3.85275" fill="#FF7070"/>
</g>
<path d="M123.828 6.71191H62.1845H0.540527" stroke="#FF7070" stroke-width="9.24659"/>
<path d="M162.356 160.823L122.288 9.79492" stroke="#FF7070" stroke-width="1.00344" stroke-linecap="round" stroke-linejoin="bevel" stroke-dasharray="0.5 6.02"/>
<defs>
<filter id="filter0_d" x="216.366" y="342.743" width="13.7261" height="13.7261" filterUnits="userSpaceOnUse" color-interpolation-filters="sRGB">
<feFlood flood-opacity="0" result="BackgroundImageFix"/>
<feColorMatrix in="SourceAlpha" type="matrix" values="0 0 0 0 0 0 0 0 0 0 0 0 0 0 0 0 0 0 127 0"/>
<feMorphology radius="1.00344" operator="dilate" in="SourceAlpha" result="effect1_dropShadow"/>
<feOffset/>
<feGaussianBlur stdDeviation="1.00344"/>
<feColorMatrix type="matrix" values="0 0 0 0 1 0 0 0 0 0.491667 0 0 0 0 0.491667 0 0 0 0.28 0"/>
<feBlend mode="normal" in2="BackgroundImageFix" result="effect1_dropShadow"/>
<feBlend mode="normal" in="SourceGraphic" in2="effect1_dropShadow" result="shape"/>
</filter>
<filter id="filter1_d" x="276.468" y="311.92" width="13.7261" height="13.7261" filterUnits="userSpaceOnUse" color-interpolation-filters="sRGB">
<feFlood flood-opacity="0" result="BackgroundImageFix"/>
<feColorMatrix in="SourceAlpha" type="matrix" values="0 0 0 0 0 0 0 0 0 0 0 0 0 0 0 0 0 0 127 0"/>
<feMorphology radius="1.00344" operator="dilate" in="SourceAlpha" result="effect1_dropShadow"/>
<feOffset/>
<feGaussianBlur stdDeviation="1.00344"/>
<feColorMatrix type="matrix" values="0 0 0 0 1 0 0 0 0 0.491667 0 0 0 0 0.491667 0 0 0 0.28 0"/>
<feBlend mode="normal" in2="BackgroundImageFix" result="effect1_dropShadow"/>
<feBlend mode="normal" in="SourceGraphic" in2="effect1_dropShadow" result="shape"/>
</filter>
<filter id="filter2_d" x="276.468" y="241.031" width="13.7261" height="13.7261" filterUnits="userSpaceOnUse" color-interpolation-filters="sRGB">
<feFlood flood-opacity="0" result="BackgroundImageFix"/>
<feColorMatrix in="SourceAlpha" type="matrix" values="0 0 0 0 0 0 0 0 0 0 0 0 0 0 0 0 0 0 127 0"/>
<feMorphology radius="1.00344" operator="dilate" in="SourceAlpha" result="effect1_dropShadow"/>
<feOffset/>
<feGaussianBlur stdDeviation="1.00344"/>
<feColorMatrix type="matrix" values="0 0 0 0 1 0 0 0 0 0.491667 0 0 0 0 0.491667 0 0 0 0.28 0"/>
<feBlend mode="normal" in2="BackgroundImageFix" result="effect1_dropShadow"/>
<feBlend mode="normal" in="SourceGraphic" in2="effect1_dropShadow" result="shape"/>
</filter>
<filter id="filter3_d" x="281.093" y="154.729" width="13.7261" height="13.7261" filterUnits="userSpaceOnUse" color-interpolation-filters="sRGB">
<feFlood flood-opacity="0" result="BackgroundImageFix"/>
<feColorMatrix in="SourceAlpha" type="matrix" values="0 0 0 0 0 0 0 0 0 0 0 0 0 0 0 0 0 0 127 0"/>
<feMorphology radius="1.00344" operator="dilate" in="SourceAlpha" result="effect1_dropShadow"/>
<feOffset/>
<feGaussianBlur stdDeviation="1.00344"/>
<feColorMatrix type="matrix" values="0 0 0 0 1 0 0 0 0 0.491667 0 0 0 0 0.491667 0 0 0 0.28 0"/>
<feBlend mode="normal" in2="BackgroundImageFix" result="effect1_dropShadow"/>
<feBlend mode="normal" in="SourceGraphic" in2="effect1_dropShadow" result="shape"/>
</filter>
<filter id="filter4_d" x="151.64" y="304.217" width="13.7261" height="13.7261" filterUnits="userSpaceOnUse" color-interpolation-filters="sRGB">
<feFlood flood-opacity="0" result="BackgroundImageFix"/>
<feColorMatrix in="SourceAlpha" type="matrix" values="0 0 0 0 0 0 0 0 0 0 0 0 0 0 0 0 0 0 127 0"/>
<feMorphology radius="1.00344" operator="dilate" in="SourceAlpha" result="effect1_dropShadow"/>
<feOffset/>
<feGaussianBlur stdDeviation="1.00344"/>
<feColorMatrix type="matrix" values="0 0 0 0 1 0 0 0 0 0.491667 0 0 0 0 0.491667 0 0 0 0.28 0"/>
<feBlend mode="normal" in2="BackgroundImageFix" result="effect1_dropShadow"/>
<feBlend mode="normal" in="SourceGraphic" in2="effect1_dropShadow" result="shape"/>
</filter>
<filter id="filter5_d" x="156.263" y="265.689" width="13.7261" height="13.7261" filterUnits="userSpaceOnUse" color-interpolation-filters="sRGB">
<feFlood flood-opacity="0" result="BackgroundImageFix"/>
<feColorMatrix in="SourceAlpha" type="matrix" values="0 0 0 0 0 0 0 0 0 0 0 0 0 0 0 0 0 0 127 0"/>
<feMorphology radius="1.00344" operator="dilate" in="SourceAlpha" result="effect1_dropShadow"/>
<feOffset/>
<feGaussianBlur stdDeviation="1.00344"/>
<feColorMatrix type="matrix" values="0 0 0 0 1 0 0 0 0 0.491667 0 0 0 0 0.491667 0 0 0 0.28 0"/>
<feBlend mode="normal" in2="BackgroundImageFix" result="effect1_dropShadow"/>
<feBlend mode="normal" in="SourceGraphic" in2="effect1_dropShadow" result="shape"/>
</filter>
<filter id="filter6_d" x="156.264" y="153.189" width="13.7261" height="13.7261" filterUnits="userSpaceOnUse" color-interpolation-filters="sRGB">
<feFlood flood-opacity="0" result="BackgroundImageFix"/>
<feColorMatrix in="SourceAlpha" type="matrix" values="0 0 0 0 0 0 0 0 0 0 0 0 0 0 0 0 0 0 127 0"/>
<feMorphology radius="1.00344" operator="dilate" in="SourceAlpha" result="effect1_dropShadow"/>
<feOffset/>
<feGaussianBlur stdDeviation="1.00344"/>
<feColorMatrix type="matrix" values="0 0 0 0 1 0 0 0 0 0.491667 0 0 0 0 0.491667 0 0 0 0.28 0"/>
<feBlend mode="normal" in2="BackgroundImageFix" result="effect1_dropShadow"/>
<feBlend mode="normal" in="SourceGraphic" in2="effect1_dropShadow" result="shape"/>
</filter>
</defs>
</svg>
