<svg width="290" height="283" viewBox="0 0 290 283" fill="none" xmlns="http://www.w3.org/2000/svg">
<g filter="url(#filter0_d)">
<circle cx="145.5" cy="226.5" r="2.5" fill="#FF7070"/>
</g>
<path fill-rule="evenodd" clip-rule="evenodd" d="M146.326 231C146.326 230.821 146.18 230.675 146 230.675C145.82 230.675 145.674 230.821 145.674 231V231.165C145.674 231.345 145.82 231.49 146 231.49C146.18 231.49 146.326 231.345 146.326 231.165V231ZM146.326 235.109C146.326 234.929 146.18 234.783 146 234.783C145.82 234.783 145.674 234.929 145.674 235.109V235.437C145.674 235.617 145.82 235.763 146 235.763C146.18 235.763 146.326 235.617 146.326 235.437V235.109ZM146.326 239.381C146.326 239.202 146.18 239.056 146 239.056C145.82 239.056 145.674 239.202 145.674 239.381V239.71C145.674 239.89 145.82 240.036 146 240.036C146.18 240.036 146.326 239.89 146.326 239.71V239.381ZM146.326 243.654C146.326 243.474 146.18 243.329 146 243.329C145.82 243.329 145.674 243.474 145.674 243.654V243.983C145.674 244.163 145.82 244.308 146 244.308C146.18 244.308 146.326 244.163 146.326 243.983V243.654ZM146.326 247.927C146.326 247.747 146.18 247.601 146 247.601C145.82 247.601 145.674 247.747 145.674 247.927V248.256C145.674 248.435 145.82 248.581 146 248.581C146.18 248.581 146.326 248.435 146.326 248.256V247.927ZM146.326 252.2C146.326 252.02 146.18 251.874 146 251.874C145.82 251.874 145.674 252.02 145.674 252.2V252.528C145.674 252.708 145.82 252.854 146 252.854C146.18 252.854 146.326 252.708 146.326 252.528V252.2ZM146.326 256.472C146.326 256.293 146.18 256.147 146 256.147C145.82 256.147 145.674 256.293 145.674 256.472V256.801C145.674 256.981 145.82 257.127 146 257.127C146.18 257.127 146.326 256.981 146.326 256.801V256.472ZM146.326 260.745C146.326 260.565 146.18 260.42 146 260.42C145.82 260.42 145.674 260.565 145.674 260.745V261.074C145.674 261.254 145.82 261.399 146 261.399C146.18 261.399 146.326 261.254 146.326 261.074V260.745ZM146.326 265.018C146.326 264.838 146.18 264.692 146 264.692C145.82 264.692 145.674 264.838 145.674 265.018V265.347C145.674 265.526 145.82 265.672 146 265.672C146.18 265.672 146.326 265.526 146.326 265.347V265.018ZM146.326 269.291C146.326 269.111 146.18 268.965 146 268.965C145.82 268.965 145.674 269.111 145.674 269.291V269.619C145.674 269.799 145.82 269.945 146 269.945C146.18 269.945 146.326 269.799 146.326 269.619V269.291ZM146.326 273.563C146.326 273.383 146.18 273.238 146 273.238C145.82 273.238 145.674 273.383 145.674 273.563V273.892C145.674 274.072 145.82 274.218 146 274.218C146.18 274.218 146.326 274.072 146.326 273.892V273.563ZM107 282.811H182V276.811H107V282.811Z" fill="#FF7070"/>
<g filter="url(#filter1_d)">
<circle cx="183.5" cy="206.5" r="2.5" fill="#FF7070"/>
</g>
<path d="M210 214L238.219 214L290 214" stroke="#FF7070" stroke-width="6"/>
<path d="M183 206L212 217" stroke="#FF7070" stroke-width="0.651118" stroke-linecap="round" stroke-linejoin="bevel" stroke-dasharray="0.33 3.91"/>
<g filter="url(#filter2_d)">
<circle cx="183.5" cy="160.5" r="2.5" fill="#FF7070"/>
</g>
<path d="M290 114L250 114" stroke="#FF7070" stroke-width="6"/>
<path d="M184 160L251 116" stroke="#FF7070" stroke-width="0.651118" stroke-linecap="round" stroke-linejoin="bevel" stroke-dasharray="0.33 3.91"/>
<g filter="url(#filter3_d)">
<circle cx="186.5" cy="104.5" r="2.5" fill="#FF7070"/>
</g>
<path d="M210 3L290 3" stroke="#FF7070" stroke-width="6"/>
<path d="M187 104L213 3" stroke="#FF7070" stroke-width="0.651118" stroke-linecap="round" stroke-linejoin="bevel" stroke-dasharray="0.33 3.91"/>
<g filter="url(#filter4_d)">
<circle cx="102.5" cy="201.5" r="2.5" fill="#FF7070"/>
</g>
<path d="M0 214L28.2185 214L80 214" stroke="#FF7070" stroke-width="6"/>
<path d="M103 202L78 214" stroke="#FF7070" stroke-width="0.651118" stroke-linecap="round" stroke-linejoin="bevel" stroke-dasharray="0.33 3.91"/>
<g filter="url(#filter5_d)">
<circle cx="105.5" cy="176.5" r="2.5" fill="#FF7070"/>
</g>
<path d="M40 113H0" stroke="#FF7070" stroke-width="6"/>
<path d="M105 176L38 115" stroke="#FF7070" stroke-width="0.651118" stroke-linecap="round" stroke-linejoin="bevel" stroke-dasharray="0.33 3.91"/>
<g filter="url(#filter6_d)">
<circle cx="105.5" cy="103.5" r="2.5" fill="#FF7070"/>
</g>
<path d="M80 4H40H0" stroke="#FF7070" stroke-width="6"/>
<path d="M105 104L79 6" stroke="#FF7070" stroke-width="0.651118" stroke-linecap="round" stroke-linejoin="bevel" stroke-dasharray="0.33 3.91"/>
<defs>
<filter id="filter0_d" x="141.047" y="222.047" width="8.90671" height="8.90671" filterUnits="userSpaceOnUse" color-interpolation-filters="sRGB">
<feFlood flood-opacity="0" result="BackgroundImageFix"/>
<feColorMatrix in="SourceAlpha" type="matrix" values="0 0 0 0 0 0 0 0 0 0 0 0 0 0 0 0 0 0 127 0"/>
<feMorphology radius="0.651118" operator="dilate" in="SourceAlpha" result="effect1_dropShadow"/>
<feOffset/>
<feGaussianBlur stdDeviation="0.651118"/>
<feColorMatrix type="matrix" values="0 0 0 0 1 0 0 0 0 0.491667 0 0 0 0 0.491667 0 0 0 0.28 0"/>
<feBlend mode="normal" in2="BackgroundImageFix" result="effect1_dropShadow"/>
<feBlend mode="normal" in="SourceGraphic" in2="effect1_dropShadow" result="shape"/>
</filter>
<filter id="filter1_d" x="179.047" y="202.047" width="8.90671" height="8.90671" filterUnits="userSpaceOnUse" color-interpolation-filters="sRGB">
<feFlood flood-opacity="0" result="BackgroundImageFix"/>
<feColorMatrix in="SourceAlpha" type="matrix" values="0 0 0 0 0 0 0 0 0 0 0 0 0 0 0 0 0 0 127 0"/>
<feMorphology radius="0.651118" operator="dilate" in="SourceAlpha" result="effect1_dropShadow"/>
<feOffset/>
<feGaussianBlur stdDeviation="0.651118"/>
<feColorMatrix type="matrix" values="0 0 0 0 1 0 0 0 0 0.491667 0 0 0 0 0.491667 0 0 0 0.28 0"/>
<feBlend mode="normal" in2="BackgroundImageFix" result="effect1_dropShadow"/>
<feBlend mode="normal" in="SourceGraphic" in2="effect1_dropShadow" result="shape"/>
</filter>
<filter id="filter2_d" x="179.047" y="156.047" width="8.90671" height="8.90671" filterUnits="userSpaceOnUse" color-interpolation-filters="sRGB">
<feFlood flood-opacity="0" result="BackgroundImageFix"/>
<feColorMatrix in="SourceAlpha" type="matrix" values="0 0 0 0 0 0 0 0 0 0 0 0 0 0 0 0 0 0 127 0"/>
<feMorphology radius="0.651118" operator="dilate" in="SourceAlpha" result="effect1_dropShadow"/>
<feOffset/>
<feGaussianBlur stdDeviation="0.651118"/>
<feColorMatrix type="matrix" values="0 0 0 0 1 0 0 0 0 0.491667 0 0 0 0 0.491667 0 0 0 0.28 0"/>
<feBlend mode="normal" in2="BackgroundImageFix" result="effect1_dropShadow"/>
<feBlend mode="normal" in="SourceGraphic" in2="effect1_dropShadow" result="shape"/>
</filter>
<filter id="filter3_d" x="182.047" y="100.047" width="8.90671" height="8.90671" filterUnits="userSpaceOnUse" color-interpolation-filters="sRGB">
<feFlood flood-opacity="0" result="BackgroundImageFix"/>
<feColorMatrix in="SourceAlpha" type="matrix" values="0 0 0 0 0 0 0 0 0 0 0 0 0 0 0 0 0 0 127 0"/>
<feMorphology radius="0.651118" operator="dilate" in="SourceAlpha" result="effect1_dropShadow"/>
<feOffset/>
<feGaussianBlur stdDeviation="0.651118"/>
<feColorMatrix type="matrix" values="0 0 0 0 1 0 0 0 0 0.491667 0 0 0 0 0.491667 0 0 0 0.28 0"/>
<feBlend mode="normal" in2="BackgroundImageFix" result="effect1_dropShadow"/>
<feBlend mode="normal" in="SourceGraphic" in2="effect1_dropShadow" result="shape"/>
</filter>
<filter id="filter4_d" x="98.0466" y="197.047" width="8.90671" height="8.90671" filterUnits="userSpaceOnUse" color-interpolation-filters="sRGB">
<feFlood flood-opacity="0" result="BackgroundImageFix"/>
<feColorMatrix in="SourceAlpha" type="matrix" values="0 0 0 0 0 0 0 0 0 0 0 0 0 0 0 0 0 0 127 0"/>
<feMorphology radius="0.651118" operator="dilate" in="SourceAlpha" result="effect1_dropShadow"/>
<feOffset/>
<feGaussianBlur stdDeviation="0.651118"/>
<feColorMatrix type="matrix" values="0 0 0 0 1 0 0 0 0 0.491667 0 0 0 0 0.491667 0 0 0 0.28 0"/>
<feBlend mode="normal" in2="BackgroundImageFix" result="effect1_dropShadow"/>
<feBlend mode="normal" in="SourceGraphic" in2="effect1_dropShadow" result="shape"/>
</filter>
<filter id="filter5_d" x="101.047" y="172.047" width="8.90671" height="8.90671" filterUnits="userSpaceOnUse" color-interpolation-filters="sRGB">
<feFlood flood-opacity="0" result="BackgroundImageFix"/>
<feColorMatrix in="SourceAlpha" type="matrix" values="0 0 0 0 0 0 0 0 0 0 0 0 0 0 0 0 0 0 127 0"/>
<feMorphology radius="0.651118" operator="dilate" in="SourceAlpha" result="effect1_dropShadow"/>
<feOffset/>
<feGaussianBlur stdDeviation="0.651118"/>
<feColorMatrix type="matrix" values="0 0 0 0 1 0 0 0 0 0.491667 0 0 0 0 0.491667 0 0 0 0.28 0"/>
<feBlend mode="normal" in2="BackgroundImageFix" result="effect1_dropShadow"/>
<feBlend mode="normal" in="SourceGraphic" in2="effect1_dropShadow" result="shape"/>
</filter>
<filter id="filter6_d" x="101.047" y="99.0466" width="8.90671" height="8.90671" filterUnits="userSpaceOnUse" color-interpolation-filters="sRGB">
<feFlood flood-opacity="0" result="BackgroundImageFix"/>
<feColorMatrix in="SourceAlpha" type="matrix" values="0 0 0 0 0 0 0 0 0 0 0 0 0 0 0 0 0 0 127 0"/>
<feMorphology radius="0.651118" operator="dilate" in="SourceAlpha" result="effect1_dropShadow"/>
<feOffset/>
<feGaussianBlur stdDeviation="0.651118"/>
<feColorMatrix type="matrix" values="0 0 0 0 1 0 0 0 0 0.491667 0 0 0 0 0.491667 0 0 0 0.28 0"/>
<feBlend mode="normal" in2="BackgroundImageFix" result="effect1_dropShadow"/>
<feBlend mode="normal" in="SourceGraphic" in2="effect1_dropShadow" result="shape"/>
</filter>
</defs>
</svg>
