<svg width="290" height="283" fill="none" xmlns="http://www.w3.org/2000/svg"><g filter="url(#filter0_d)"><circle cx="145.5" cy="226.5" r="2.5" fill="#FF7070"/></g><path fill-rule="evenodd" clip-rule="evenodd" d="M146.326 231a.326.326 0 00-.652 0v.165a.325.325 0 00.652 0V231zm0 4.109a.326.326 0 00-.652 0v.328a.326.326 0 00.652 0v-.328zm0 4.272a.326.326 0 00-.652 0v.329a.326.326 0 00.652 0v-.329zm0 4.273a.325.325 0 00-.652 0v.329a.325.325 0 00.652 0v-.329zm0 4.273a.326.326 0 00-.652 0v.329a.326.326 0 00.652 0v-.329zm0 4.273a.326.326 0 00-.652 0v.328a.326.326 0 00.652 0v-.328zm0 4.272a.326.326 0 00-.652 0v.329a.326.326 0 00.652 0v-.329zm0 4.273a.325.325 0 00-.652 0v.329a.325.325 0 00.652 0v-.329zm0 4.273a.326.326 0 00-.652 0v.329a.326.326 0 00.652 0v-.329zm0 4.273a.326.326 0 00-.652 0v.328a.326.326 0 00.652 0v-.328zm0 4.272a.325.325 0 00-.652 0v.329a.326.326 0 00.652 0v-.329zM107 282.811h75v-6h-75v6z" fill="#FF7070"/><g filter="url(#filter1_d)"><circle cx="183.5" cy="206.5" r="2.5" fill="#FF7070"/></g><path d="M210 214h80" stroke="#FF7070" stroke-width="6"/><path d="M183 206l29 11" stroke="#FF7070" stroke-width=".651" stroke-linecap="round" stroke-linejoin="bevel" stroke-dasharray="0.33 3.91"/><g filter="url(#filter2_d)"><circle cx="183.5" cy="160.5" r="2.5" fill="#FF7070"/></g><path d="M290 114h-40" stroke="#FF7070" stroke-width="6"/><path d="M184 160l67-44" stroke="#FF7070" stroke-width=".651" stroke-linecap="round" stroke-linejoin="bevel" stroke-dasharray="0.33 3.91"/><g filter="url(#filter3_d)"><circle cx="186.5" cy="104.5" r="2.5" fill="#FF7070"/></g><path d="M210 3h80" stroke="#FF7070" stroke-width="6"/><path d="M187 104L213 3" stroke="#FF7070" stroke-width=".651" stroke-linecap="round" stroke-linejoin="bevel" stroke-dasharray="0.33 3.91"/><g filter="url(#filter4_d)"><circle cx="102.5" cy="201.5" r="2.5" fill="#FF7070"/></g><path d="M0 214h80" stroke="#FF7070" stroke-width="6"/><path d="M103 202l-25 12" stroke="#FF7070" stroke-width=".651" stroke-linecap="round" stroke-linejoin="bevel" stroke-dasharray="0.33 3.91"/><g filter="url(#filter5_d)"><circle cx="105.5" cy="176.5" r="2.5" fill="#FF7070"/></g><path d="M40 113H0" stroke="#FF7070" stroke-width="6"/><path d="M105 176l-67-61" stroke="#FF7070" stroke-width=".651" stroke-linecap="round" stroke-linejoin="bevel" stroke-dasharray="0.33 3.91"/><g filter="url(#filter6_d)"><circle cx="105.5" cy="103.5" r="2.5" fill="#FF7070"/></g><path d="M80 4H0" stroke="#FF7070" stroke-width="6"/><path d="M105 104L79 6" stroke="#FF7070" stroke-width=".651" stroke-linecap="round" stroke-linejoin="bevel" stroke-dasharray="0.33 3.91"/><defs><filter id="filter0_d" x="141.047" y="222.047" width="8.907" height="8.907" filterUnits="userSpaceOnUse" color-interpolation-filters="sRGB"><feFlood flood-opacity="0" result="BackgroundImageFix"/><feColorMatrix in="SourceAlpha" values="0 0 0 0 0 0 0 0 0 0 0 0 0 0 0 0 0 0 127 0"/><feMorphology radius=".651" operator="dilate" in="SourceAlpha" result="effect1_dropShadow"/><feOffset/><feGaussianBlur stdDeviation=".651"/><feColorMatrix values="0 0 0 0 1 0 0 0 0 0.491667 0 0 0 0 0.491667 0 0 0 0.28 0"/><feBlend in2="BackgroundImageFix" result="effect1_dropShadow"/><feBlend in="SourceGraphic" in2="effect1_dropShadow" result="shape"/></filter><filter id="filter1_d" x="179.047" y="202.047" width="8.907" height="8.907" filterUnits="userSpaceOnUse" color-interpolation-filters="sRGB"><feFlood flood-opacity="0" result="BackgroundImageFix"/><feColorMatrix in="SourceAlpha" values="0 0 0 0 0 0 0 0 0 0 0 0 0 0 0 0 0 0 127 0"/><feMorphology radius=".651" operator="dilate" in="SourceAlpha" result="effect1_dropShadow"/><feOffset/><feGaussianBlur stdDeviation=".651"/><feColorMatrix values="0 0 0 0 1 0 0 0 0 0.491667 0 0 0 0 0.491667 0 0 0 0.28 0"/><feBlend in2="BackgroundImageFix" result="effect1_dropShadow"/><feBlend in="SourceGraphic" in2="effect1_dropShadow" result="shape"/></filter><filter id="filter2_d" x="179.047" y="156.047" width="8.907" height="8.907" filterUnits="userSpaceOnUse" color-interpolation-filters="sRGB"><feFlood flood-opacity="0" result="BackgroundImageFix"/><feColorMatrix in="SourceAlpha" values="0 0 0 0 0 0 0 0 0 0 0 0 0 0 0 0 0 0 127 0"/><feMorphology radius=".651" operator="dilate" in="SourceAlpha" result="effect1_dropShadow"/><feOffset/><feGaussianBlur stdDeviation=".651"/><feColorMatrix values="0 0 0 0 1 0 0 0 0 0.491667 0 0 0 0 0.491667 0 0 0 0.28 0"/><feBlend in2="BackgroundImageFix" result="effect1_dropShadow"/><feBlend in="SourceGraphic" in2="effect1_dropShadow" result="shape"/></filter><filter id="filter3_d" x="182.047" y="100.047" width="8.907" height="8.907" filterUnits="userSpaceOnUse" color-interpolation-filters="sRGB"><feFlood flood-opacity="0" result="BackgroundImageFix"/><feColorMatrix in="SourceAlpha" values="0 0 0 0 0 0 0 0 0 0 0 0 0 0 0 0 0 0 127 0"/><feMorphology radius=".651" operator="dilate" in="SourceAlpha" result="effect1_dropShadow"/><feOffset/><feGaussianBlur stdDeviation=".651"/><feColorMatrix values="0 0 0 0 1 0 0 0 0 0.491667 0 0 0 0 0.491667 0 0 0 0.28 0"/><feBlend in2="BackgroundImageFix" result="effect1_dropShadow"/><feBlend in="SourceGraphic" in2="effect1_dropShadow" result="shape"/></filter><filter id="filter4_d" x="98.047" y="197.047" width="8.907" height="8.907" filterUnits="userSpaceOnUse" color-interpolation-filters="sRGB"><feFlood flood-opacity="0" result="BackgroundImageFix"/><feColorMatrix in="SourceAlpha" values="0 0 0 0 0 0 0 0 0 0 0 0 0 0 0 0 0 0 127 0"/><feMorphology radius=".651" operator="dilate" in="SourceAlpha" result="effect1_dropShadow"/><feOffset/><feGaussianBlur stdDeviation=".651"/><feColorMatrix values="0 0 0 0 1 0 0 0 0 0.491667 0 0 0 0 0.491667 0 0 0 0.28 0"/><feBlend in2="BackgroundImageFix" result="effect1_dropShadow"/><feBlend in="SourceGraphic" in2="effect1_dropShadow" result="shape"/></filter><filter id="filter5_d" x="101.047" y="172.047" width="8.907" height="8.907" filterUnits="userSpaceOnUse" color-interpolation-filters="sRGB"><feFlood flood-opacity="0" result="BackgroundImageFix"/><feColorMatrix in="SourceAlpha" values="0 0 0 0 0 0 0 0 0 0 0 0 0 0 0 0 0 0 127 0"/><feMorphology radius=".651" operator="dilate" in="SourceAlpha" result="effect1_dropShadow"/><feOffset/><feGaussianBlur stdDeviation=".651"/><feColorMatrix values="0 0 0 0 1 0 0 0 0 0.491667 0 0 0 0 0.491667 0 0 0 0.28 0"/><feBlend in2="BackgroundImageFix" result="effect1_dropShadow"/><feBlend in="SourceGraphic" in2="effect1_dropShadow" result="shape"/></filter><filter id="filter6_d" x="101.047" y="99.047" width="8.907" height="8.907" filterUnits="userSpaceOnUse" color-interpolation-filters="sRGB"><feFlood flood-opacity="0" result="BackgroundImageFix"/><feColorMatrix in="SourceAlpha" values="0 0 0 0 0 0 0 0 0 0 0 0 0 0 0 0 0 0 127 0"/><feMorphology radius=".651" operator="dilate" in="SourceAlpha" result="effect1_dropShadow"/><feOffset/><feGaussianBlur stdDeviation=".651"/><feColorMatrix values="0 0 0 0 1 0 0 0 0 0.491667 0 0 0 0 0.491667 0 0 0 0.28 0"/><feBlend in2="BackgroundImageFix" result="effect1_dropShadow"/><feBlend in="SourceGraphic" in2="effect1_dropShadow" result="shape"/></filter></defs></svg>