<svg width="448" height="423" fill="none" xmlns="http://www.w3.org/2000/svg"><g filter="url(#filter0_d)"><circle cx="223.229" cy="349.606" r="3.853" fill="#FF7070"/></g><path fill-rule="evenodd" clip-rule="evenodd" d="M224.604 359.494a.502.502 0 10-1.003 0v.237a.501.501 0 101.003 0v-.237zm0 5.927a.502.502 0 10-1.003 0v.474a.501.501 0 101.003 0v-.474zm0 6.165a.502.502 0 10-1.003 0v.474a.501.501 0 101.003 0v-.474zm0 6.164a.502.502 0 10-1.003 0v.474a.501.501 0 101.003 0v-.474zm0 6.164a.5.5 0 10-1.003 0v.475a.5.5 0 101.003 0v-.475zm0 6.165a.502.502 0 10-1.003 0v.474a.501.501 0 101.003 0v-.474zm0 6.164a.502.502 0 10-1.003 0v.474a.501.501 0 101.003 0v-.474zm0 6.165a.501.501 0 10-1.003 0v.474a.5.5 0 101.003 0v-.474zm0 6.164a.502.502 0 10-1.003 0v.474a.501.501 0 101.003 0v-.474zM164 422.388h115.582v-9.247H164v9.247z" fill="#FF7070"/><g filter="url(#filter1_d)"><circle cx="283.331" cy="318.783" r="3.853" fill="#FF7070"/></g><path d="M324.17 330.343h123.288" stroke="#FF7070" stroke-width="9.247"/><path d="M282.561 318.014l44.692 16.952" stroke="#FF7070" stroke-width="1.003" stroke-linecap="round" stroke-linejoin="bevel" stroke-dasharray="0.5 6.02"/><g filter="url(#filter2_d)"><circle cx="283.331" cy="247.894" r="3.853" fill="#FF7070"/></g><path d="M447.458 176.232h-61.644" stroke="#FF7070" stroke-width="9.247"/><path d="M284.102 247.124l103.254-67.809" stroke="#FF7070" stroke-width="1.003" stroke-linecap="round" stroke-linejoin="bevel" stroke-dasharray="0.5 6.02"/><g filter="url(#filter3_d)"><circle cx="287.956" cy="161.592" r="3.853" fill="#FF7070"/></g><path d="M324.172 5.17H447.46" stroke="#FF7070" stroke-width="9.247"/><path d="M288.727 160.821L328.796 5.17" stroke="#FF7070" stroke-width="1.003" stroke-linecap="round" stroke-linejoin="bevel" stroke-dasharray="0.5 6.02"/><g filter="url(#filter4_d)"><circle cx="158.503" cy="311.08" r="3.853" fill="#FF7070"/></g><path d="M.54 330.344h123.288" stroke="#FF7070" stroke-width="9.247"/><path d="M159.274 311.851l-38.527 18.493" stroke="#FF7070" stroke-width="1.003" stroke-linecap="round" stroke-linejoin="bevel" stroke-dasharray="0.5 6.02"/><g filter="url(#filter5_d)"><circle cx="163.126" cy="272.552" r="3.853" fill="#FF7070"/></g><path d="M62.184 174.691H.54" stroke="#FF7070" stroke-width="9.247"/><path d="M162.355 271.781L59.102 177.774" stroke="#FF7070" stroke-width="1.003" stroke-linecap="round" stroke-linejoin="bevel" stroke-dasharray="0.5 6.02"/><g filter="url(#filter6_d)"><circle cx="163.127" cy="160.052" r="3.853" fill="#FF7070"/></g><path d="M123.828 6.712H.541" stroke="#FF7070" stroke-width="9.247"/><path d="M162.356 160.823L122.288 9.795" stroke="#FF7070" stroke-width="1.003" stroke-linecap="round" stroke-linejoin="bevel" stroke-dasharray="0.5 6.02"/><defs><filter id="filter0_d" x="216.366" y="342.743" width="13.726" height="13.726" filterUnits="userSpaceOnUse" color-interpolation-filters="sRGB"><feFlood flood-opacity="0" result="BackgroundImageFix"/><feColorMatrix in="SourceAlpha" values="0 0 0 0 0 0 0 0 0 0 0 0 0 0 0 0 0 0 127 0"/><feMorphology radius="1.003" operator="dilate" in="SourceAlpha" result="effect1_dropShadow"/><feOffset/><feGaussianBlur stdDeviation="1.003"/><feColorMatrix values="0 0 0 0 1 0 0 0 0 0.491667 0 0 0 0 0.491667 0 0 0 0.28 0"/><feBlend in2="BackgroundImageFix" result="effect1_dropShadow"/><feBlend in="SourceGraphic" in2="effect1_dropShadow" result="shape"/></filter><filter id="filter1_d" x="276.468" y="311.92" width="13.726" height="13.726" filterUnits="userSpaceOnUse" color-interpolation-filters="sRGB"><feFlood flood-opacity="0" result="BackgroundImageFix"/><feColorMatrix in="SourceAlpha" values="0 0 0 0 0 0 0 0 0 0 0 0 0 0 0 0 0 0 127 0"/><feMorphology radius="1.003" operator="dilate" in="SourceAlpha" result="effect1_dropShadow"/><feOffset/><feGaussianBlur stdDeviation="1.003"/><feColorMatrix values="0 0 0 0 1 0 0 0 0 0.491667 0 0 0 0 0.491667 0 0 0 0.28 0"/><feBlend in2="BackgroundImageFix" result="effect1_dropShadow"/><feBlend in="SourceGraphic" in2="effect1_dropShadow" result="shape"/></filter><filter id="filter2_d" x="276.468" y="241.031" width="13.726" height="13.726" filterUnits="userSpaceOnUse" color-interpolation-filters="sRGB"><feFlood flood-opacity="0" result="BackgroundImageFix"/><feColorMatrix in="SourceAlpha" values="0 0 0 0 0 0 0 0 0 0 0 0 0 0 0 0 0 0 127 0"/><feMorphology radius="1.003" operator="dilate" in="SourceAlpha" result="effect1_dropShadow"/><feOffset/><feGaussianBlur stdDeviation="1.003"/><feColorMatrix values="0 0 0 0 1 0 0 0 0 0.491667 0 0 0 0 0.491667 0 0 0 0.28 0"/><feBlend in2="BackgroundImageFix" result="effect1_dropShadow"/><feBlend in="SourceGraphic" in2="effect1_dropShadow" result="shape"/></filter><filter id="filter3_d" x="281.093" y="154.729" width="13.726" height="13.726" filterUnits="userSpaceOnUse" color-interpolation-filters="sRGB"><feFlood flood-opacity="0" result="BackgroundImageFix"/><feColorMatrix in="SourceAlpha" values="0 0 0 0 0 0 0 0 0 0 0 0 0 0 0 0 0 0 127 0"/><feMorphology radius="1.003" operator="dilate" in="SourceAlpha" result="effect1_dropShadow"/><feOffset/><feGaussianBlur stdDeviation="1.003"/><feColorMatrix values="0 0 0 0 1 0 0 0 0 0.491667 0 0 0 0 0.491667 0 0 0 0.28 0"/><feBlend in2="BackgroundImageFix" result="effect1_dropShadow"/><feBlend in="SourceGraphic" in2="effect1_dropShadow" result="shape"/></filter><filter id="filter4_d" x="151.64" y="304.217" width="13.726" height="13.726" filterUnits="userSpaceOnUse" color-interpolation-filters="sRGB"><feFlood flood-opacity="0" result="BackgroundImageFix"/><feColorMatrix in="SourceAlpha" values="0 0 0 0 0 0 0 0 0 0 0 0 0 0 0 0 0 0 127 0"/><feMorphology radius="1.003" operator="dilate" in="SourceAlpha" result="effect1_dropShadow"/><feOffset/><feGaussianBlur stdDeviation="1.003"/><feColorMatrix values="0 0 0 0 1 0 0 0 0 0.491667 0 0 0 0 0.491667 0 0 0 0.28 0"/><feBlend in2="BackgroundImageFix" result="effect1_dropShadow"/><feBlend in="SourceGraphic" in2="effect1_dropShadow" result="shape"/></filter><filter id="filter5_d" x="156.263" y="265.689" width="13.726" height="13.726" filterUnits="userSpaceOnUse" color-interpolation-filters="sRGB"><feFlood flood-opacity="0" result="BackgroundImageFix"/><feColorMatrix in="SourceAlpha" values="0 0 0 0 0 0 0 0 0 0 0 0 0 0 0 0 0 0 127 0"/><feMorphology radius="1.003" operator="dilate" in="SourceAlpha" result="effect1_dropShadow"/><feOffset/><feGaussianBlur stdDeviation="1.003"/><feColorMatrix values="0 0 0 0 1 0 0 0 0 0.491667 0 0 0 0 0.491667 0 0 0 0.28 0"/><feBlend in2="BackgroundImageFix" result="effect1_dropShadow"/><feBlend in="SourceGraphic" in2="effect1_dropShadow" result="shape"/></filter><filter id="filter6_d" x="156.264" y="153.189" width="13.726" height="13.726" filterUnits="userSpaceOnUse" color-interpolation-filters="sRGB"><feFlood flood-opacity="0" result="BackgroundImageFix"/><feColorMatrix in="SourceAlpha" values="0 0 0 0 0 0 0 0 0 0 0 0 0 0 0 0 0 0 127 0"/><feMorphology radius="1.003" operator="dilate" in="SourceAlpha" result="effect1_dropShadow"/><feOffset/><feGaussianBlur stdDeviation="1.003"/><feColorMatrix values="0 0 0 0 1 0 0 0 0 0.491667 0 0 0 0 0.491667 0 0 0 0.28 0"/><feBlend in2="BackgroundImageFix" result="effect1_dropShadow"/><feBlend in="SourceGraphic" in2="effect1_dropShadow" result="shape"/></filter></defs></svg>