<svg width="131" height="126" viewBox="0 0 131 126" fill="none" xmlns="http://www.w3.org/2000/svg">
<path d="M65.4251 0C29.5126 0 0.400879 25.7293 0.400879 57.4742C0.400879 73.5702 7.90719 88.1014 19.966 98.5374C17.3218 113.831 0.258772 120.029 1.43116 124.241C15.8449 130.211 44.718 117.067 51.7676 113.658C56.178 114.491 60.7406 114.953 65.4251 114.953C101.338 114.953 130.454 89.2242 130.454 57.4742C130.454 25.7242 101.338 0 65.4251 0ZM60.8167 59.8673C60.8167 75.4959 53.9093 84.2654 40.2975 85.9268C40.267 85.9319 40.2467 85.9319 40.2163 85.9319C40.0691 85.9319 39.9067 85.876 39.8001 85.7744C39.6631 85.6575 39.5819 85.4797 39.5819 85.2968V77.3554C39.5819 77.1217 39.7088 76.9083 39.9067 76.8016C46.1137 73.4127 49.2147 68.0779 49.372 60.5075H40.2163C39.8712 60.5075 39.5819 60.2229 39.5819 59.8724V39.8895C39.5819 39.5389 39.8712 39.2544 40.2163 39.2544H60.1823C60.5275 39.2544 60.8167 39.5389 60.8167 39.8895V59.8673ZM96.1659 59.8673C96.1659 75.2571 90.0502 83.0511 75.6974 85.9217C75.6568 85.9268 75.6162 85.9319 75.5756 85.9319C75.4284 85.9319 75.2863 85.8811 75.1696 85.7896C75.0224 85.6728 74.9412 85.4848 74.9412 85.2968V77.3554C74.9412 77.1217 75.0681 76.9083 75.266 76.8016C81.473 73.4127 84.574 68.0779 84.7314 60.5075H75.5756C75.2305 60.5075 74.9412 60.2229 74.9412 59.8724V39.8895C74.9412 39.5389 75.2305 39.2544 75.5756 39.2544H95.5315C95.8868 39.2544 96.1659 39.5389 96.1659 39.8895V59.8673Z" fill="white"/>
</svg>
