<?xml version="1.0" encoding="utf-8"?><svg viewBox="0 0 174 174" xmlns="http://www.w3.org/2000/svg" xmlns:xlink="http://www.w3.org/1999/xlink"><style>:root>svg{display:none}:root>svg:target{display:block}</style><svg fill="none" viewBox="0 0 16 8" id="arrow-up" xmlns="http://www.w3.org/2000/svg"><path d="M8.013.14c.266 0 .524.082.73.233l6.845 5.066c.233.172.38.419.407.687a.94.94 0 01-.259.741 1.192 1.192 0 01-.773.362 1.242 1.242 0 01-.835-.23L8.013 2.46 1.898 6.837a1.195 1.195 0 01-.396.185 1.279 1.279 0 01-.87-.082 1.12 1.12 0 01-.343-.255.992.992 0 01-.233-.359.907.907 0 01.088-.807c.076-.122.18-.229.305-.313L7.294.312A1.25 1.25 0 018.013.14z" fill="#1F4C45"/></svg><svg fill="none" viewBox="0 0 148 148" id="bottle" xmlns="http://www.w3.org/2000/svg"><path d="M73.894 143.894c38.66 0 70-31.34 70-70s-31.34-70-70-70-70 31.34-70 70 31.34 70 70 70z" stroke="#1F4C45" stroke-width="7.788" stroke-miterlimit="22.93"/><path d="M62.661 66.702a4.754 4.754 0 00-4.656 4.689v40.563a4.639 4.639 0 004.656 4.64h21.71a4.64 4.64 0 004.608-4.64V71.391a4.624 4.624 0 00-4.608-4.69H62.66zm23.235 45.252a1.622 1.622 0 01-1.525 1.622H62.66a1.62 1.62 0 01-1.622-1.541V85.993a20.086 20.086 0 0112.396-3.813c4.477.052 8.842-1.399 12.396-4.12l.065 33.894zm0-40.563v2.53a16.517 16.517 0 01-12.396 5.21 24.03 24.03 0 00-12.396 3.244V71.391a1.622 1.622 0 011.622-1.542h21.645a1.623 1.623 0 011.622 1.542h-.097zM74.636 39.914c.144-.145.26-.316.34-.503.079-.185.117-.384.114-.584a1.623 1.623 0 00-.957-1.444 1.2 1.2 0 00-.633-.065 1.622 1.622 0 00-1.541 1.541 1.459 1.459 0 00.438 1.087c.144.141.315.252.503.325.186.092.392.137.6.13.2.003.4-.036.584-.114.208-.085.396-.212.552-.373z" fill="#1F4C45"/><path d="M88.719 25.15a6.198 6.198 0 00-4.349-1.818H62.66a6.198 6.198 0 00-6.197 6.198v23.656c-.235.13-.453.288-.65.47a3.115 3.115 0 00-.908 2.191v4.657c.002.27.046.538.13.795a6.214 6.214 0 00-3.245 5.403V117a6.195 6.195 0 006.198 6.198h30.99A6.196 6.196 0 0095.176 117V66.702a6.165 6.165 0 00-3.245-5.403c.079-.258.117-.526.114-.795v-4.657a2.97 2.97 0 00-1.623-2.66V29.53a6.135 6.135 0 00-1.703-4.38zm3.358 41.552V117a3.078 3.078 0 01-1.918 2.838c-.375.153-.776.23-1.18.228H58.003a3.1 3.1 0 01-3.099-3.099V66.669a3.1 3.1 0 013.1-3.099h30.973a3.083 3.083 0 013.1 3.132zm-3.099-6.198H58.004v-4.657h30.974v4.657zm-9.28-12.396h1.622v4.656H65.744v-4.656h13.953zm-10.855-3.1v-12.38h9.297v12.38h-9.297zM87.437 29.53v23.234H84.37v-4.656a3.099 3.099 0 00-3.099-3.1v-12.38a3.085 3.085 0 00-3.099-3.098h-9.33a3.084 3.084 0 00-3.082 3.099v12.38a3.099 3.099 0 00-3.1 3.099v4.656h-3.098V29.53a3.147 3.147 0 013.099-3.1h21.71a3.099 3.099 0 013.098 3.1h-.032z" fill="#1F4C45"/></svg><svg fill="none" viewBox="0 0 22 16" id="burger" xmlns="http://www.w3.org/2000/svg"><path d="M2 2.09h18M2 8.03h18m-7.875 5.939H20" stroke="#1F4C45" stroke-width="2.5" stroke-linecap="round" stroke-linejoin="round"/></svg><svg fill="none" viewBox="0 0 24 25" id="burger-btn" xmlns="http://www.w3.org/2000/svg"><path d="M13.25 23H22M2 2h20H2zm0 10.5h20H2z" stroke="#2F6F65" stroke-width="3" stroke-linecap="round" stroke-linejoin="round"/></svg><svg fill="none" viewBox="0 0 151 150" id="caramelized-apple" xmlns="http://www.w3.org/2000/svg"><g clip-path="url(#eclip0)" fill="#FF7070"><path d="M106.86 58.763c-6.434-4.558-13.317-5.84-19.383-3.611a17.453 17.453 0 00-5.796 3.552 62.329 62.329 0 01-5.459 4.465L73.007 57.6a2.142 2.142 0 00-3.71 2.143l3.365 5.829a60.914 60.914 0 01-3.71 2.142L48.45 32.206l3.711-2.143 8.137 14.095a2.143 2.143 0 003.711-2.142L54.8 26.066a2.142 2.142 0 00-2.926-.784l-7.421 4.284a2.142 2.142 0 00-.784 2.927L65.09 69.596a62.308 62.308 0 01-6.596 2.495 17.46 17.46 0 00-5.975 3.243c-4.963 4.138-7.294 10.741-6.564 18.592.703 7.555 4.183 15.425 9.8 22.162 5.618 6.736 12.734 11.575 20.04 13.624 6.418 1.8 12.352 1.288 17.032-1.414a17.33 17.33 0 006.192-6.094 6.88 6.88 0 015.799-3.348 17.35 17.35 0 005.682-1.056c6.064-2.229 10.48-7.664 12.432-15.303 1.878-7.351 1.246-15.933-1.779-24.166-3.026-8.233-8.102-15.182-14.293-19.568zM55.263 78.625c.566-.471 1.17-.892 1.809-1.261.844-.488 1.75-.884 2.709-1.186a65.516 65.516 0 0024.796-14.316 13.185 13.185 0 014.378-2.689c4.701-1.727 10.18-.631 15.428 3.086 2.005 1.42 3.881 3.155 5.589 5.144a7.301 7.301 0 00-2.293.854c-3.501 2.02-4.704 6.513-2.684 10.013l2.488 4.308a3.048 3.048 0 01-1.116 4.158 3.049 3.049 0 01-4.16-1.112l-1.359-2.354a7.282 7.282 0 00-4.45-3.415 7.278 7.278 0 00-5.56.733c-3.5 2.02-4.704 6.512-2.684 10.011l1.359 2.354a3.048 3.048 0 01-1.116 4.158c-1.454.84-3.32.34-4.16-1.113l-6.022-10.431a7.282 7.282 0 00-4.45-3.415 7.282 7.282 0 00-5.562.734c-3.499 2.02-4.702 6.51-2.682 10.01l9.539 16.521a3.05 3.05 0 01-1.115 4.161 3.05 3.05 0 01-4.16-1.115l-5.726-9.917a7.27 7.27 0 00-4.451-3.415 7.281 7.281 0 00-7.518 2.386c-.987-2.662-1.623-5.35-1.868-7.987-.596-6.404 1.195-11.697 5.041-14.905zm61.868 1.184c2.729 7.427 3.315 15.108 1.65 21.628-1.593 6.231-5.058 10.614-9.759 12.341-1.359.5-2.8.767-4.282.794a11.141 11.141 0 00-9.392 5.422 13.044 13.044 0 01-2.829 3.312c-3.846 3.208-9.375 4.017-15.567 2.28-6.48-1.817-12.838-6.165-17.905-12.242a43.121 43.121 0 01-3.97-5.606c-.008-.015-.013-.03-.021-.044a3.054 3.054 0 011.132-4.121 3.031 3.031 0 012.314-.303c.783.209 1.439.712 1.846 1.418l5.726 9.917c2.02 3.5 6.513 4.704 10.013 2.683s4.704-6.513 2.683-10.013l-9.538-16.522a3.046 3.046 0 013.423-4.463c.786.21 1.443.715 1.85 1.419l6.023 10.431c2.02 3.5 6.511 4.702 10.012 2.682 3.5-2.021 4.704-6.513 2.684-10.012l-1.359-2.354a3.048 3.048 0 011.116-4.158 3.022 3.022 0 012.308-.305c.785.211 1.442.715 1.849 1.42l1.359 2.353c2.02 3.5 6.512 4.702 10.012 2.68 3.501-2.02 4.705-6.511 2.685-10.01l-2.488-4.308a3.05 3.05 0 011.115-4.16 3.022 3.022 0 012.309-.303 3.029 3.029 0 011.837 1.396c.016.027.034.053.051.08a43.108 43.108 0 013.113 6.668z"/><path d="M67.724 52.735a2.142 2.142 0 10-2.142-3.711 2.142 2.142 0 002.142 3.71z"/></g><defs><clipPath id="eclip0"><path fill="#fff" transform="rotate(-30 102.678 26.181)" d="M0 0h109.691v109.691H0z"/></clipPath></defs></svg><svg fill="none" viewBox="0 0 31 38" id="cart" xmlns="http://www.w3.org/2000/svg"><path d="M31 33.151c0 .81-.64 1.467-1.427 1.467h-1.428v1.467c0 .81-.639 1.467-1.427 1.467-.789 0-1.428-.657-1.428-1.467v-1.467h-1.427c-.789 0-1.428-.657-1.428-1.467s.64-1.467 1.428-1.467h1.427v-1.467c0-.81.64-1.466 1.428-1.466.788 0 1.427.656 1.427 1.466v1.467h1.428c.788 0 1.427.657 1.427 1.467zm0-22.883V24.35c0 .81-.64 1.467-1.427 1.467-.789 0-1.428-.657-1.428-1.467V11.735H25.29v4.4c0 .81-.639 1.467-1.427 1.467-.789 0-1.428-.656-1.428-1.466v-4.401H8.731v4.4c0 .81-.639 1.467-1.427 1.467-.789 0-1.428-.656-1.428-1.466v-4.401H3.021v22.883h15.132c.788 0 1.427.657 1.427 1.467s-.639 1.467-1.427 1.467H1.594c-.788 0-1.427-.657-1.427-1.467V10.268c0-.81.639-1.467 1.427-1.467h4.35C6.51 3.852 10.617 0 15.584 0c4.965 0 9.072 3.852 9.639 8.801h4.35c.788 0 1.427.657 1.427 1.467zm-8.66-1.467c-.546-3.326-3.368-5.867-6.757-5.867S9.373 5.475 8.827 8.8H22.34z" fill="#FF7D7D"/></svg><svg fill="none" viewBox="0 0 24 23" id="close" xmlns="http://www.w3.org/2000/svg"><path d="M15.717 8.933a.958.958 0 10-1.308-1.402l-2.804 2.615L8.991 7.34A.958.958 0 007.59 8.648l2.614 2.804L7.4 14.066a.958.958 0 101.307 1.401l2.805-2.613 2.614 2.804a.96.96 0 001.612-.988.959.959 0 00-.211-.318l-2.613-2.804 2.804-2.615z" fill="#FF7070"/><path fill-rule="evenodd" clip-rule="evenodd" d="M1.016 11.5C1.016 5.678 5.736.958 11.557.958 17.38.958 22.1 5.678 22.1 11.5S17.379 22.04 11.557 22.04 1.016 17.321 1.016 11.5zm10.541 8.625a8.624 8.624 0 110-17.248 8.624 8.624 0 010 17.248z" fill="#FF7070"/></svg><svg fill="none" viewBox="0 0 89 94" id="cucumber" xmlns="http://www.w3.org/2000/svg"><g clip-path="url(#hclip0)" fill="#FF7070"><path d="M30.375 86.34c-.449-.883-1.492-1.215-2.33-.743l-.086.049c-.838.472-1.154 1.57-.706 2.452.31.61.905.957 1.52.957.274 0 .552-.07.81-.215l.087-.049c.838-.472 1.154-1.57.705-2.452zM30.074 75.37a1.663 1.663 0 00-2.435 0l-1.193 1.256a1.88 1.88 0 000 2.562c.336.354.777.53 1.218.53.44 0 .88-.176 1.217-.53l1.193-1.255a1.88 1.88 0 000-2.563z"/><path d="M68.69 51.487c10.582-14.465 13.627-25.539 8.879-32.28.424-.701.347-1.642-.234-2.254a1.665 1.665 0 00-1.55-.497 8.282 8.282 0 01-2.754-3.053c-1.63-3.089-.57-6.997 2.365-8.713a4.3 4.3 0 013.442-.416c1.163.35 2.127 1.154 2.714 2.267.425.805.527 1.736.286 2.622a3.401 3.401 0 01-1.56 2.067 2.163 2.163 0 01-1.73.21 2.287 2.287 0 01-1.366-1.14c-.395-.75-.138-1.699.574-2.115.831-.486 1.13-1.59.669-2.464-.462-.874-1.51-1.19-2.342-.703-2.371 1.386-3.23 4.545-1.911 7.04.742 1.406 1.96 2.423 3.43 2.865a5.435 5.435 0 004.35-.526c3.239-1.894 4.41-6.208 2.61-9.616-1.034-1.958-2.731-3.375-4.778-3.99a7.572 7.572 0 00-6.06.732c-4.394 2.569-6.102 8.275-4.012 12.997a14.082 14.082 0 00-2.462-.064c-1.6.095-3.325.446-5.164 1.046-.951-1.27-3.077-3.827-6.51-6.494C51.233 5.634 43.852 1.414 33.353.473a1.663 1.663 0 00-1.279.44 1.85 1.85 0 00-.587 1.273c-.168 3.48 1.094 8.89 2.043 12.399a42.535 42.535 0 00-7.171-1.477c-5.694-.67-14.256-.454-22.715 4.382-.409.233-.71.63-.836 1.101-.125.471-.065.975.168 1.398C7.82 28.788 14.17 33.547 18.642 35.99c1.634.892 3.14 1.55 4.428 2.032-2.416 1.605-5.285 3.995-6.551 6.895a1.89 1.89 0 00.174 1.825c.76 1.096 2.265 1.864 4.723 2.413-5.668 6.804-10.007 13.166-12.75 18.73-2.206 4.474-3.417 8.498-3.6 11.962-.21 3.952.887 7.22 3.259 9.716 2.19 2.305 4.976 3.461 8.317 3.461 1.633 0 3.397-.275 5.29-.828.916-.267 1.453-1.265 1.199-2.23-.254-.964-1.204-1.528-2.12-1.261-4.547 1.327-7.9.77-10.251-1.704-3.338-3.511-3.013-9.382.963-17.448 3.766-7.641 10.748-16.932 20.191-26.868 9.426-9.917 18.26-17.258 25.55-21.227 7.673-4.179 13.247-4.526 16.569-1.03 2.54 2.671 2.933 6.784 1.17 12.225-1.701 5.252-5.3 11.498-10.698 18.573-4.806.23-9.548 2.27-13.21 6.123-3.878 4.08-5.824 9.433-5.84 14.791-3.834 3.6-7.52 6.706-10.965 9.235-.78.572-.971 1.702-.427 2.522.335.505.87.775 1.414.775.34 0 .684-.105.983-.326 2.993-2.196 6.154-4.807 9.426-7.781.77 3.852 2.572 7.519 5.409 10.504 3.893 4.096 9.008 6.145 14.123 6.145 5.114 0 10.229-2.049 14.122-6.145 7.788-8.194 7.788-21.526 0-29.72-3.06-3.22-6.875-5.173-10.85-5.862zM55.88 18.24c-2.009 1.094-4.126 2.43-6.33 3.989l-4.324-7.985c-.47-.87-1.522-1.173-2.349-.678-.826.496-1.114 1.602-.643 2.471l4.482 8.28c-1.931 1.48-3.92 3.117-5.957 4.902l-12.286-4.103c-.905-.303-1.874.225-2.162 1.178-.288.954.214 1.973 1.12 2.275l10.253 3.424a183.7 183.7 0 00-8.205 8.13 195.628 195.628 0 00-5.34 5.845c-1.405-.181-2.816-.51-3.728-.85 2.053-2.843 6.28-5.233 7.948-5.998.706-.323 1.12-1.1 1.018-1.904-.102-.803-.701-1.437-1.463-1.552-.034-.005-3.431-.54-7.82-2.963-5.346-2.953-9.777-7.285-13.191-12.892 5.72-2.855 12.087-3.902 18.958-3.114 5.676.652 9.579 2.383 9.615 2.4a1.657 1.657 0 001.847-.332c.5-.483.682-1.23.467-1.908-.736-2.311-2.443-8.397-2.807-12.557 8.606 1.164 14.722 4.678 18.421 7.526 2.49 1.917 4.23 3.78 5.263 5.022-.907.413-1.835.875-2.786 1.393zm21.225 66.266c-6.445 6.781-16.931 6.781-23.376 0s-6.445-17.815 0-24.596c3.223-3.39 7.455-5.085 11.688-5.085 4.233 0 8.465 1.695 11.688 5.085 6.445 6.781 6.445 17.815 0 24.596z"/><path d="M67.845 57.946a3.912 3.912 0 00-4.855 0c-1.68 1.302-2.16 3.718-1.117 5.62l2.053 3.742c.308.56.876.905 1.491.905.615 0 1.184-.345 1.491-.905l2.053-3.742c1.044-1.902.564-4.318-1.116-5.62zm-1.866 3.808l-.562 1.025-.562-1.025a.706.706 0 01.177-.89.626.626 0 01.385-.135c.135 0 .27.045.385.134.266.207.342.59.177.891zM68.962 80.852l-2.054-3.742a1.708 1.708 0 00-1.49-.906c-.616 0-1.184.346-1.492.906l-2.053 3.742c-1.043 1.902-.563 4.317 1.117 5.62a3.95 3.95 0 002.427.844c.851 0 1.702-.281 2.428-.844 1.68-1.302 2.16-3.718 1.117-5.62zm-3.16 2.703a.62.62 0 01-.77 0 .705.705 0 01-.177-.891l.562-1.024.562 1.024a.705.705 0 01-.177.89zM62.129 74.206a1.708 1.708 0 00-1.491-.905H56.53c-2.086 0-3.835 1.645-4.067 3.827-.2 1.886.775 3.664 2.428 4.424.533.245 1.09.362 1.64.362 1.422 0 2.791-.783 3.544-2.154l2.053-3.742a1.894 1.894 0 000-1.812zm-5.036 3.742a.634.634 0 01-.822.285.686.686 0 01-.385-.702.662.662 0 01.645-.607h1.125l-.563 1.024zM75.943 62.865c-1.912-.88-4.14-.109-5.184 1.793L68.704 68.4a1.894 1.894 0 000 1.811c.308.56.876.906 1.491.906h4.107c2.086 0 3.835-1.645 4.067-3.828.2-1.885-.775-3.664-2.427-4.424zm-.995 4.022a.662.662 0 01-.645.607h-1.124l.562-1.025a.633.633 0 01.822-.284c.262.12.417.403.385.702zM78.37 77.128c-.232-2.182-1.98-3.827-4.067-3.827h-4.106c-.615 0-1.184.345-1.491.905a1.894 1.894 0 000 1.812l2.053 3.742c.753 1.371 2.122 2.155 3.544 2.155.55 0 1.107-.117 1.64-.363 1.652-.76 2.628-2.538 2.427-4.424zm-3.807 1.105a.632.632 0 01-.822-.285l-.562-1.024h1.124c.331 0 .608.26.645.607a.685.685 0 01-.385.702zM62.129 68.4l-2.054-3.742c-1.043-1.902-3.272-2.672-5.184-1.793-1.652.76-2.627 2.538-2.427 4.425.232 2.181 1.98 3.827 4.067 3.827h4.107c.614 0 1.183-.345 1.49-.906a1.893 1.893 0 000-1.811zm-5.598-.906a.661.661 0 01-.645-.607.686.686 0 01.385-.702.62.62 0 01.26-.057c.226 0 .443.124.562.341l.563 1.025H56.53zM17.695 76.94a1.663 1.663 0 00-2.435 0l-1.124 1.184a1.88 1.88 0 000 2.562c.336.353.776.53 1.217.53.44 0 .881-.176 1.217-.53l1.125-1.184a1.88 1.88 0 000-2.562zM27.71 59.184a1.662 1.662 0 00-2.435 0l-1.193 1.255a1.88 1.88 0 000 2.562c.336.354.777.531 1.217.531.44 0 .882-.177 1.218-.53l1.193-1.256a1.879 1.879 0 000-2.562zM39.495 44.523a1.662 1.662 0 00-2.435 0l-1.02 1.072a1.88 1.88 0 000 2.563c.337.353.778.53 1.218.53.44 0 .881-.177 1.218-.53l1.02-1.073a1.88 1.88 0 000-2.562zM38.985 68.133a1.662 1.662 0 00-2.435 0l-.89.936a1.879 1.879 0 00.001 2.562c.336.354.777.53 1.218.53.44 0 .88-.176 1.217-.53l.89-.936a1.879 1.879 0 000-2.562zM53.836 44.757a1.663 1.663 0 00-2.435 0l-.574.604a1.88 1.88 0 000 2.562c.336.354.777.53 1.217.53.441 0 .882-.176 1.218-.53l.574-.604a1.88 1.88 0 000-2.562zM43.118 55.24a1.663 1.663 0 00-2.436 0l-1.25 1.317a1.88 1.88 0 000 2.562c.336.354.776.531 1.217.531.44 0 .881-.177 1.217-.53l1.252-1.317a1.88 1.88 0 000-2.562zM64.563 39.947a1.662 1.662 0 00-2.435 0l-.6.63a1.88 1.88 0 000 2.563c.337.354.778.53 1.218.53.44 0 .881-.176 1.218-.53l.599-.63a1.88 1.88 0 000-2.563zM55.229 32.201a1.663 1.663 0 00-2.435 0l-.555.584a1.88 1.88 0 000 2.562c.336.354.777.53 1.218.53.44 0 .88-.176 1.217-.53l.555-.584a1.88 1.88 0 000-2.562zM67.553 26.541a1.663 1.663 0 00-2.435 0l-.918.966a1.88 1.88 0 000 2.562c.336.354.776.531 1.217.531.44 0 .881-.177 1.218-.53l.918-.967a1.88 1.88 0 000-2.562zM23.157 23.554a1.689 1.689 0 00-1.218-.53c-.452 0-.896.193-1.217.53a1.876 1.876 0 000 2.562c.32.336.765.53 1.217.53.453 0 .898-.194 1.218-.53a1.875 1.875 0 000-2.562z"/></g><defs><clipPath id="hclip0"><path fill="#fff" transform="translate(0 .463)" d="M0 0h88.151v92.75H0z"/></clipPath></defs></svg><svg fill="none" viewBox="0 0 152 151" id="delivery" xmlns="http://www.w3.org/2000/svg"><g clip-path="url(#iclip0)"><path d="M140.089 102.871c14.664-35.772-2.447-76.657-38.218-91.32C66.1-3.113 25.214 13.998 10.551 49.769c-14.664 35.771 2.447 76.657 38.218 91.32 35.771 14.664 76.657-2.447 91.32-38.218z" stroke="#1F4C45" stroke-width="8" stroke-miterlimit="22.93"/><path d="M33.584 93.466a6.532 6.532 0 002.733 4.584c.15 0 14.4 9.616 23.233 15.5a29.548 29.548 0 0013.05 4.763 29.545 29.545 0 0013.784-1.73l13.333-5c2.176-.82 4.403-1.5 6.666-2.033l.467-.117c.261.142.553.216.85.217h5.417v1.666a1.81 1.81 0 001.123 1.668c.22.09.456.134.693.132h9.55a1.792 1.792 0 001.284-.521 1.81 1.81 0 00.533-1.279v-24a1.809 1.809 0 00-.533-1.279 1.795 1.795 0 00-1.284-.52h-16.866a1.815 1.815 0 00-1.667.916 19.582 19.582 0 00-5-3.05v-24.05l5.967-2.367a1.87 1.87 0 001.033-1.066 1.84 1.84 0 00-.117-1.484l-7.116-13.066v-.117a1.668 1.668 0 00-.967-.733L71.4 31a1.933 1.933 0 00-1.15 0l-28.333 9.483-.367.167a1.667 1.667 0 00-.583.566L33.8 54.333a1.768 1.768 0 00-.116 1.483 1.865 1.865 0 001.033 1.067l5.95 2.45v26.8a7.352 7.352 0 00-5.45 2.15v.1a6.5 6.5 0 00-1.633 5.083zm83.066-4.333h5.95v20.433h-5.95V89.133zM109.433 106V89.133h3.6V106h-3.6zm-66.1-61.667L68.168 53.9l-6.017 9.916-24.2-9.483 5.383-10zM69 72.666V88.65h-7.783a7.35 7.35 0 00-6.184 3.333l-10.733-5v-26.3l17.934 7.133c.218.085.449.13.683.134a1.817 1.817 0 001.55-.884l6.367-10.516L77.2 67.066a1.8 1.8 0 001.55.884c.229-.003.455-.048.667-.134l17.916-7.133V82.35A18.533 18.533 0 0085 85.016c-.317.184-.65.434-1.083.734A12.5 12.5 0 0176.9 88.7h-4.267V72.666a1.817 1.817 0 00-3.633 0zm24.817-30.4l-22.983 8.85-23-8.85 23-7.7 22.983 7.7zM79.5 63.933l-6-9.917 24.834-9.683 5.383 10-24.217 9.6zM37.834 90.85a3.766 3.766 0 013.933-.817L53.9 95.6v.5a7.35 7.35 0 007.334 7.333h27.333a1.815 1.815 0 001.284-3.101 1.816 1.816 0 00-1.284-.532h-27.35a3.717 3.717 0 110-7.417h15.7a15.816 15.816 0 009.133-3.633c.3-.217.617-.434.767-.517 8.617-5 15-1.25 18.983 2.967V106h-.35a58.242 58.242 0 00-7.05 2.166l-13.333 5a25.907 25.907 0 01-23.55-2.666c-8.667-5.767-22.567-15-23.2-15.484a2.917 2.917 0 01-1.217-2.05 3 3 0 01.733-2.166v.05z" fill="#1F4C45"/></g><defs><clipPath id="iclip0"><path fill="#fff" d="M0 0h152v151H0z"/></clipPath></defs></svg><svg fill="none" viewBox="0 0 12 13" id="drop-arrow" xmlns="http://www.w3.org/2000/svg"><path d="M12 6.5L.75 12.995V.005L12 6.5z" fill="#1F4C45"/></svg><svg fill="none" viewBox="0 0 94 94" id="leaf" xmlns="http://www.w3.org/2000/svg"><g clip-path="url(#kclip0)" fill="#FF7D7D" fill-opacity=".9"><path d="M88.344 18.406l-1.82-4.728-3.19 3.934c-.1.126-10.19 12.41-23.463 14.306-2.52.36-4.872.829-7.146 1.354.624-10.322-3.589-20.168-12.539-29.335L36.65.327l-1.377 4.867c-.032.102-3.085 10.61-10.84 15.342-8.496 5.2-13.907 10.948-16.514 17.558A25.781 25.781 0 007.73 57.67a17.52 17.52 0 009.472 9.556c.421.16.85.3 1.286.416-.225 2.922.033 5.86.762 8.698-1.58.138-3.088.208-4.5.208a37.344 37.344 0 01-11.452-1.567L1.286 80.49a42.086 42.086 0 0013.477 1.919 57.881 57.881 0 006.788-.425 22.094 22.094 0 003.515 4.626 24.199 24.199 0 0017.528 6.445A45.826 45.826 0 0069.84 83.29l.859-.674c8.056-6.31 32.539-25.482 17.645-64.21zm-68.87 43.41l-.047-.018a11.563 11.563 0 01-6.325-6.446 19.904 19.904 0 01.251-15.096c2.127-5.394 6.739-10.207 14.124-14.719a31.932 31.932 0 0011.62-14.027 30.117 30.117 0 017.523 23.437 43.269 43.269 0 00-17.405 10.23 37.08 37.08 0 00-9.741 16.638zM67.097 77.99l-.879.694c-11.915 9.437-29.548 11.238-37.004 3.782a15.913 15.913 0 01-1.377-1.576c11.99-2.73 26.607-9.79 41.619-26.006l-4.301-3.982c-14.678 15.858-28.79 22.339-40.06 24.61a20.948 20.948 0 01-.695-8.441 30.176 30.176 0 018.953-17.754c6.038-6.04 14.985-9.835 27.346-11.598a45.34 45.34 0 0023.73-12.741c9.95 31.649-9.72 47.053-17.332 53.012z"/><path d="M68.937 46.613l4.48 3.776c1.25-1.486 2.501-3.04 3.755-4.66l-4.64-3.578a135.947 135.947 0 01-3.595 4.462z"/></g><defs><clipPath id="kclip0"><path fill="#fff" transform="translate(.793 .327)" d="M0 0h92.75v92.75H0z"/></clipPath></defs></svg><svg fill="none" viewBox="0 0 149 149" id="microscope" xmlns="http://www.w3.org/2000/svg"><g clip-path="url(#lclip0)"><path d="M139.089 100.881c14.664-35.771-2.447-76.657-38.218-91.32C65.1-5.103 24.214 12.008 9.551 47.779c-14.664 35.772 2.447 76.657 38.218 91.32 35.771 14.664 76.657-2.447 91.32-38.218z" stroke="#1F4C45" stroke-width="7.989" stroke-miterlimit="22.93"/><path d="M104.585 99.185a30.053 30.053 0 002.79-26.147A30.064 30.064 0 0088.528 54.7a11.422 11.422 0 00-7.62-5.222l1.762-3.54a1.893 1.893 0 00-.849-2.547l1.632-3.394a1.892 1.892 0 002.546-.848l3.981-7.98a1.861 1.861 0 00-.848-2.53l-11.423-5.694a1.91 1.91 0 00-2.546.848l-3.998 7.98a1.91 1.91 0 00.849 2.545l-1.632 3.395a1.861 1.861 0 00-2.53.848L52.498 69.273a1.91 1.91 0 00.849 2.546l11.423 5.679c.26.14.552.213.848.212a1.91 1.91 0 001.632-1.06l3.867-7.703a11.21 11.21 0 0014.36.881 15.11 15.11 0 01-6.641 28.72h-15.16v-3.786h5.679a1.893 1.893 0 000-3.785H42.837a1.893 1.893 0 000 3.785h5.695v3.786a7.587 7.587 0 00-7.588 7.588v5.679a1.892 1.892 0 001.893 1.893h64.424a1.895 1.895 0 001.893-1.893v-5.679a7.586 7.586 0 00-4.569-6.951zM67.461 60.657a10.982 10.982 0 001.142 4.896L64.72 73.32l-7.98-4.047L70.398 41.94a1.876 1.876 0 002.546-.848l3.394-6.773a1.894 1.894 0 00-.865-2.545l2.301-4.586 7.98 3.982-2.285 4.602a1.892 1.892 0 00-2.545.848l-3.378 6.772a1.891 1.891 0 00.832 2.546l-1.779 3.574a11.422 11.422 0 00-9.138 11.145zm11.423 7.572a7.587 7.587 0 112.865-.568 7.588 7.588 0 01-2.914.568h.049zm18.945 15.16a18.848 18.848 0 00-9.562-16.4 11.292 11.292 0 001.893-6.332c-.018-.421-.061-.84-.13-1.256a26.321 26.321 0 0110.427 39.163H90.16a18.896 18.896 0 007.62-15.175h.05zM52.35 94.81h7.588v3.786h-7.637l.05-3.786zm53.067 15.16H44.73v-3.835a3.804 3.804 0 013.786-3.802h53.067a3.815 3.815 0 013.802 3.802l.032 3.835z" fill="#1F4C45"/></g><defs><clipPath id="lclip0"><path fill="#fff" d="M0 0h149v149H0z"/></clipPath></defs></svg><svg fill="none" viewBox="0 0 97 98" id="neroli" xmlns="http://www.w3.org/2000/svg"><g clip-path="url(#mclip0)" fill="#FF7070"><path d="M47.82 42.344h3.219v3.22H47.82v-3.22zM60.697 55.22h3.219v3.22h-3.22v-3.22zM34.943 55.22h3.22v3.22h-3.22v-3.22zM47.82 68.097h3.219v3.219H47.82v-3.219zM43.904 53.58a6.301 6.301 0 00-.684 1.64h-3.448v3.22h3.448c.15.576.38 1.128.684 1.64l-2.44 2.441 2.276 2.277 2.44-2.442a6.29 6.29 0 001.64.684v3.448h3.22V63.04a6.3 6.3 0 001.64-.684l2.44 2.442 2.276-2.277-2.44-2.441a6.305 6.305 0 00.683-1.64h3.448v-3.22h-3.448a6.313 6.313 0 00-.684-1.64l2.44-2.442-2.276-2.275-2.44 2.441a6.293 6.293 0 00-1.64-.684v-3.448H47.82v3.448c-.577.15-1.129.38-1.64.684l-2.44-2.441-2.276 2.275 2.44 2.442zm5.526.03a3.22 3.22 0 110 6.439 3.22 3.22 0 010-6.438zM38.046 47.723l2.277-2.276 2.276 2.276L40.323 50l-2.277-2.276zM56.257 47.725l2.277-2.276 2.276 2.276-2.276 2.277-2.277-2.277zM38.048 65.935l2.276-2.276 2.277 2.276-2.277 2.276-2.276-2.276zM56.259 65.936l2.276-2.276 2.277 2.276-2.277 2.276-2.276-2.276z"/><path d="M14.948 32.257h.128a12.194 12.194 0 007.26-2.557l6.958 2.78 7.26 5.811v.074c0 .631 0 1.254.023 1.862-5.246-2.54-12.51-4.192-21.606-4.914a8.048 8.048 0 00-6.76 13.268c6.131 7.17 11.925 12.17 17.208 14.858.966.492 1.906.937 2.828 1.336-.78.61-1.562 1.267-2.358 1.975-4.428 3.939-8.763 10.24-12.877 18.73a8.072 8.072 0 007.173 11.59 8.253 8.253 0 002.716-.467C31.813 93.5 38.576 89.93 43.008 85.99a38.447 38.447 0 006.156-6.712 38.45 38.45 0 006.157 6.712c4.432 3.942 11.196 7.512 20.105 10.612a8.048 8.048 0 009.9-11.122c-4.121-8.49-8.456-14.791-12.878-18.73a48.927 48.927 0 00-2.5-2.092 45.384 45.384 0 005.423-3.588c4.721-3.581 9.532-9.529 14.301-17.673a7.933 7.933 0 00-.532-8.943 8.175 8.175 0 00-2-1.863l.36-.662a55.953 55.953 0 008.609-29.826c0-.888-.72-1.61-1.61-1.61H89.67a56.194 56.194 0 00-35.27 12.51 8.056 8.056 0 00-12.293 3.303 70.096 70.096 0 00-5.27 18.086L31.725 30.3v-4.196c4.808-.794 8.048-5.138 8.048-11.124 0-6.852-3.966-14.486-9.657-14.486-4.486 0-7.956 4.888-9.175 10.332a26.223 26.223 0 00-7.55-4.586c-4.356-1.675-8.047-1.492-10.376.52C.686 8.773-.06 12.406.908 17.004A25.264 25.264 0 006.193 27.84c2.13 2.685 5.33 4.3 8.755 4.418zm69.762-1.948l-.587 1.08a8.145 8.145 0 00-3.466.161 68.013 68.013 0 00-18.35 7.291V38.5c.032-5.934-1.759-13.375-5.322-22.115a8.71 8.71 0 00-.469-.95A52.952 52.952 0 0188.946 3.73l-.206.13a69.104 69.104 0 00-21.36 21.535l2.737 1.706A65.856 65.856 0 0190.475 6.577L92.78 5.11a52.877 52.877 0 01-8.071 25.199zM39.963 42.841a46.204 46.204 0 01-.182-4.459c.029-5.43 1.863-12.633 5.302-20.83a4.765 4.765 0 014.457-2.964h.023a4.766 4.766 0 014.45 3.012c3.346 8.23 5.104 15.45 5.075 20.88 0 1.094-.051 2.179-.145 3.415 0 .627.37 1.195.943 1.449.61.275 1.324.189 1.851-.224 4.319-3.28 11.145-6.209 19.74-8.47a4.828 4.828 0 015.405 7.12c-4.49 7.669-9.147 13.455-13.469 16.739a35.792 35.792 0 01-7.204 4.408 1.61 1.61 0 00-.267 2.81 42.826 42.826 0 014.357 3.426c4.054 3.606 8.249 9.738 12.128 17.73a4.83 4.83 0 01-5.94 6.68c-8.39-2.919-14.968-6.37-19.024-9.98a29.736 29.736 0 01-6.862-8.157 1.677 1.677 0 00-2.872 0 29.727 29.727 0 01-6.861 8.157c-4.055 3.607-10.634 7.056-19.026 9.98a4.829 4.829 0 01-5.94-6.68c3.88-7.992 8.074-14.124 12.128-17.73a42.924 42.924 0 014.43-3.47 1.61 1.61 0 00-.37-2.85 42.673 42.673 0 01-5.21-2.255c-4.828-2.462-10.443-7.331-16.221-14.082a4.83 4.83 0 014.058-7.965c8.852.702 16.095 2.374 20.924 4.828a55.01 55.01 0 011.916 1.032 1.61 1.61 0 002.391-1.55h.015zM15.076 29.037h-.09a7.25 7.25 0 01-1.888-.275l1.67-2.784a6.105 6.105 0 015.207-2.949h3.508a7.5 7.5 0 01-2.47 3.61 9.213 9.213 0 01-5.937 2.398zm13.43-2.926v2.587l-3.644-1.449c.47-.606.872-1.262 1.197-1.957.773.39 1.596.665 2.447.82zm1.61-3.082a6.003 6.003 0 01-2.276-.438l.947-.903a3.19 3.19 0 013.62-.542l1.382.69a5.895 5.895 0 01-3.673 1.193zm0-19.315c3.188 0 6.438 5.686 6.438 11.267a10.696 10.696 0 01-.792 4.243l-1.917-.958a6.418 6.418 0 00-7.203 1.03 14.235 14.235 0 00-2.897-5.566c.431-5.226 3.427-10.016 6.371-10.016zM5.122 9.198a4.245 4.245 0 012.838-.874c1.47.048 2.921.36 4.281.922a22.793 22.793 0 018.567 5.967 11.949 11.949 0 012.645 4.597h-3.478a9.334 9.334 0 00-7.967 4.507l-1.77 2.955a11.573 11.573 0 01-1.61-1.544 22.213 22.213 0 01-4.57-9.393c-.706-3.34-.319-5.945 1.064-7.137z"/></g><defs><clipPath id="mclip0"><path fill="#fff" transform="translate(0 .495)" d="M0 0h96.583v96.583H0z"/></clipPath></defs></svg><svg fill="none" viewBox="0 0 148 148" id="payment" xmlns="http://www.w3.org/2000/svg"><path d="M73.894 143.894c38.66 0 70-31.34 70-70s-31.34-70-70-70-70 31.34-70 70 31.34 70 70 70z" stroke="#1F4C45" stroke-width="7.788" stroke-miterlimit="22.93"/><path d="M115.831 57.324L88.719 30.195a4.673 4.673 0 00-6.49 0L51.92 60.39h-9.264a4.64 4.64 0 00-4.624 4.64v38.341a4.64 4.64 0 004.624 4.64h57.534a4.644 4.644 0 004.641-4.64V74.879l11-11a4.62 4.62 0 000-6.49v-.065zM84.371 32.45a1.622 1.622 0 012.19 0l3.456 3.455L65.42 60.39h-9.086L84.37 32.45zm17.361 70.92a1.616 1.616 0 01-.475 1.147 1.63 1.63 0 01-1.148.475H42.656a1.624 1.624 0 01-1.541-1.622v-38.34a1.623 1.623 0 011.54-1.623h57.535a1.624 1.624 0 011.623 1.623l-.081 38.34zm11.844-41.715l-8.81 8.826v-5.451a4.642 4.642 0 00-4.641-4.64h-19l16.729-16.68 15.722 15.787a1.526 1.526 0 010 2.158z" fill="#1F4C45" stroke="#1F4C45" stroke-width="1.46" stroke-miterlimit="22.93"/><path d="M50.66 80.493a5.565 5.565 0 100-11.13 5.565 5.565 0 000 11.13zM46.052 91.007h6.49a1.623 1.623 0 100-3.099h-6.49a1.623 1.623 0 000 3.099zM66.642 96.572h-20.59a1.623 1.623 0 000 3.1h20.59a1.622 1.622 0 000-3.1zM94.858 96.572h-6.49a1.622 1.622 0 000 3.1h6.49a1.622 1.622 0 000-3.1zM66.642 87.908h-6.49a1.622 1.622 0 000 3.1h6.49a1.622 1.622 0 000-3.1zM80.758 87.908h-6.49a1.623 1.623 0 100 3.099h6.49a1.622 1.622 0 000-3.099zM94.858 87.908h-6.49a1.622 1.622 0 000 3.1h6.49a1.622 1.622 0 000-3.1zM81.246 72.445v4.95a3.1 3.1 0 003.099 3.098h2.158v-11.13h-2.158a3.099 3.099 0 00-3.1 3.082zM94.858 77.394v-4.949a3.083 3.083 0 00-3.083-3.082h-2.174v11.13h2.174a3.081 3.081 0 003.083-3.099z" fill="#1F4C45" stroke="#1F4C45" stroke-width="1.46" stroke-miterlimit="22.93"/></svg><svg fill="none" viewBox="0 0 87 87" id="pion" xmlns="http://www.w3.org/2000/svg"><g clip-path="url(#oclip0)" fill="#FF7070"><path d="M78.686 29.017a17.497 17.497 0 00-4.753-15.97A17.382 17.382 0 0061.56 7.923c-1.212 0-2.417.124-3.597.372A17.496 17.496 0 0043.309.363a17.497 17.497 0 00-14.655 7.932 17.559 17.559 0 00-3.597-.372c-4.673 0-9.067 1.82-12.372 5.124a17.498 17.498 0 00-4.754 15.97A17.498 17.498 0 000 43.672a17.498 17.498 0 007.931 14.654 17.499 17.499 0 004.754 15.97 17.383 17.383 0 0012.372 5.125c1.212 0 2.417-.125 3.598-.372a17.496 17.496 0 0014.654 7.931 17.497 17.497 0 0014.654-7.932c1.18.247 2.386.372 3.597.372h.001c4.673 0 9.067-1.82 12.372-5.125a17.499 17.499 0 004.753-15.97 17.496 17.496 0 007.932-14.654 17.499 17.499 0 00-7.932-14.654zM75.748 55.88l-1.282.697.413 1.399a13.893 13.893 0 01-3.498 13.767 13.796 13.796 0 01-9.82 4.068c-1.34 0-2.668-.192-3.947-.57l-1.4-.412-.696 1.28a13.894 13.894 0 01-24.418.001l-.697-1.281-1.399.413a13.93 13.93 0 01-3.946.57c-3.71 0-7.198-1.445-9.821-4.068a13.893 13.893 0 01-3.498-13.768l.412-1.398-1.28-.698a13.893 13.893 0 010-24.417l1.28-.697-.412-1.399A13.892 13.892 0 0115.236 15.6a13.797 13.797 0 019.82-4.068c1.34 0 2.667.192 3.947.57l1.399.412.697-1.28a13.893 13.893 0 0124.417-.001l.697 1.28 1.4-.412a13.93 13.93 0 013.946-.57c3.71 0 7.198 1.445 9.82 4.068a13.893 13.893 0 013.499 13.767l-.413 1.4 1.281.697a13.894 13.894 0 010 24.417z"/><path d="M71.085 32.166a12.489 12.489 0 00-8.852-7.419 12.488 12.488 0 00-7.419-8.851 12.417 12.417 0 00-4.775-.954c-2.384 0-4.728.692-6.73 1.968a12.55 12.55 0 00-6.73-1.968c-1.641 0-3.248.32-4.775.954a12.487 12.487 0 00-7.42 8.852 12.487 12.487 0 00-8.85 7.418 12.488 12.488 0 001.012 11.506 12.487 12.487 0 00-1.013 11.504 12.489 12.489 0 008.852 7.42 12.488 12.488 0 007.42 8.851 12.42 12.42 0 004.774.954c2.384 0 4.728-.692 6.73-1.968a12.556 12.556 0 006.73 1.968c1.641 0 3.248-.321 4.775-.954a12.488 12.488 0 007.42-8.852 12.488 12.488 0 008.851-7.419 12.489 12.489 0 00-1.013-11.505 12.488 12.488 0 001.013-11.505zm-4.637 12.64a8.885 8.885 0 01-5.975 14.425l-1.45.154-.154 1.45a8.885 8.885 0 01-5.436 7.278 8.824 8.824 0 01-3.394.679 8.933 8.933 0 01-5.596-1.981l-1.134-.917-1.134.917a8.93 8.93 0 01-5.596 1.98 8.825 8.825 0 01-3.394-.678 8.883 8.883 0 01-5.436-7.278l-.153-1.45-1.45-.154a8.884 8.884 0 01-5.976-14.425l.917-1.135-.917-1.134a8.884 8.884 0 015.975-14.425l1.45-.154.154-1.45a8.883 8.883 0 015.436-7.278 8.825 8.825 0 013.394-.679c2.027 0 4.014.704 5.595 1.981l1.134.917 1.135-.917a8.933 8.933 0 015.596-1.981c1.164 0 2.306.228 3.394.679a8.884 8.884 0 015.435 7.277l.154 1.45 1.45.155a8.884 8.884 0 015.976 14.425l-.917 1.134.917 1.135z"/><path d="M57.636 37.737a7.612 7.612 0 00-2.187-6.206 7.565 7.565 0 00-5.383-2.23c-.276 0-.55.015-.823.044a7.612 7.612 0 00-5.934-2.843 7.612 7.612 0 00-5.935 2.843 7.632 7.632 0 00-.822-.044 7.564 7.564 0 00-5.384 2.23 7.612 7.612 0 00-2.186 6.206 7.612 7.612 0 00-2.843 5.934 7.612 7.612 0 002.843 5.935 7.612 7.612 0 002.186 6.206 7.564 7.564 0 005.384 2.23c.275 0 .55-.014.822-.044a7.613 7.613 0 005.935 2.843 7.613 7.613 0 005.935-2.843c.272.03.546.044.822.044a7.563 7.563 0 005.383-2.23 7.611 7.611 0 002.187-6.206 7.613 7.613 0 000-11.869zm-2.862 9.456l-1.28.697.412 1.399a4.007 4.007 0 01-4.98 4.98l-1.398-.413-.697 1.28a4.008 4.008 0 01-7.044.001l-.697-1.281-1.399.413c-.369.109-.752.164-1.139.164a4.007 4.007 0 01-3.84-5.144l.412-1.399-1.28-.697a4.008 4.008 0 010-7.043l1.28-.697-.413-1.4a4.007 4.007 0 014.98-4.979l1.4.413.696-1.281a4.007 4.007 0 017.043 0l.697 1.28 1.399-.412c.37-.109.753-.164 1.14-.164a4.008 4.008 0 013.84 5.144l-.413 1.399 1.282.697a4.008 4.008 0 010 7.043z"/><path d="M51.03 40.473a4.28 4.28 0 00-2.24-2.284 4.28 4.28 0 00-5.481-2.27 4.258 4.258 0 00-3.198.031 4.28 4.28 0 00-2.284 2.24 4.28 4.28 0 00-2.27 5.482 4.28 4.28 0 002.27 5.482 4.28 4.28 0 005.482 2.27 4.256 4.256 0 003.198-.031 4.28 4.28 0 002.284-2.239 4.28 4.28 0 002.271-5.482 4.281 4.281 0 00-.033-3.199zm-3.434 4.333a.675.675 0 01-.454 1.094l-1.45.154-.154 1.45a.676.676 0 01-1.095.454l-1.134-.917-1.135.917a.675.675 0 01-1.095-.453l-.153-1.45-1.45-.155a.676.676 0 01-.454-1.095l.917-1.134-.917-1.134a.675.675 0 01.453-1.095l1.451-.154.154-1.45a.676.676 0 011.095-.454l1.134.917 1.134-.917a.676.676 0 011.095.453l.154 1.451 1.45.154a.676.676 0 01.454 1.094l-.917 1.135.917 1.135z"/></g><defs><clipPath id="oclip0"><path fill="#fff" transform="translate(0 .363)" d="M0 0h86.618v86.618H0z"/></clipPath></defs></svg><svg fill="none" viewBox="0 0 148 148" id="questionary" xmlns="http://www.w3.org/2000/svg"><path d="M73.947 143.947c38.66 0 70-31.34 70-70s-31.34-70-70-70-70 31.34-70 70 31.34 70 70 70z" stroke="#1F4C45" stroke-width="7.894" stroke-miterlimit="22.93"/><path d="M77.047 109.437a1.632 1.632 0 01-1.044-.375 1.637 1.637 0 01-.555-1.469l1.142-8.387a1.73 1.73 0 01.359-.832l23.741-28.18a4.606 4.606 0 014.956-1.385 4.597 4.597 0 011.571.896l2.284 1.91a4.602 4.602 0 01.588 6.526l-2.856 3.426a1.63 1.63 0 01-2.496-2.072l2.872-3.426a1.32 1.32 0 00.293-.979 1.384 1.384 0 00-.489-.947l-2.317-1.99a1.387 1.387 0 00-1.926.097l-23.43 27.854-.735 5.384 5.123-1.631 17.623-20.903a1.63 1.63 0 012.284-.195 1.631 1.631 0 01.196 2.284l-17.949 21.212c-.195.228-.449.397-.734.49l-7.995 2.61a1.81 1.81 0 01-.506.082z" fill="#1F4C45"/><path d="M105.944 82.073c-.389 0-.765-.139-1.061-.392l-6.853-5.809a1.633 1.633 0 112.089-2.415l6.869 5.826a1.63 1.63 0 01.18 2.284 1.644 1.644 0 01-1.224.506zM85.352 106.565a1.635 1.635 0 01-1.06-.376l-6.854-5.808a1.636 1.636 0 01-.735-1.84 1.633 1.633 0 012.824-.608l6.87 5.809a1.63 1.63 0 01.195 2.284 1.636 1.636 0 01-1.24.539zM58.462 59.947a10.394 10.394 0 010-20.788 10.54 10.54 0 013.704.686 1.632 1.632 0 01-1.11 3.035 7.163 7.163 0 104.553 6.673 1.632 1.632 0 013.263 0v.098a10.41 10.41 0 01-10.41 10.296z" fill="#1F4C45"/><path d="M58.364 53.371a1.63 1.63 0 01-1.19-.522l-2.758-2.953a1.632 1.632 0 012.366-2.203l1.631 1.632 6.152-6.527a1.667 1.667 0 112.366 2.35l-7.343 7.718a1.632 1.632 0 01-1.224.505zM58.461 84.651a10.345 10.345 0 110-20.69c1.26-.04 2.515.154 3.704.571a1.633 1.633 0 11-1.11 3.035 7.39 7.39 0 00-2.594-.375 7.114 7.114 0 000 14.212 7.163 7.163 0 007.147-7.147 1.632 1.632 0 013.263 0v.098a10.41 10.41 0 01-10.41 10.296z" fill="#1F4C45"/><path d="M58.364 78.059a1.63 1.63 0 01-1.175-.49l-2.758-2.855a1.63 1.63 0 112.334-2.252l1.632 1.632 6.167-6.413a1.633 1.633 0 112.366 2.252l-7.342 7.636a1.632 1.632 0 01-1.175.49h-.05zM58.462 109.436a10.395 10.395 0 110-20.787c1.264.007 2.517.234 3.704.669a1.631 1.631 0 01-1.11 3.05 7.164 7.164 0 104.553 6.675 1.632 1.632 0 011.631-1.632 1.632 1.632 0 011.632 1.517v.196a10.41 10.41 0 01-10.41 10.312z" fill="#1F4C45"/><path d="M58.365 102.828a1.62 1.62 0 01-1.224-.49l-2.758-2.953a1.631 1.631 0 012.366-2.22l1.632 1.633 6.151-6.527a1.696 1.696 0 012.399 2.398l-7.343 7.735a1.638 1.638 0 01-1.223.424z" fill="#1F4C45"/><path d="M98.977 116.306H49.504a8.6 8.6 0 01-8.583-8.583v-66.9a8.599 8.599 0 018.583-8.582h49.473a8.597 8.597 0 018.583 8.583v23.823a1.632 1.632 0 01-3.263 0V40.824a5.353 5.353 0 00-5.336-5.352H49.504a5.354 5.354 0 00-5.417 5.352v66.899a5.351 5.351 0 005.352 5.336h49.538a5.351 5.351 0 005.336-5.336V89.775a1.632 1.632 0 013.263 0v17.948a8.598 8.598 0 01-8.599 8.583z" fill="#1F4C45"/><path d="M98.7 47.742H74.86a1.632 1.632 0 010-3.263H98.7a1.632 1.632 0 010 3.263zM86.772 54.611H74.861a1.632 1.632 0 010-3.263h11.911a1.632 1.632 0 010 3.264zM94.882 72.528H74.86a1.632 1.632 0 010-3.264h20.02a1.632 1.632 0 010 3.264zM86.772 79.299H74.861a1.632 1.632 0 010-3.263h11.911a1.632 1.632 0 010 3.263z" fill="#1F4C45"/></svg><svg fill="none" viewBox="0 0 96 96" id="raspberry" xmlns="http://www.w3.org/2000/svg"><g clip-path="url(#qclip0)" fill="#FF7070"><path d="M95.087 47.228a1.856 1.856 0 00-2.27-.103c-1.48 1.041-5.986 4.21-15.572-5.376a14.353 14.353 0 00-3.493-2.581c4.025-5.871 6.182-13.01 6.253-20.755a1.857 1.857 0 00-1.77-1.872c-7.97-.373-15.135 1.823-20.844 6.361a14.317 14.317 0 00-2.682-3.69 1.857 1.857 0 00-2.626 2.626c6.656 6.655.942 17.5-.616 20.145a10.992 10.992 0 00-3.052-1.395c3.161-3.866 3.537-9.714.542-14.423a1.856 1.856 0 10-3.133 1.993c1.743 2.74 1.898 6.004.682 8.554a11.136 11.136 0 00-4.68-6.616 11.166 11.166 0 00-2.682-11.41 11.1 11.1 0 00-2.395-1.818c.883-3.114 3.409-6.947 7.573-10.035-.072.934-.018 1.893.163 2.873a1.856 1.856 0 003.651-.673c-.363-1.968.028-3.733 1.196-5.394A1.856 1.856 0 0047.008.9c-7.695 3.708-12.245 9.72-13.757 14.71-3.466-.62-7.172.403-9.846 3.077-3.189 3.189-4.031 7.847-2.533 11.815a11.129 11.129 0 00-6.275 3.136 11.056 11.056 0 00-3.26 7.87c0 1.662.363 3.269 1.05 4.73a11.134 11.134 0 00-5.064 2.892A11.056 11.056 0 004.063 57c0 1.78.418 3.494 1.202 5.035-.464.339-.903.712-1.312 1.121a11.054 11.054 0 00-3.26 7.87c0 2.972 1.157 5.767 3.26 7.87.09.09.185.177.278.265-.476 3.429.678 6.951 3.148 9.422a11.19 11.19 0 009.422 3.147c.087.094.174.188.265.28a11.095 11.095 0 007.87 3.254 11.095 11.095 0 008.993-4.57c1.577.798 3.304 1.2 5.033 1.2a11.096 11.096 0 0010.762-8.318 11.093 11.093 0 004.73 1.049c2.972 0 5.767-1.158 7.87-3.26a11.136 11.136 0 003.073-5.892 11.158 11.158 0 004.708 1.039c2.85 0 5.7-1.085 7.87-3.254 2.738-2.738 3.746-6.559 3.03-10.096 2.302-.716 4.683-2.03 6.878-3.82 3.136-2.559 5.79-5.979 7.675-9.89a1.857 1.857 0 00-.472-2.223zm-36.42-20.553c4.798-4.249 10.698-6.42 17.567-6.462-.367 6.707-2.421 12.632-6.11 17.647-2.844-.617-6.042-.458-9.513.495l-.121.034 4.547-4.547a1.857 1.857 0 00-2.626-2.625l-4.195 4.195c.814-3.166.96-6.1.452-8.737zm-13.3 17.202c1.981 0 3.844.772 5.245 2.172a7.368 7.368 0 012.172 5.245 7.368 7.368 0 01-2.172 5.244c-2.837 2.838-7.42 2.89-10.323.158l-.018-.017c-.05-.047-.1-.093-.148-.141-2.892-2.891-2.892-7.597 0-10.489a7.368 7.368 0 015.244-2.172zm-4.408-9.721a7.457 7.457 0 012.1 6.249 11.05 11.05 0 00-5.562 3.02c-1 1-1.767 2.146-2.306 3.37a7.44 7.44 0 01-4.72-2.151 7.477 7.477 0 01-1.06-1.336 7.366 7.366 0 01-1.113-3.908c0-1.981.772-3.844 2.173-5.244a7.368 7.368 0 015.244-2.173c1.98 0 3.843.772 5.244 2.173zm-9.163 40.497a7.41 7.41 0 01-2.434 1.623c-.88.36-1.83.55-2.81.55a7.364 7.364 0 01-5.39-2.326 7.363 7.363 0 01-2.027-5.091 7.407 7.407 0 01.589-2.903c.367-.864.9-1.658 1.584-2.342a7.367 7.367 0 011.935-1.394 11.114 11.114 0 006.126 1.831 11.2 11.2 0 002.204-.22c-.145.72-.22 1.46-.22 2.21 0 2.212.643 4.325 1.837 6.128a7.37 7.37 0 01-1.394 1.934zm-7.671-15.932a7.368 7.368 0 01-2.172-5.244 7.433 7.433 0 01.39-2.38 7.384 7.384 0 011.782-2.864 7.357 7.357 0 012.956-1.81 11.158 11.158 0 007.199 4.007 11.142 11.142 0 001.576 6.641 7.39 7.39 0 01-1.242 1.65c-2.892 2.892-7.597 2.892-10.49 0zm1.905-37.41c2.892-2.892 7.597-2.892 10.489 0a7.442 7.442 0 011.886 7.285 11.206 11.206 0 00-2.69-.326 11.056 11.056 0 00-7.87 3.26c-.328.328-.63.676-.912 1.036a7.423 7.423 0 01-.903-.766c-2.892-2.892-2.892-7.597 0-10.489zm-8.808 14.952a7.425 7.425 0 015.898-2.137c.094.1.187.201.285.3a11.136 11.136 0 001.758 1.43 11.148 11.148 0 00-.577 3.544c0 1.297.22 2.56.643 3.747a11.16 11.16 0 00-5.72 5.16 7.394 7.394 0 01-2.534-1.815l-.013-.014a7.363 7.363 0 01-1.912-4.97c0-1.982.771-3.845 2.172-5.245zM9.948 51.755a7.433 7.433 0 014.877-2.158 11.083 11.083 0 003.533 2.252 11.295 11.295 0 00-.118 1.628c0 2.424.77 4.728 2.193 6.636a11.153 11.153 0 00-3.751 4.146 7.39 7.39 0 01-7.348-2.715l-.034-.043a7.36 7.36 0 01-1.524-4.502c0-1.981.771-3.844 2.172-5.244zm.057 34.2a7.358 7.358 0 01-2.141-4.532 11.175 11.175 0 006.17.504 11.197 11.197 0 00.504 6.17 7.357 7.357 0 01-4.533-2.141zm7.062-9.686c-2.636 2.636-6.778 2.868-9.68.699l-.017-.013a7.459 7.459 0 01-.792-.686 7.367 7.367 0 01-2.173-5.244c0-1.981.772-3.844 2.173-5.245.28-.28.58-.535.899-.765a11.087 11.087 0 008.021 3.11c-.048.423-.075.851-.075 1.284 0 2.335.717 4.559 2.042 6.424-.128.15-.26.296-.398.436zM30.18 89.383c-2.891 2.892-7.596 2.892-10.488 0a7.432 7.432 0 01-.686-.792l-.013-.017c-2.17-2.902-1.937-7.044.699-9.68.14-.14.286-.27.435-.398a11.045 11.045 0 007.708 1.967 11.086 11.086 0 003.11 8.022 7.44 7.44 0 01-.765.898zm14.026-3.37c-2.663 2.662-6.862 2.87-9.768.63l-.012-.01a7.39 7.39 0 01-2.725-7.355 11.165 11.165 0 004.146-3.75 11.045 11.045 0 006.636 2.193c.55 0 1.094-.04 1.628-.118a11.085 11.085 0 002.253 3.533 7.43 7.43 0 01-2.158 4.876zm.645-12.391l-.09.03a7.433 7.433 0 01-2.278.356 7.368 7.368 0 01-5.244-2.172 7.369 7.369 0 01-2.172-5.245c0-1.98.771-3.843 2.172-5.244a7.404 7.404 0 011.466-1.14 11.107 11.107 0 007.523 2.175 11.104 11.104 0 003.164 6.434c.041.041.084.08.126.12a7.373 7.373 0 01-1.79 2.9 7.384 7.384 0 01-2.877 1.786zm14.847 5.116a7.368 7.368 0 01-5.245 2.173 7.368 7.368 0 01-5.244-2.173 7.392 7.392 0 01-1.555-2.287 11.16 11.16 0 002.699-1.99 11.09 11.09 0 002.315-3.38 11.162 11.162 0 008.135.412c.309.47.653.918 1.031 1.339a7.434 7.434 0 01-2.136 5.906zm-6.93-11.894c-.002 0-.002-.001-.003-.002a7.4 7.4 0 01-2.898-5.372 11.068 11.068 0 003.37-2.306 11.052 11.052 0 003.02-5.564 7.41 7.41 0 016.249 2.102 7.366 7.366 0 012.172 5.244 7.368 7.368 0 01-2.173 5.244c-2.653 2.654-6.833 2.87-9.738.654zM75.35 70.63c-2.876 2.876-7.545 2.89-10.44.046l-.002-.001c-.016-.017-.034-.033-.052-.05-.28-.28-.533-.58-.762-.898a11.056 11.056 0 004.297-8.782c0-.92-.112-1.822-.327-2.692a7.4 7.4 0 017.286 1.888c2.891 2.892 2.891 7.597 0 10.489zm4.317-10.94a11.112 11.112 0 00-1.692-2.174 11.104 11.104 0 00-11.41-2.683 11.221 11.221 0 00-1.434-1.758 11.12 11.12 0 00-7.438-3.251 8.93 8.93 0 014.618-1.184c2.191.052 4.156.943 5.532 2.508a1.853 1.853 0 002.62.168c.77-.677.846-1.85.168-2.62-2.069-2.352-4.992-3.69-8.23-3.768-2.41-.058-4.777.59-6.858 1.85a11.027 11.027 0 00-1.022-1.816c2.723-1.595 13.481-7.206 20.098-.589 5.516 5.516 10.543 8.113 15.014 7.768-3.05 4.145-6.81 6.648-9.966 7.549z"/><path d="M50.215 13.826l-.03-.046a1.856 1.856 0 10-3.122 2.008l.04.06a1.855 1.855 0 002.567.546 1.856 1.856 0 00.545-2.568zM69.707 26.545a1.87 1.87 0 00-1.312-.544 1.87 1.87 0 00-1.313.544 1.87 1.87 0 00-.543 1.313c0 .488.198.967.543 1.312a1.87 1.87 0 001.313.544 1.87 1.87 0 001.313-.544 1.87 1.87 0 00.543-1.312 1.87 1.87 0 00-.544-1.313z"/></g><defs><clipPath id="qclip0"><path fill="#fff" transform="translate(.692 .464)" d="M0 0h95.05v95.05H0z"/></clipPath></defs></svg><svg fill="none" viewBox="0 0 174 174" id="rose" xmlns="http://www.w3.org/2000/svg"><g clip-path="url(#rclip0)"><path d="M106.275 103.004c-.361-.278-9.045-6.4-18.606-4.272-1.718.382-3.313 1.077-4.844 1.928l8.508-13.376c8.512 5.413 19.844 2.893 25.257-5.619l12.286-19.315a5.263 5.263 0 013.275-2.296l4.045-.9a2.612 2.612 0 002.033-2.283c.114-1.116-.489-2.199-1.523-2.65l-6.877-3.11 1.989-3.127a2.612 2.612 0 00-.802-3.609c-4.175-2.655-8.686-4.553-13.107-5.582-2.464-3.309-5.455-6.224-8.947-8.445a2.613 2.613 0 00-3.609.803l-1.989 3.127-5.731-4.91a2.601 2.601 0 00-3.047-.256 2.613 2.613 0 00-1.206 2.809l.9 4.045a5.265 5.265 0 01-.691 3.94L81.304 59.221c-5.414 8.511-2.893 19.843 5.618 25.257l-35.07 55.135a2.613 2.613 0 104.412 2.806l18.265-28.715c.506.362 1.01.705 1.517 1.028 5.391 3.429 10.747 4.582 15.944 3.426 9.559-2.125 14.822-11.364 15.041-11.757a2.61 2.61 0 00-.756-3.397zm19.684-55.55l-1.008 1.586c-.641-.241-1.278-.494-1.935-.692l-.499-1.322c-.195-.516-.486-.987-.706-1.492 1.394.566 2.788 1.172 4.148 1.92zm-1.272 7.072l3.43 1.55a10.5 10.5 0 00-3.652 3.469l-12.286 19.314c5.154-8.102 6.203-17.796 3.714-26.559 3.107.252 6.057.985 8.794 2.226zm-16.391-18.261c3.693 2.858 6.607 6.642 8.544 10.893a34.575 34.575 0 00-2.96-.142c-1.619-3.363-3.836-6.444-6.608-9.142l1.024-1.61zM89.728 80.067c-6.08-3.867-7.88-11.96-4.013-18.04L98 42.71a10.498 10.498 0 001.594-4.779l2.858 2.45c10.334 8.855 12.619 24.19 5.316 35.672-3.867 6.08-11.96 7.88-18.04 4.013zm1.127 32.988c-3.583.798-7.383.018-11.327-2.319 2.575-3.777 5.675-6.091 9.244-6.895 4.81-1.082 9.57.75 12.25 2.12-1.83 2.369-5.336 6.02-10.167 7.094z" fill="#FF7D7D" fill-opacity=".94"/></g><defs><clipPath id="rclip0"><path fill="#fff" transform="rotate(32.459 33.665 115.66)" d="M0 0h125.459v125.459H0z"/></clipPath></defs></svg><svg fill="none" viewBox="0 0 148 148" id="support" xmlns="http://www.w3.org/2000/svg"><path fill-rule="evenodd" clip-rule="evenodd" d="M74.335 105.467c7.401-5.805 33.945-27.48 34.405-39.47v-2.056a16.754 16.754 0 00-5.476-12.285 17.32 17.32 0 00-10.69-4.193h-1.349c-7.96.345-13.567 6.15-14.538 7.154l-.082.098a3.158 3.158 0 01-4.457.082l-.164-.164c-.872-.905-6.579-6.825-14.555-7.17H56.08a17.235 17.235 0 00-10.673 4.193 16.759 16.759 0 00-5.476 12.285v2.056c.46 12.072 27.02 33.747 34.42 39.47h-.016zm40.688-39.322c-.625 16.676-37.217 44.618-38.747 45.769a3.14 3.14 0 01-3.848 0c-.066-.082-38.155-28.764-38.796-45.769V63.58a22.892 22.892 0 017.598-16.742 23.78 23.78 0 0114.686-5.724h1.842a28.22 28.22 0 0116.61 7.04 27.958 27.958 0 0116.594-7.04h1.842a23.734 23.734 0 0114.621 5.757 22.905 22.905 0 017.598 16.741c.065.8.065 1.645 0 2.533z" fill="#1F4C45"/><path fill-rule="evenodd" clip-rule="evenodd" d="M49.338 60.681a1.646 1.646 0 01-3.092.642c0-.33-.115-.658-.148-.97-.033-.313 0-.691 0-.988a9.736 9.736 0 019.703-9.719 8.7 8.7 0 011.267.099c.422.045.84.128 1.25.246a1.643 1.643 0 11-.757 3.043 5.78 5.78 0 00-.839-.165 4.825 4.825 0 00-.872 0 6.578 6.578 0 00-4.637 1.925 6.578 6.578 0 00-1.875 4.572v1.315z" fill="#1F4C45"/><path d="M73.946 143.947c38.66 0 70-31.34 70-70s-31.34-70-70-70-70 31.34-70 70 31.34 70 70 70z" stroke="#1F4C45" stroke-width="7.894" stroke-miterlimit="22.93"/></svg><svg fill="none" viewBox="0 0 83 83" id="yogurt" xmlns="http://www.w3.org/2000/svg"><g clip-path="url(#tclip0)"><path d="M69.744 15.968h-.542l.356-.356a8.78 8.78 0 002.589-6.25c0-2.36-.92-4.579-2.588-6.248a8.78 8.78 0 00-6.25-2.588c-2.36 0-4.58.92-6.248 2.588L44.207 15.968H13.12c-4.163 0-7.55 3.388-7.55 7.55 0 4.164 3.387 7.551 7.55 7.551h.288l2.138 42.766c.24 4.802 4.347 8.71 9.156 8.71h33.46c4.808 0 8.915-3.908 9.155-8.71l2.138-42.766h.288c4.163 0 7.55-3.387 7.55-7.55s-3.387-7.55-7.55-7.55zm-9.285-9.456a4.006 4.006 0 012.85-1.18c1.078 0 2.09.419 2.852 1.18a4.005 4.005 0 011.18 2.851c0 1.077-.42 2.09-1.18 2.851l-3.755 3.754H51.003l9.456-9.456zm2.495 58.358H19.911l-.667-13.333a36.252 36.252 0 0122.188-7.599 36.252 36.252 0 0122.189 7.599l-.667 13.333zm-4.792 12.869H24.703c-2.249 0-4.244-1.898-4.356-4.144l-.196-3.92h42.563l-.196 3.92c-.112 2.246-2.107 4.144-4.356 4.144zm5.744-31.9a41.086 41.086 0 00-22.474-6.707A41.086 41.086 0 0018.96 45.84l-.738-14.77h46.423l-.738 14.77zm5.838-19.575H13.12a2.748 2.748 0 01-2.744-2.745 2.748 2.748 0 012.744-2.745h56.623a2.748 2.748 0 012.745 2.745 2.748 2.748 0 01-2.745 2.745z" fill="#FF7070"/></g><defs><clipPath id="tclip0"><path fill="#fff" transform="translate(.423 .526)" d="M0 0h82.019v82.019H0z"/></clipPath></defs></svg></svg>