<svg width="131" height="126" fill="none" xmlns="http://www.w3.org/2000/svg"><path d="M65.425 0C29.513 0 .401 25.73.401 57.474c0 16.096 7.506 30.627 19.565 41.063C17.322 113.831.259 120.03 1.431 124.241c14.414 5.97 43.287-7.174 50.337-10.583a73.513 73.513 0 0013.657 1.295c35.913 0 65.029-25.729 65.029-57.479S101.338 0 65.425 0zm-4.608 59.867c0 15.629-6.908 24.398-20.52 26.06-.03.005-.05.005-.08.005a.624.624 0 01-.417-.158.633.633 0 01-.218-.477v-7.942c0-.233.127-.447.325-.553 6.207-3.39 9.308-8.724 9.465-16.295h-9.156a.638.638 0 01-.634-.635V39.89c0-.35.29-.635.634-.635h19.966c.346 0 .635.285.635.636v19.977zm35.349 0c0 15.39-6.116 23.184-20.469 26.055-.04.005-.08.01-.121.01a.658.658 0 01-.406-.142.632.632 0 01-.229-.493v-7.942c0-.233.127-.447.325-.553 6.207-3.39 9.308-8.724 9.465-16.295h-9.155a.638.638 0 01-.635-.635V39.89c0-.35.29-.635.635-.635h19.956c.355 0 .634.285.634.636v19.977z" fill="#fff"/></svg>