<svg width="16" height="8" viewBox="0 0 16 8" fill="none" xmlns="http://www.w3.org/2000/svg">
<path d="M8.01255 0.139788C8.27911 0.139325 8.53745 0.221774 8.7427 0.372822L15.5879 5.43878C15.8208 5.61076 15.9674 5.85789 15.9952 6.1258C16.023 6.39372 15.9298 6.66047 15.7362 6.86738C15.5425 7.07429 15.2643 7.20441 14.9626 7.22911C14.6609 7.25381 14.3605 7.17107 14.1276 6.9991L8.01255 2.46L1.89754 6.83698C1.78084 6.92115 1.64657 6.984 1.50243 7.02192C1.3583 7.05985 1.20714 7.0721 1.05766 7.05798C0.908172 7.04385 0.763303 7.00363 0.631377 6.93963C0.499453 6.87562 0.383071 6.78909 0.288924 6.685C0.184444 6.58083 0.105315 6.45861 0.0564948 6.32601C0.00767431 6.19341 -0.00978269 6.05328 0.00521099 5.91441C0.0202056 5.77554 0.0673295 5.64092 0.143634 5.51897C0.219938 5.39703 0.323778 5.29039 0.448647 5.20575L7.29381 0.31203C7.50496 0.184859 7.75802 0.124214 8.01255 0.139788Z" fill="#1F4C45"/>
</svg>
