<svg width="148" height="148" viewBox="0 0 148 148" fill="none" xmlns="http://www.w3.org/2000/svg">
<path d="M73.894 143.894C112.554 143.894 143.894 112.554 143.894 73.894C143.894 35.2341 112.554 3.89404 73.894 3.89404C35.2341 3.89404 3.89404 35.2341 3.89404 73.894C3.89404 112.554 35.2341 143.894 73.894 143.894Z" stroke="#1F4C45" stroke-width="7.78808" stroke-miterlimit="22.93"/>
<path d="M62.6615 66.7017C61.4288 66.7268 60.254 67.2299 59.3852 68.1048C58.5164 68.9796 58.0215 70.1579 58.0049 71.3907V111.954C58.0049 112.564 58.1254 113.169 58.3597 113.733C58.5939 114.297 58.9371 114.81 59.3698 115.241C59.8024 115.672 60.3158 116.013 60.8807 116.245C61.4456 116.478 62.0508 116.596 62.6615 116.594H84.3708C85.5959 116.585 86.7678 116.093 87.6311 115.223C88.4943 114.354 88.9788 113.179 88.9787 111.954V71.3907C88.9873 70.7794 88.8746 70.1724 88.6471 69.605C88.4195 69.0375 88.0817 68.5208 87.6532 68.0847C87.2247 67.6486 86.7139 67.3018 86.1505 67.0644C85.5871 66.827 84.9822 66.7037 84.3708 66.7017H62.6615ZM85.8959 111.954C85.8967 112.368 85.7392 112.766 85.4556 113.068C85.1721 113.369 84.784 113.551 84.3708 113.576H62.6615C62.2449 113.577 61.844 113.417 61.542 113.13C61.2399 112.843 61.0598 112.451 61.039 112.035V85.9934C64.6357 83.3867 68.9951 82.0459 73.435 82.1805C77.9118 82.2325 82.2766 80.7814 85.831 78.0593L85.8959 111.954ZM85.8959 71.3907V73.9219C84.3105 75.6107 82.3875 76.9471 80.2519 77.8444C78.1163 78.7417 75.8158 79.1798 73.4999 79.1301C69.1504 79.0699 64.866 80.1914 61.1039 82.3752V71.3907C61.1247 70.9746 61.3048 70.5825 61.6069 70.2955C61.9089 70.0086 62.3098 69.8488 62.7264 69.8493H84.3708C84.7874 69.8488 85.1883 70.0086 85.4903 70.2955C85.7924 70.5825 85.9725 70.9746 85.9933 71.3907H85.8959Z" fill="#1F4C45"/>
<path d="M74.6358 39.9139C74.78 39.7692 74.8956 39.5985 74.9765 39.4109C75.0545 39.2262 75.0932 39.0273 75.0901 38.8268C75.0833 38.5203 74.9898 38.2219 74.8204 37.9663C74.6509 37.7108 74.4125 37.5084 74.1328 37.3828C73.9316 37.3046 73.713 37.2822 73.5001 37.3179C73.0976 37.3375 72.7169 37.5063 72.432 37.7912C72.147 38.0761 71.9783 38.4568 71.9587 38.8593C71.9526 39.0609 71.9885 39.2616 72.0639 39.4487C72.1393 39.6358 72.2526 39.8052 72.3967 39.9464C72.5408 40.0874 72.7119 40.1978 72.8997 40.2709C73.0859 40.3634 73.2923 40.408 73.5001 40.4007C73.7005 40.4038 73.8995 40.3651 74.0842 40.2871C74.2919 40.2022 74.4797 40.0751 74.6358 39.9139Z" fill="#1F4C45"/>
<path d="M88.7185 25.1491C87.5649 23.9945 86.0024 23.3415 84.3702 23.3319H62.6609C61.0171 23.3319 59.4406 23.9849 58.2782 25.1473C57.1159 26.3096 56.4629 27.8861 56.4629 29.5299V53.1862C56.2279 53.3156 56.0099 53.4737 55.8139 53.6567C55.2341 54.2385 54.9075 55.0258 54.9053 55.8471V60.5038C54.9074 60.7739 54.9512 61.042 55.0351 61.2988C54.0616 61.8282 53.2473 62.6084 52.6768 63.5584C52.1062 64.5084 51.8001 65.5937 51.79 66.7018V117C51.79 118.644 52.443 120.22 53.6054 121.382C54.7677 122.545 56.3442 123.198 57.9881 123.198H88.9781C90.6219 123.198 92.1984 122.545 93.3608 121.382C94.5231 120.22 95.1761 118.644 95.1761 117V66.7018C95.1713 65.5926 94.8673 64.5052 94.2962 63.5543C93.725 62.6034 92.908 61.8242 91.9311 61.2988C92.0097 61.0412 92.048 60.773 92.0447 60.5038V55.8471C92.0474 55.2968 91.8971 54.7566 91.6106 54.2867C91.3241 53.8168 90.9126 53.4358 90.4222 53.1862V29.5299C90.4402 28.7236 90.299 27.9216 90.0067 27.1698C89.7143 26.4181 89.2766 25.7314 88.7185 25.1491ZM92.0771 66.7018V117C92.075 117.405 91.9932 117.805 91.8363 118.178C91.6794 118.551 91.4505 118.89 91.1627 119.175C90.875 119.46 90.5339 119.685 90.1591 119.838C89.7843 119.991 89.383 120.068 88.9781 120.066H58.0043C57.1824 120.066 56.3941 119.74 55.8129 119.159C55.2318 118.577 54.9053 117.789 54.9053 116.967V66.6693C54.9053 65.8474 55.2318 65.0592 55.8129 64.478C56.3941 63.8968 57.1824 63.5703 58.0043 63.5703H88.9781C89.3885 63.5681 89.7951 63.6478 90.1742 63.8048C90.5533 63.9618 90.8973 64.1929 91.1859 64.4846C91.4745 64.7762 91.7021 65.1226 91.8551 65.5033C92.0081 65.884 92.0836 66.2915 92.0771 66.7018ZM88.9781 60.5038H58.0043V55.8471H88.9781V60.5038ZM79.6973 48.1077H81.3198V52.7644H65.7437V48.1077H79.6973ZM68.8427 45.0087V32.6289H78.1397V45.0087H68.8427ZM87.4367 29.5299V52.7644H84.3702V48.1077C84.3702 47.2858 84.0437 46.4976 83.4625 45.9164C82.8813 45.3352 82.0931 45.0087 81.2712 45.0087V32.6289C81.2733 32.2214 81.1946 31.8174 81.0397 31.4405C80.8847 31.0635 80.6565 30.721 80.3683 30.4328C80.0801 30.1446 79.7376 29.9164 79.3606 29.7614C78.9837 29.6065 78.5797 29.5278 78.1722 29.5299H68.8427C68.4365 29.5299 68.0343 29.6102 67.6592 29.7661C67.2841 29.9221 66.9436 30.1506 66.6571 30.4386C66.3706 30.7266 66.1439 31.0683 65.9899 31.4442C65.8359 31.8201 65.7578 32.2227 65.7599 32.6289V45.0087C64.938 45.0087 64.1498 45.3352 63.5686 45.9164C62.9874 46.4976 62.6609 47.2858 62.6609 48.1077V52.7644H59.5619V29.5299C59.5744 28.7119 59.905 27.931 60.4835 27.3525C61.0619 26.774 61.8429 26.4435 62.6609 26.4309H84.3702C85.1921 26.4309 85.9803 26.7574 86.5615 27.3386C87.1427 27.9198 87.4692 28.708 87.4692 29.5299H87.4367Z" fill="#1F4C45"/>
</svg>
