<svg width="151" height="150" viewBox="0 0 151 150" fill="none" xmlns="http://www.w3.org/2000/svg">
<g clip-path="url(#clip0)">
<path d="M106.86 58.763C100.426 54.2054 93.5425 52.9227 87.4773 55.1515C85.3471 55.9343 83.397 57.1297 81.6808 58.7041C79.9348 60.3057 78.1126 61.7928 76.222 63.1688L73.007 57.6003C72.4154 56.5756 71.105 56.2246 70.0805 56.8161C69.056 57.4076 68.7047 58.7179 69.2964 59.7426L72.6618 65.5717C71.4502 66.3293 70.2131 67.0436 68.9512 67.7142L48.4504 32.2057L52.161 30.0634L60.2985 44.1579C60.89 45.1824 62.2005 45.5335 63.225 44.942C64.2495 44.3505 64.6007 43.0401 64.0092 42.0155L54.8005 26.0657C54.2089 25.041 52.8985 24.69 51.874 25.2815L44.4527 29.5662C43.4282 30.1577 43.0769 31.468 43.6686 32.4927L65.0901 69.5959C62.9531 70.5452 60.7543 71.3795 58.4942 72.0907C56.2724 72.7899 54.2623 73.8812 52.5191 75.3343C47.5562 79.4724 45.2252 86.0752 45.9553 93.9262C46.6582 101.481 50.1384 109.351 55.7556 116.088C61.3726 122.824 68.4891 127.663 75.7945 129.712C82.2129 131.512 88.1466 131 92.8267 128.298C93.6819 127.804 94.4959 127.236 95.2628 126.597C96.7434 125.363 98.007 123.885 99.0185 122.204C100.255 120.152 102.423 118.899 104.818 118.856C106.779 118.82 108.691 118.465 110.5 117.8C116.564 115.571 120.98 110.136 122.932 102.497C124.81 95.1458 124.178 86.5635 121.153 78.3308C118.127 70.0981 113.051 63.1489 106.86 58.763ZM55.2632 78.6253C55.8287 78.1539 56.4326 77.7328 57.0719 77.3637C57.9157 76.8765 58.8214 76.4798 59.7805 76.1778C69.0629 73.2563 77.4056 68.4396 84.5771 61.8615C85.8796 60.6665 87.3525 59.7621 88.9552 59.1733C93.6561 57.4457 99.1352 58.5417 104.383 62.2594C106.388 63.6798 108.264 65.4138 109.972 67.403C109.175 67.5544 108.401 67.8396 107.679 68.2568C104.178 70.2778 102.975 74.77 104.995 78.2702L107.483 82.5781C108.322 84.0314 107.821 85.8967 106.367 86.7364C104.912 87.5761 103.046 87.0771 102.207 85.6238L100.848 83.2699C99.8695 81.5745 98.2887 80.362 96.3974 79.8549C94.5081 79.3486 92.5338 79.6088 90.8384 80.5876C87.338 82.6086 86.1338 87.0998 88.154 90.599L89.513 92.9528C90.352 94.4061 89.8514 96.2714 88.3971 97.1111C86.9427 97.9508 85.077 97.4517 84.2379 95.9984L78.2151 85.5666C77.2363 83.8713 75.6555 82.6585 73.7641 82.1517C71.8748 81.6456 69.8998 81.9062 68.2031 82.8858C64.704 84.906 63.5008 89.3965 65.521 92.8956L75.0597 109.417C75.8994 110.871 75.3992 112.738 73.9448 113.578C72.4904 114.417 70.6242 113.917 69.7845 112.463L64.0588 102.546C63.0783 100.847 61.4963 99.6342 59.6079 99.1309C57.7164 98.6239 55.741 98.884 54.0455 99.8629C53.2796 100.305 52.6262 100.87 52.0904 101.517C51.1027 98.8551 50.467 96.1663 50.2218 93.5298C49.6264 87.1256 51.4167 81.8327 55.2632 78.6253ZM117.131 79.8089C119.86 87.2361 120.446 94.9167 118.781 101.437C117.188 107.668 113.723 112.051 109.022 113.778C107.663 114.278 106.222 114.545 104.74 114.572C100.86 114.643 97.3493 116.67 95.3477 119.994C94.5834 121.265 93.6317 122.379 92.5192 123.306C88.6726 126.514 83.144 127.323 76.9518 125.586C70.4727 123.769 64.1139 119.421 59.0465 113.344C57.549 111.548 56.2218 109.668 55.077 107.738C55.0693 107.723 55.0639 107.708 55.0558 107.694C54.2467 106.249 54.7546 104.401 56.1879 103.573C56.8923 103.167 57.7127 103.059 58.5016 103.27C59.2855 103.479 59.941 103.982 60.3484 104.688L66.074 114.605C68.0949 118.105 72.587 119.309 76.0873 117.288C79.5877 115.267 80.7914 110.775 78.7705 107.275L69.2319 90.7532C68.3929 89.3001 68.8926 87.4353 70.3457 86.5964C71.0514 86.1889 71.8716 86.0802 72.6553 86.2902C73.4414 86.5009 74.0984 87.0047 74.5049 87.7088L80.5277 98.1405C82.5479 101.64 87.0395 102.842 90.5398 100.822C94.04 98.8007 95.2442 94.3094 93.224 90.8103L91.865 88.4564C91.026 87.0032 91.5267 85.1378 92.9811 84.2981C93.6852 83.8916 94.5048 83.7835 95.2887 83.9934C96.0745 84.2041 96.7314 84.7078 97.138 85.4121L98.497 87.7659C100.517 91.2651 105.009 92.4678 108.509 90.4468C112.01 88.4259 113.214 83.9347 111.194 80.4356L108.706 76.1277C107.867 74.6733 108.367 72.807 109.821 71.9673C110.524 71.5615 111.344 71.4539 112.13 71.6647C112.907 71.8726 113.559 72.3687 113.967 73.061C113.983 73.0884 114.001 73.1138 114.018 73.1402C115.218 75.219 116.265 77.4538 117.131 79.8089Z" fill="#FF7070"/>
<path d="M67.7244 52.7346C68.749 52.143 69.1001 50.8328 68.5085 49.8081C67.9169 48.7834 66.6066 48.4323 65.5819 49.0239C64.5572 49.6155 64.2062 50.9258 64.7978 51.9505C65.3894 52.9752 66.6997 53.3263 67.7244 52.7346Z" fill="#FF7070"/>
</g>
<defs>
<clipPath id="clip0">
<rect width="109.691" height="109.691" fill="white" transform="translate(0.665527 54.8466) rotate(-30)"/>
</clipPath>
</defs>
</svg>
