<svg width="31" height="38" viewBox="0 0 31 38" fill="none" xmlns="http://www.w3.org/2000/svg">
<path d="M31 33.1511C31 33.9612 30.3609 34.618 29.5725 34.618H28.145V36.0848C28.145 36.895 27.506 37.5517 26.7176 37.5517C25.9292 37.5517 25.2901 36.895 25.2901 36.0848V34.618H23.8626C23.0742 34.618 22.4351 33.9612 22.4351 33.1511C22.4351 32.3409 23.0742 31.6842 23.8626 31.6842H25.2901V30.2174C25.2901 29.4072 25.9292 28.7505 26.7176 28.7505C27.506 28.7505 28.145 29.4072 28.145 30.2174V31.6842H29.5725C30.3609 31.6842 31 32.3409 31 33.1511ZM31 10.268V24.3499C31 25.1601 30.3609 25.8168 29.5725 25.8168C28.7841 25.8168 28.145 25.1601 28.145 24.3499V11.7349H25.2901V16.1355C25.2901 16.9456 24.651 17.6023 23.8626 17.6023C23.0742 17.6023 22.4351 16.9456 22.4351 16.1355V11.7349H8.73136V16.1355C8.73136 16.9456 8.09228 17.6023 7.30389 17.6023C6.51549 17.6023 5.87641 16.9456 5.87641 16.1355V11.7349H3.02146V34.618H18.1527C18.9411 34.618 19.5802 35.2747 19.5802 36.0848C19.5802 36.895 18.9411 37.5517 18.1527 37.5517H1.59398C0.805585 37.5517 0.166504 36.895 0.166504 36.0848V10.268C0.166504 9.45789 0.805585 8.80117 1.59398 8.80117H5.94393C6.511 3.8522 10.6173 0 15.5833 0C20.5492 0 24.6555 3.8522 25.2226 8.80117H29.5725C30.3609 8.80117 31 9.45789 31 10.268ZM22.3394 8.80117C21.7941 5.47543 18.9723 2.93372 15.5833 2.93372C12.1942 2.93372 9.37237 5.47543 8.82708 8.80117H22.3394Z" fill="#FF7D7D"/>
</svg>
