<svg width="24" height="23" viewBox="0 0 24 23" fill="none" xmlns="http://www.w3.org/2000/svg">
<path d="M15.7166 8.93336C15.8087 8.84753 15.883 8.74441 15.9352 8.62988C15.9874 8.51535 16.0165 8.39167 16.0209 8.26588C16.0253 8.14009 16.0049 8.01467 15.9608 7.89677C15.9168 7.77887 15.8499 7.67081 15.7641 7.57875C15.6782 7.48669 15.5751 7.41244 15.4606 7.36023C15.3461 7.30803 15.2224 7.27889 15.0966 7.27449C14.9708 7.27008 14.8454 7.29049 14.7275 7.33456C14.6096 7.37863 14.5015 7.44548 14.4095 7.53131L11.6054 10.1456L8.99106 7.34061C8.81613 7.16144 8.57803 7.05786 8.32769 7.05202C8.07736 7.04618 7.83469 7.13855 7.6516 7.30937C7.46851 7.48019 7.35955 7.71588 7.34803 7.96601C7.33651 8.21615 7.42336 8.46085 7.58997 8.64777L10.2043 11.4519L7.39927 14.0662C7.30395 14.1512 7.22658 14.2543 7.17169 14.3696C7.1168 14.4849 7.0855 14.6099 7.07963 14.7375C7.07375 14.865 7.09343 14.9925 7.13749 15.1123C7.18156 15.2321 7.24912 15.342 7.33622 15.4353C7.42332 15.5287 7.5282 15.6037 7.6447 15.656C7.76119 15.7082 7.88696 15.7367 8.0146 15.7396C8.14225 15.7426 8.2692 15.7201 8.38801 15.6733C8.50681 15.6265 8.61507 15.5565 8.70643 15.4673L11.5105 12.8539L14.1248 15.658C14.2093 15.7551 14.3124 15.8341 14.428 15.8905C14.5436 15.9469 14.6694 15.9794 14.7979 15.9862C14.9263 15.9929 15.0548 15.9737 15.1757 15.9297C15.2966 15.8857 15.4074 15.8178 15.5015 15.7301C15.5956 15.6424 15.6711 15.5366 15.7234 15.4191C15.7757 15.3016 15.8039 15.1747 15.8062 15.0461C15.8085 14.9175 15.7848 14.7897 15.7367 14.6704C15.6885 14.5512 15.6169 14.4428 15.5259 14.3518L12.9126 11.5477L15.7166 8.93336Z" fill="#FF7070"/>
<path fill-rule="evenodd" clip-rule="evenodd" d="M1.01562 11.4997C1.01562 5.6778 5.73542 0.958008 11.5573 0.958008C17.3792 0.958008 22.099 5.6778 22.099 11.4997C22.099 17.3215 17.3792 22.0413 11.5573 22.0413C5.73542 22.0413 1.01562 17.3215 1.01562 11.4997ZM11.5573 20.1247C10.4246 20.1247 9.30308 19.9016 8.25665 19.4681C7.21021 19.0347 6.2594 18.3994 5.45849 17.5985C4.65759 16.7976 4.02228 15.8468 3.58883 14.8003C3.15538 13.7539 2.93229 12.6323 2.93229 11.4997C2.93229 10.367 3.15538 9.24546 3.58883 8.19903C4.02228 7.1526 4.65759 6.20178 5.45849 5.40088C6.2594 4.59997 7.21021 3.96466 8.25665 3.53121C9.30308 3.09777 10.4246 2.87467 11.5573 2.87467C13.8448 2.87467 16.0386 3.78338 17.6561 5.40088C19.2736 7.01838 20.1823 9.21218 20.1823 11.4997C20.1823 13.7872 19.2736 15.981 17.6561 17.5985C16.0386 19.216 13.8448 20.1247 11.5573 20.1247Z" fill="#FF7070"/>
</svg>
