<svg width="89" height="94" viewBox="0 0 89 94" fill="none" xmlns="http://www.w3.org/2000/svg">
<g clip-path="url(#clip0)">
<path d="M30.375 86.3391C29.9262 85.4574 28.8832 85.1252 28.0444 85.5971L27.9588 85.6456C27.1205 86.1177 26.8047 87.2157 27.2534 88.0979C27.5638 88.7077 28.1583 89.0548 28.7728 89.0548C29.0471 89.0548 29.3251 88.9856 29.5839 88.8399L29.6695 88.7914C30.5079 88.3191 30.8237 87.2211 30.375 86.3391Z" fill="#FF7070"/>
<path d="M30.0743 75.3705C29.4018 74.6633 28.3118 74.6633 27.6391 75.3705L26.4461 76.6257C25.7738 77.3331 25.7738 78.4804 26.4461 79.1879C26.7824 79.5416 27.223 79.7185 27.6636 79.7185C28.1041 79.7185 28.5449 79.5416 28.8811 79.1879L30.0741 77.9327C30.7466 77.2251 30.7466 76.0781 30.0743 75.3705Z" fill="#FF7070"/>
<path d="M68.6896 51.4866C79.2717 37.022 82.3167 25.9485 77.5686 19.2069C77.9935 18.506 77.9162 17.5653 77.3345 16.953C76.9133 16.5103 76.3288 16.3447 75.7855 16.4565C74.6417 15.702 73.6922 14.6549 73.0307 13.4026C71.4001 10.3143 72.4612 6.40609 75.396 4.69039C76.4533 4.07248 77.6757 3.92448 78.8382 4.2741C80.0009 4.62355 80.9649 5.42841 81.5521 6.54087C81.9772 7.34573 82.079 8.27686 81.8384 9.1627C81.5979 10.0484 81.0442 10.7822 80.2789 11.2298C79.7473 11.5409 79.1324 11.6148 78.5474 11.4392C77.9625 11.2633 77.4775 10.8585 77.1821 10.2991C76.7865 9.54964 77.0438 8.60149 77.7561 8.18483C78.5872 7.6988 78.8866 6.59594 78.4248 5.72115C77.9627 4.84655 76.9144 4.53188 76.0833 5.01755C73.7115 6.40428 72.8539 9.56286 74.1717 12.0586C74.9139 13.464 76.132 14.4814 77.6013 14.923C79.071 15.3648 80.6155 15.1777 81.9514 14.3969C85.1906 12.503 86.3619 8.18936 84.562 4.78115C83.5279 2.8227 81.831 1.40554 79.7841 0.790347C77.7367 0.175151 75.5847 0.435287 73.7235 1.52347C69.3301 4.09186 67.6217 9.79764 69.7122 14.5196C68.9255 14.4286 68.1056 14.4047 67.2498 14.4558C65.6508 14.5507 63.9246 14.9024 62.0855 15.5021C61.1348 14.2326 59.009 11.6746 55.5761 9.00799C51.2331 5.63366 43.8518 1.41442 33.3527 0.472786C32.8863 0.430396 32.4259 0.589992 32.0743 0.912988C31.7226 1.23598 31.5107 1.69539 31.4869 2.18613C31.3192 5.66518 32.5805 11.0768 33.5304 14.5848C31.7254 14.0446 29.2656 13.4502 26.3586 13.108C20.6655 12.4376 12.1033 12.6539 3.64387 17.4896C3.23548 17.7231 2.93418 18.1204 2.80832 18.5912C2.68264 19.0622 2.74307 19.5663 2.97619 19.9895C7.8202 28.787 14.1692 33.5466 18.6423 35.99C20.276 36.8824 21.7825 37.5401 23.0705 38.0215C20.6543 39.6268 17.7854 42.0172 16.5189 44.9171C16.2584 45.5134 16.3251 46.2116 16.693 46.7416C17.4535 47.838 18.9582 48.6059 21.4165 49.1551C15.7483 55.9591 11.4086 62.3206 8.66573 67.8847C6.46023 72.3587 5.24918 76.3833 5.06582 79.8472C4.85646 83.7989 5.95284 87.0676 8.32483 89.5633C10.5157 91.8685 13.3007 93.0244 16.6425 93.0244C18.2746 93.0244 20.0393 92.7487 21.9321 92.1962C22.8484 91.9288 23.3851 90.9307 23.131 89.9662C22.877 89.0023 21.9275 88.4376 21.0115 88.7048C16.4637 90.032 13.1106 89.4747 10.7598 87.0013C7.42249 83.49 7.74651 77.6195 11.7226 69.553C15.489 61.9118 22.4712 52.6211 31.9142 42.6854C41.3399 32.7678 50.1748 25.4275 57.4643 21.4577C65.1366 17.2791 70.7114 16.9324 74.0329 20.4273C76.5723 23.0992 76.966 27.2122 75.2033 32.6526C73.5016 37.9052 69.9031 44.1513 64.5047 51.2261C59.6986 51.4554 54.9566 53.4961 51.2947 57.3491C47.4175 61.4286 45.4714 66.7819 45.4549 72.1404C41.6212 75.7408 37.935 78.8461 34.4901 81.3748C33.7103 81.9473 33.519 83.0766 34.0633 83.8972C34.398 84.4021 34.9331 84.6724 35.4768 84.6724C35.8168 84.6724 36.1605 84.5666 36.4604 84.3463C39.4529 82.1496 42.6139 79.539 45.8857 76.5649C46.6556 80.4167 48.4579 84.0836 51.2947 87.0685C55.1884 91.1653 60.303 93.2137 65.4175 93.2137C70.532 93.2137 75.6467 91.1653 79.5403 87.0685C87.3278 78.8747 87.3278 65.5428 79.5403 57.3491C76.4798 54.1296 72.6654 52.1759 68.6896 51.4866ZM55.8808 18.2405C53.8714 19.3348 51.7543 20.6712 49.5491 22.2296L45.2261 14.2448C44.7552 13.3756 43.7044 13.0718 42.8775 13.5674C42.0513 14.0627 41.7631 15.169 42.2338 16.0385L46.7159 24.3171C44.785 25.7971 42.7956 27.4354 40.7591 29.22L28.4732 25.1168C27.568 24.8145 26.5988 25.3417 26.3111 26.2954C26.0234 27.249 26.525 28.2676 27.4313 28.5704L37.6838 31.9945C35.0095 34.4749 32.2667 37.1902 29.4785 40.1241C27.6031 42.0976 25.8223 44.0481 24.1392 45.9694C22.7343 45.7877 21.3225 45.4587 20.4112 45.1185C22.4638 42.276 26.6914 39.8863 28.3593 39.1205C29.0655 38.7977 29.4799 38.0204 29.3773 37.2171C29.2747 36.4143 28.6759 35.7802 27.9137 35.6652C27.8799 35.6601 24.4828 35.1259 20.0947 32.7021C14.7482 29.7486 10.3175 25.417 6.9027 19.81C12.6222 16.9554 18.9897 15.9083 25.8609 16.6963C31.5373 17.3477 35.4398 19.0788 35.4764 19.0953C36.1 19.3774 36.8228 19.248 37.3226 18.7644C37.8223 18.2807 38.0051 17.5334 37.7897 16.8561C37.0544 14.5448 35.3471 8.45892 34.9833 4.29946C43.5886 5.46283 49.7046 8.97738 53.4042 11.8251C55.8943 13.7417 57.6341 15.605 58.6666 16.8468C57.7601 17.2597 56.8319 17.7224 55.8808 18.2405ZM77.105 84.5068C70.6603 91.2881 60.1739 91.2881 53.7292 84.5068C47.2844 77.7259 47.2844 66.6924 53.7292 59.9115C56.9516 56.5208 61.1844 54.8258 65.417 54.8258C69.6497 54.8258 73.8825 56.5208 77.1048 59.9115C83.5498 66.6924 83.5498 77.7259 77.105 84.5068Z" fill="#FF7070"/>
<path d="M67.8448 57.9461C66.3927 56.8204 64.4412 56.8204 62.9896 57.9461C61.3098 59.2482 60.8294 61.6642 61.8731 63.566L63.9262 67.3077C64.2337 67.8682 64.8022 68.2135 65.4172 68.2135C66.0322 68.2135 66.6007 67.8682 66.9082 67.3077L68.9615 63.566C70.005 61.6644 69.5245 59.2484 67.8448 57.9461ZM65.979 61.7543L65.4169 62.7785L64.8547 61.7543C64.6895 61.4528 64.7657 61.0697 65.0321 60.8632C65.1473 60.7739 65.2821 60.7293 65.417 60.7293C65.5519 60.7293 65.6868 60.7739 65.802 60.8632C66.0684 61.0697 66.1445 61.4528 65.979 61.7543Z" fill="#FF7070"/>
<path d="M68.9616 80.8521L66.9083 77.1102C66.6008 76.5497 66.0323 76.2045 65.4173 76.2045C64.8023 76.2045 64.2338 76.5497 63.9263 77.1102L61.873 80.8521C60.8295 82.7537 61.3098 85.1695 62.9895 86.472C63.7155 87.0349 64.5662 87.3164 65.4173 87.3162C66.268 87.3162 67.119 87.0347 67.8451 86.472C69.5249 85.1697 70.0053 82.7539 68.9616 80.8521ZM65.8022 83.5549C65.5719 83.7334 65.2625 83.7335 65.0321 83.5549C64.7658 83.3484 64.6897 82.9653 64.8551 82.6638L65.4173 81.6396L65.9794 82.6638C66.1449 82.9653 66.0686 83.3484 65.8022 83.5549Z" fill="#FF7070"/>
<path d="M62.1287 74.2064C61.8212 73.6459 61.2527 73.3007 60.6377 73.3007H56.5312C54.4447 73.3007 52.6961 74.9459 52.4639 77.1282C52.2636 79.0142 53.2393 80.7921 54.8918 81.5522C55.4247 81.7975 55.9822 81.9143 56.5317 81.9143C57.9539 81.9143 59.3231 81.1314 60.0755 79.7597L62.1288 76.018C62.4363 75.4576 62.4363 74.7669 62.1287 74.2064ZM57.0934 77.9481C56.9279 78.2496 56.5744 78.3713 56.2714 78.2326C56.0094 78.1119 55.8546 77.8299 55.8863 77.5309C55.9231 77.1849 56.2005 76.9239 56.5314 76.9239H57.6555L57.0934 77.9481Z" fill="#FF7070"/>
<path d="M75.9426 62.8652C74.0306 61.9856 71.8022 62.7562 70.7585 64.6579L68.7052 68.3995C68.3977 68.9599 68.3977 69.6505 68.7052 70.211C69.0127 70.7715 69.5812 71.1167 70.1962 71.1167H74.3027C76.3892 71.1167 78.1377 69.4715 78.3698 67.2895C78.5707 65.4036 77.5952 63.6254 75.9426 62.8652ZM74.9481 66.8867C74.9113 67.2327 74.6339 67.4937 74.303 67.4937H73.1789L73.741 66.4695C73.741 66.4695 73.741 66.4695 73.741 66.4693C73.9065 66.1677 74.26 66.0463 74.5631 66.1852C74.8254 66.3057 74.98 66.5877 74.9481 66.8867Z" fill="#FF7070"/>
<path d="M78.3703 77.1279C78.1384 74.9459 76.3897 73.3007 74.3032 73.3007H70.1967C69.5817 73.3007 69.0132 73.6459 68.7057 74.2064C68.3982 74.7669 68.3982 75.4575 68.7057 76.0181L70.759 79.7599C71.5116 81.1312 72.8807 81.9147 74.3028 81.9147C74.8524 81.9147 75.41 81.7976 75.9427 81.5524C77.5954 80.7921 78.5709 79.014 78.3703 77.1279ZM74.5631 78.2326C74.2605 78.3722 73.9066 78.2499 73.7412 77.9483L73.1791 76.9241H74.3032C74.6341 76.9241 74.9114 77.1849 74.9481 77.5311C74.9801 77.8298 74.8255 78.1119 74.5631 78.2326Z" fill="#FF7070"/>
<path d="M62.1287 68.3996L60.0754 64.658C59.0322 62.7563 56.8033 61.9857 54.8915 62.8654C53.2394 63.6255 52.2635 65.4035 52.4639 67.2897C52.6958 69.4715 54.4447 71.1169 56.5311 71.1169H60.6375C61.2525 71.1169 61.821 70.7716 62.1285 70.2111C62.4362 69.6506 62.4362 68.9601 62.1287 68.3996ZM56.5314 67.4936C56.2005 67.4936 55.9232 67.2328 55.8865 66.8869C55.8545 66.5877 56.0091 66.3056 56.2711 66.185C56.3557 66.146 56.4442 66.1277 56.5314 66.1277C56.757 66.1277 56.9739 66.252 57.0934 66.4694L57.6555 67.4936H56.5314Z" fill="#FF7070"/>
<path d="M17.6954 76.9402C17.0231 76.233 15.9331 76.233 15.2604 76.9402L14.1356 78.1237C13.4633 78.8311 13.4633 79.9781 14.1356 80.6859C14.4718 81.0395 14.9124 81.2165 15.353 81.2165C15.7936 81.2165 16.2342 81.0395 16.5704 80.6859L17.6952 79.5024C18.3677 78.795 18.3677 77.6478 17.6954 76.9402Z" fill="#FF7070"/>
<path d="M27.7097 59.1839C27.0375 58.4763 25.947 58.4765 25.2747 59.1841L24.0819 60.4393C23.4095 61.1467 23.4095 62.2938 24.082 63.0014C24.4181 63.3552 24.8587 63.532 25.2993 63.532C25.7399 63.532 26.1806 63.355 26.5167 63.0012L27.7097 61.746C28.3822 61.0386 28.3822 59.8913 27.7097 59.1839Z" fill="#FF7070"/>
<path d="M39.4953 44.5227C38.8228 43.8153 37.7328 43.8153 37.0603 44.5227L36.0409 45.5953C35.3685 46.3027 35.3685 47.45 36.0409 48.1576C36.3771 48.5112 36.8177 48.6882 37.2583 48.6882C37.6989 48.6882 38.1394 48.5112 38.4757 48.1576L39.4951 47.085C40.1676 46.3774 40.1676 45.2303 39.4953 44.5227Z" fill="#FF7070"/>
<path d="M38.9853 68.1329C38.313 67.4251 37.2225 67.4257 36.5503 68.1331L35.6609 69.0691C34.9885 69.7767 34.9887 70.9239 35.6612 71.6311C35.9973 71.9849 36.4381 72.1617 36.8785 72.1617C37.3192 72.1617 37.7598 71.9847 38.0959 71.631L38.9853 70.6949C39.658 69.9873 39.6578 68.8403 38.9853 68.1329Z" fill="#FF7070"/>
<path d="M53.8359 44.7571C53.1634 44.0499 52.0733 44.0499 51.4007 44.7571L50.827 45.3609C50.1547 46.0683 50.1547 47.2155 50.827 47.9231C51.1632 48.2767 51.6038 48.4537 52.0444 48.4537C52.485 48.4537 52.9256 48.2767 53.2618 47.9231L53.8357 47.3193C54.5082 46.6118 54.5082 45.4647 53.8359 44.7571Z" fill="#FF7070"/>
<path d="M43.1177 55.2407C42.4452 54.5335 41.3552 54.5335 40.6825 55.2407L39.4313 56.5572C38.7592 57.2648 38.7592 58.412 39.4315 59.1194C39.7678 59.473 40.2083 59.65 40.6489 59.65C41.0895 59.65 41.5301 59.473 41.8663 59.1194L43.1175 57.803C43.79 57.0954 43.79 55.9483 43.1177 55.2407Z" fill="#FF7070"/>
<path d="M64.563 39.9472C63.8907 39.2399 62.8007 39.2399 62.128 39.9472L61.5287 40.5778C60.8563 41.2852 60.8563 42.4324 61.5287 43.14C61.8649 43.4936 62.3055 43.6706 62.7461 43.6706C63.1867 43.6706 63.6272 43.4936 63.9635 43.14L64.5628 42.5094C65.2353 41.8018 65.2353 40.6547 64.563 39.9472Z" fill="#FF7070"/>
<path d="M55.2288 32.2013C54.5563 31.4941 53.4663 31.4941 52.7937 32.2013L52.2391 32.7848C51.5668 33.4922 51.5668 34.6394 52.2391 35.347C52.5754 35.7006 53.0159 35.8776 53.4565 35.8776C53.8971 35.8776 54.3377 35.7006 54.6741 35.347L55.2287 34.7635C55.9012 34.0561 55.9012 32.9091 55.2288 32.2013Z" fill="#FF7070"/>
<path d="M67.5529 26.541C66.8804 25.8338 65.7904 25.8338 65.1177 26.541L64.1996 27.5071C63.5272 28.2145 63.5272 29.3618 64.1996 30.0694C64.5358 30.423 64.9764 30.6 65.417 30.6C65.8576 30.6 66.2983 30.4232 66.6346 30.0694L67.5527 29.1033C68.2252 28.3957 68.2252 27.2486 67.5529 26.541Z" fill="#FF7070"/>
<path d="M23.1567 23.554C22.8365 23.217 22.394 23.0232 21.9395 23.0232C21.4867 23.0232 21.0425 23.217 20.7222 23.554C20.4022 23.8909 20.2178 24.3583 20.2178 24.8347C20.2178 25.3112 20.402 25.7785 20.7222 26.1155C21.0425 26.4522 21.4867 26.6463 21.9395 26.6463C22.3923 26.6463 22.8365 26.4524 23.1567 26.1155C23.4768 25.7785 23.6612 25.3112 23.6612 24.8347C23.6612 24.3583 23.477 23.8909 23.1567 23.554Z" fill="#FF7070"/>
</g>
<defs>
<clipPath id="clip0">
<rect width="88.1508" height="92.75" fill="white" transform="translate(0 0.463379)"/>
</clipPath>
</defs>
</svg>
