<svg width="152" height="151" viewBox="0 0 152 151" fill="none" xmlns="http://www.w3.org/2000/svg">
<g clip-path="url(#clip0)">
<path d="M140.089 102.871C154.753 67.0994 137.642 26.2141 101.871 11.5506C66.0995 -3.11294 25.2141 13.9982 10.5506 49.7693C-4.11288 85.5404 12.9982 126.426 48.7693 141.089C84.5404 155.753 125.426 138.642 140.089 102.871Z" stroke="#1F4C45" stroke-width="8" stroke-miterlimit="22.93"/>
<path d="M33.5835 93.4663C33.6908 94.3796 33.9898 95.2599 34.4608 96.0497C34.9318 96.8395 35.5643 97.521 36.3168 98.0496C36.4668 98.0496 50.7168 107.666 59.5501 113.55C63.4594 116.152 67.9331 117.785 72.5998 118.313C77.2665 118.84 81.9918 118.247 86.3835 116.583L99.7168 111.583C101.893 110.763 104.12 110.083 106.383 109.55L106.85 109.433C107.111 109.575 107.403 109.649 107.7 109.65H113.117V111.316C113.117 111.554 113.164 111.789 113.255 112.009C113.347 112.228 113.481 112.428 113.65 112.595C113.819 112.762 114.019 112.895 114.24 112.984C114.46 113.074 114.696 113.118 114.933 113.116H124.483C124.721 113.118 124.957 113.074 125.177 112.984C125.398 112.895 125.598 112.762 125.767 112.595C125.936 112.428 126.07 112.228 126.162 112.009C126.253 111.789 126.3 111.554 126.3 111.316V87.3163C126.3 87.0785 126.253 86.843 126.162 86.6236C126.07 86.4041 125.936 86.2049 125.767 86.0375C125.598 85.8702 125.398 85.7379 125.177 85.6485C124.957 85.559 124.721 85.5141 124.483 85.5163H107.617C107.281 85.5001 106.948 85.5772 106.654 85.739C106.36 85.9008 106.116 86.141 105.95 86.4329C104.446 85.1714 102.76 84.1432 100.95 83.3829V59.3329L106.917 56.9663C107.153 56.8686 107.366 56.7236 107.544 56.5401C107.722 56.3566 107.86 56.1386 107.95 55.8996C108.035 55.6579 108.069 55.4011 108.049 55.1456C108.029 54.8901 107.956 54.6416 107.833 54.4163L100.717 41.3496V41.2329C100.498 40.8757 100.153 40.6139 99.7501 40.4996L71.4001 30.9996C71.0257 30.8829 70.6246 30.8829 70.2501 30.9996L41.9168 40.4829L41.5501 40.6496C41.3119 40.7874 41.1115 40.9821 40.9668 41.2163L33.8001 54.3329C33.674 54.5568 33.5982 54.8055 33.578 55.0617C33.5579 55.3179 33.5938 55.5754 33.6835 55.8163C33.7735 56.0553 33.9117 56.2733 34.0895 56.4568C34.2672 56.6403 34.4807 56.7853 34.7168 56.8829L40.6668 59.3329V86.1329C39.6595 86.0985 38.6559 86.2716 37.7183 86.6414C36.7807 87.0113 35.9293 87.57 35.2168 88.2829V88.3829C34.6001 89.0663 34.1357 89.8728 33.8541 90.7491C33.5725 91.6255 33.4803 92.5516 33.5835 93.4663ZM116.65 89.1329H122.6V109.566H116.65V89.1329ZM109.433 106V89.1329H113.033V106H109.433ZM43.3335 44.3329L68.1668 53.8996L62.1501 63.8163L37.9501 54.3329L43.3335 44.3329ZM69.0001 72.6663V88.6496H61.2168C59.9898 88.6449 58.7812 88.9475 57.7011 89.5298C56.6211 90.112 55.704 90.9554 55.0335 91.9829L44.3001 86.9829V60.6829L62.2335 67.8163C62.4516 67.9007 62.6829 67.9458 62.9168 67.9496C63.2293 67.9481 63.5362 67.866 63.8077 67.7113C64.0792 67.5566 64.3062 67.3344 64.4668 67.0663L70.8335 56.5496L77.2001 67.0663C77.3594 67.3355 77.5862 67.5586 77.858 67.7135C78.1298 67.8684 78.4373 67.9497 78.7501 67.9496C78.9787 67.9471 79.2048 67.9019 79.4168 67.8163L97.3335 60.6829V82.3496C93.037 81.7685 88.6728 82.7121 85.0001 85.0163C84.6835 85.1996 84.3501 85.4496 83.9168 85.7496C81.9414 87.4384 79.4888 88.4696 76.9001 88.6996H72.6335V72.6663C72.6335 72.1845 72.4421 71.7224 72.1014 71.3817C71.7607 71.041 71.2986 70.8496 70.8168 70.8496C70.335 70.8496 69.8729 71.041 69.5322 71.3817C69.1915 71.7224 69.0001 72.1845 69.0001 72.6663ZM93.8168 42.2663L70.8335 51.1163L47.8335 42.2663L70.8335 34.5663L93.8168 42.2663ZM79.5001 63.9329L73.5001 54.0163L98.3335 44.3329L103.717 54.3329L79.5001 63.9329ZM37.8335 90.8496C38.3452 90.3562 38.9861 90.0176 39.6822 89.8731C40.3782 89.7286 41.1009 89.784 41.7668 90.0329L53.9001 95.5996C53.9001 95.7663 53.9001 95.9329 53.9001 96.0996C53.9045 98.0432 54.6786 99.9059 56.0529 101.28C57.4272 102.654 59.2899 103.429 61.2335 103.433H88.5668C89.0486 103.433 89.5107 103.242 89.8514 102.901C90.1921 102.56 90.3835 102.098 90.3835 101.616C90.3835 101.134 90.1921 100.672 89.8514 100.332C89.5107 99.991 89.0486 99.7996 88.5668 99.7996H61.2168C60.7089 99.8337 60.1994 99.763 59.7199 99.5921C59.2405 99.4212 58.8012 99.1535 58.4294 98.8059C58.0576 98.4582 57.7612 98.0378 57.5586 97.5709C57.3559 97.1039 57.2514 96.6003 57.2514 96.0913C57.2514 95.5822 57.3559 95.0786 57.5586 94.6117C57.7612 94.1447 58.0576 93.7243 58.4294 93.3767C58.8012 93.029 59.2405 92.7614 59.7199 92.5904C60.1994 92.4195 60.7089 92.3489 61.2168 92.3829H76.9168C80.2699 92.1726 83.4688 90.9 86.0501 88.7496C86.3501 88.5329 86.6668 88.3163 86.8168 88.2329C95.4335 83.2329 101.817 86.9829 105.8 91.1996V106H105.45C103.057 106.572 100.702 107.296 98.4001 108.166L85.0668 113.166C81.2124 114.628 77.0649 115.148 72.9689 114.685C68.8729 114.221 64.9467 112.786 61.5168 110.5C52.8501 104.733 38.9501 95.4996 38.3168 95.0163C37.9811 94.7795 37.6991 94.4745 37.4895 94.1212C37.2798 93.768 37.1471 93.3744 37.1001 92.9663C37.0488 92.1755 37.3125 91.3966 37.8335 90.7996V90.8496Z" fill="#1F4C45"/>
</g>
<defs>
<clipPath id="clip0">
<rect width="152" height="151" fill="white"/>
</clipPath>
</defs>
</svg>
