<svg width="94" height="94" viewBox="0 0 94 94" fill="none" xmlns="http://www.w3.org/2000/svg">
<g clip-path="url(#clip0)">
<path d="M88.344 18.4063L86.5247 13.6779L83.3343 17.6124C83.2347 17.7384 73.1449 30.0225 59.8706 31.9179C57.3511 32.2783 54.9986 32.747 52.7252 33.2715C53.3492 22.9502 49.1363 13.1037 40.1862 3.93674L36.6501 0.327393L35.2731 5.19356C35.2409 5.2961 32.1882 15.8048 24.4334 20.5362C15.9374 25.7364 10.5263 31.4844 7.91889 38.0937C5.28494 44.3406 5.21756 51.3735 7.73139 57.6697C9.49065 61.9889 12.8997 65.4283 17.203 67.2262C17.6243 67.3868 18.0535 67.5258 18.4891 67.6423C18.2643 70.5639 18.5217 73.5025 19.2508 76.3404C17.6717 76.4781 16.163 76.5484 14.7509 76.5484C10.8753 76.6235 7.01161 76.0947 3.29881 74.9811L1.28613 80.4888C5.64437 81.8555 10.1962 82.5037 14.7626 82.4078C17.0316 82.3993 19.2983 82.2576 21.5506 81.983C22.5137 83.673 23.6959 85.2285 25.0662 86.6089C29.8112 91.0162 36.1246 93.3376 42.5944 93.0541C52.4928 92.828 62.0515 89.4023 69.8402 83.2896L70.6986 82.6158C78.7552 76.3053 103.238 57.1336 88.344 18.4063ZM19.4735 61.8152L19.4266 61.7976C16.5317 60.5953 14.2492 58.2692 13.1015 55.3523C11.1996 50.4823 11.29 45.0595 13.3534 40.2558C15.4803 34.8623 20.0916 30.0488 27.4773 25.5371C32.63 22.0886 36.6673 17.2145 39.0964 11.5099C44.8281 17.894 47.5647 26.4199 46.6197 34.9472C40.0924 36.9372 34.1284 40.4427 29.2146 45.1776C24.5574 49.7675 21.1967 55.5074 19.4735 61.8152ZM67.0981 77.9898L66.2192 78.6842C54.3042 88.1206 36.6706 89.9223 29.2146 82.4664C28.7215 81.9718 28.2616 81.4452 27.8377 80.8902C39.8288 78.1598 54.4449 71.0993 69.4565 54.8836L65.1557 50.9022C50.4781 66.7604 36.3659 73.2408 25.0955 75.5113C24.2919 72.7745 24.0555 69.9023 24.4012 67.071C25.2942 60.3115 28.4498 54.0537 33.3542 49.3172C39.3923 43.2763 48.3394 39.4823 60.6997 37.7187C69.7177 35.9735 77.9931 31.5303 84.43 24.9776C94.3791 56.6267 74.7093 72.0309 67.0981 77.9898Z" fill="#FF7D7D" fill-opacity="0.9"/>
<path d="M68.937 46.613L73.4165 50.3893C74.6665 48.9031 75.9184 47.3493 77.1723 45.7282L72.5317 42.1511C71.3335 43.7068 70.1323 45.1892 68.937 46.613Z" fill="#FF7D7D" fill-opacity="0.9"/>
</g>
<defs>
<clipPath id="clip0">
<rect width="92.75" height="92.75" fill="white" transform="translate(0.793457 0.327393)"/>
</clipPath>
</defs>
</svg>
