<svg width="149" height="149" viewBox="0 0 149 149" fill="none" xmlns="http://www.w3.org/2000/svg">
<g clip-path="url(#clip0)">
<path d="M139.089 100.881C153.753 65.1097 136.642 24.2243 100.871 9.56082C65.0995 -5.10268 24.2141 12.0084 9.55062 47.7795C-5.11288 83.5506 11.9982 124.436 47.7693 139.099C83.5404 153.763 124.426 136.652 139.089 100.881Z" stroke="#1F4C45" stroke-width="7.98943" stroke-miterlimit="22.93"/>
<path d="M104.585 99.1846C107.001 95.3227 108.508 90.9621 108.991 86.4324C109.474 81.9027 108.922 77.3224 107.375 73.0376C105.828 68.7529 103.328 64.8757 100.063 61.699C96.798 58.5224 92.8536 56.1294 88.528 54.701C87.6914 53.3479 86.5814 52.1845 85.2691 51.2853C83.9568 50.3861 82.4712 49.7709 80.9073 49.4791L82.6697 45.9381C82.7817 45.7153 82.8487 45.4726 82.8666 45.2239C82.8846 44.9752 82.8533 44.7254 82.7744 44.4889C82.6956 44.2524 82.5708 44.0337 82.4072 43.8455C82.2436 43.6574 82.0444 43.5034 81.8212 43.3924L83.453 39.9982C83.6757 40.1102 83.9184 40.1772 84.1671 40.1951C84.4158 40.2131 84.6656 40.1818 84.9021 40.1029C85.1387 40.0241 85.3573 39.8993 85.5455 39.7357C85.7337 39.5721 85.8877 39.3729 85.9986 39.1497L89.9803 31.17C90.0942 30.9489 90.1627 30.7072 90.1816 30.4592C90.2005 30.2112 90.1695 29.9619 90.0904 29.7261C90.0113 29.4903 89.8857 29.2727 89.721 29.0863C89.5564 28.8998 89.356 28.7483 89.1317 28.6407L77.7089 22.9456C77.2583 22.7237 76.7384 22.6884 76.2619 22.8472C75.7854 23.0061 75.3907 23.3463 75.1633 23.7941L71.1653 31.7738C70.9435 32.2244 70.9081 32.7443 71.067 33.2208C71.2258 33.6973 71.566 34.092 72.0139 34.3194L70.382 37.7136C70.1609 37.5997 69.9192 37.5312 69.6712 37.5123C69.4232 37.4934 69.1739 37.5244 68.9381 37.6035C68.7023 37.6827 68.4847 37.8083 68.2983 37.9729C68.1119 38.1376 67.9603 38.338 67.8527 38.5622L52.4972 69.2732C52.2753 69.7238 52.24 70.2437 52.3988 70.7202C52.5577 71.1967 52.8979 71.5915 53.3457 71.8189L64.7685 77.4976C65.0291 77.6385 65.3209 77.7115 65.6171 77.7098C65.9592 77.6955 66.2912 77.5896 66.5783 77.403C66.8654 77.2163 67.097 76.956 67.2489 76.6491L71.1164 68.9468C73.0264 70.7548 75.5113 71.8337 78.1364 71.9948C80.7615 72.1559 83.3597 71.3889 85.4765 69.828C88.5646 71.3179 91.0543 73.8138 92.5364 76.9056C94.0186 79.9975 94.4052 83.5016 93.6327 86.8422C92.8602 90.1828 90.9745 93.1614 88.2854 95.2886C85.5963 97.4159 82.2636 98.5654 78.8349 98.5482H63.6752V94.7624H69.354C69.856 94.7624 70.3375 94.5629 70.6925 94.2079C71.0475 93.853 71.2469 93.3715 71.2469 92.8694C71.2469 92.3674 71.0475 91.8859 70.6925 91.5309C70.3375 91.176 69.856 90.9765 69.354 90.9765H42.8368C42.3347 90.9765 41.8533 91.176 41.4983 91.5309C41.1433 91.8859 40.9438 92.3674 40.9438 92.8694C40.9438 93.3715 41.1433 93.853 41.4983 94.2079C41.8533 94.5629 42.3347 94.7624 42.8368 94.7624H48.5318V98.5482C46.5194 98.5482 44.5893 99.3476 43.1663 100.771C41.7433 102.194 40.9438 104.124 40.9438 106.136V111.815C40.9438 112.317 41.1433 112.798 41.4983 113.153C41.8533 113.508 42.3347 113.708 42.8368 113.708H107.261C107.763 113.708 108.245 113.508 108.6 113.153C108.955 112.798 109.154 112.317 109.154 111.815V106.136C109.152 104.658 108.719 103.213 107.907 101.978C107.096 100.744 105.941 99.7725 104.585 99.1846ZM67.4611 60.6571C67.4582 62.3553 67.8492 64.0311 68.6033 65.5526L64.7196 73.3201L56.7399 69.2732L70.3984 41.9401C70.6207 42.0544 70.8636 42.1231 71.1128 42.1422C71.362 42.1613 71.6126 42.1304 71.8497 42.0514C72.0868 41.9723 72.3058 41.8467 72.4937 41.6819C72.6816 41.517 72.8347 41.3163 72.944 41.0915L76.3382 34.3194C76.4497 34.0957 76.5157 33.8521 76.5326 33.6027C76.5494 33.3533 76.5166 33.1031 76.4362 32.8664C76.3558 32.6297 76.2293 32.4113 76.0641 32.2238C75.8988 32.0363 75.698 31.8833 75.4733 31.7738L77.7742 27.1883L85.7539 31.17L83.4693 35.7718C83.2466 35.6597 83.0039 35.5928 82.7552 35.5748C82.5065 35.5569 82.2567 35.5882 82.0201 35.667C81.7836 35.7459 81.565 35.8707 81.3768 36.0343C81.1886 36.1979 81.0346 36.397 80.9236 36.6203L77.5458 43.3924C77.4331 43.6142 77.3653 43.856 77.3462 44.104C77.3271 44.352 77.357 44.6013 77.4343 44.8377C77.5116 45.0741 77.6347 45.293 77.7966 45.4818C77.9586 45.6706 78.1561 45.8256 78.378 45.9381L76.5993 49.5118C74.0274 50.0367 71.7148 51.4314 70.0505 53.4613C68.3862 55.4911 67.4718 58.0323 67.4611 60.6571ZM78.8839 68.2288C77.3824 68.2321 75.9137 67.7898 74.6638 66.958C73.4138 66.1262 72.4387 64.9422 71.8618 63.556C71.285 62.1697 71.1324 60.6435 71.4234 59.1705C71.7143 57.6975 72.4357 56.3439 73.4962 55.2811C74.5568 54.2183 75.9088 53.494 77.3812 53.1998C78.8536 52.9057 80.3801 53.055 81.7676 53.6289C83.155 54.2027 84.3411 55.1753 85.1756 56.4235C86.0101 57.6717 86.4555 59.1394 86.4555 60.6408C86.4556 61.6401 86.2582 62.6294 85.8748 63.5522C85.4915 64.4749 84.9296 65.3129 84.2215 66.0179C83.5135 66.723 82.6731 67.2812 81.7487 67.6606C80.8243 68.04 79.8341 68.2331 78.8349 68.2288H78.8839ZM97.8294 83.3885C97.829 80.0533 96.9437 76.7779 95.2637 73.8967C93.5837 71.0155 91.1693 68.6317 88.2669 66.9886C89.5151 65.1141 90.1743 62.9092 90.1598 60.6571C90.1422 60.236 90.0986 59.8164 90.0292 59.4006C93.5439 61.0208 96.658 63.396 99.1498 66.3572C101.642 69.3184 103.45 72.7926 104.446 76.5324C105.441 80.2722 105.6 84.1856 104.911 87.9937C104.221 91.8019 102.7 95.4112 100.457 98.5645H90.1598C92.526 96.8049 94.4477 94.516 95.7709 91.8808C97.0942 89.2456 97.7824 86.3373 97.7804 83.3885H97.8294ZM52.3503 94.8113H59.9383V98.5972H52.3014L52.3503 94.8113ZM105.417 109.971H44.7297V106.136C44.7297 105.131 45.128 104.166 45.8375 103.453C46.5471 102.741 47.51 102.338 48.5155 102.334H101.583C102.59 102.338 103.554 102.74 104.266 103.452C104.978 104.165 105.38 105.129 105.385 106.136L105.417 109.971Z" fill="#1F4C45"/>
</g>
<defs>
<clipPath id="clip0">
<rect width="149" height="149" fill="white"/>
</clipPath>
</defs>
</svg>
