<svg width="97" height="98" viewBox="0 0 97 98" fill="none" xmlns="http://www.w3.org/2000/svg">
<g clip-path="url(#clip0)">
<path d="M47.8203 42.3445H51.0389V45.5637H47.8203V42.3445Z" fill="#FF7070"/>
<path d="M60.6968 55.2202H63.916V58.4394H60.6968V55.2202Z" fill="#FF7070"/>
<path d="M34.9434 55.2202H38.1626V58.4394H34.9434V55.2202Z" fill="#FF7070"/>
<path d="M47.8203 68.0974H51.0389V71.316H47.8203V68.0974Z" fill="#FF7070"/>
<path d="M43.9039 53.5802C43.5995 54.0917 43.3691 54.6442 43.2197 55.2202H39.772V58.4395H43.2197C43.3691 59.0161 43.5995 59.568 43.9039 60.0795L41.4639 62.5214L43.74 64.7976L46.1801 62.3556C46.6915 62.66 47.2434 62.8904 47.8201 63.0398V66.4876H51.0393V63.0398C51.6153 62.8904 52.1679 62.66 52.6793 62.3556L55.1194 64.7976L57.3955 62.5214L54.9554 60.0795C55.2593 59.568 55.4897 59.0161 55.639 58.4395H59.0868V55.2202H55.639C55.4897 54.6442 55.2593 54.0917 54.9554 53.5802L57.3955 51.1383L55.1194 48.8628L52.6793 51.3041C52.1679 50.9996 51.6153 50.7692 51.0393 50.6199V47.1721H47.8201V50.6199C47.2434 50.7692 46.6915 50.9996 46.1801 51.3041L43.74 48.8628L41.4639 51.1383L43.9039 53.5802ZM49.4297 53.6106C51.2077 53.6106 52.6489 55.0519 52.6489 56.8298C52.6489 58.6078 51.2077 60.0491 49.4297 60.0491C47.6517 60.0491 46.2105 58.6078 46.2105 56.8298C46.2105 55.0519 47.6517 53.6106 49.4297 53.6106Z" fill="#FF7070"/>
<path d="M38.0459 47.7234L40.3227 45.4473L42.5988 47.7234L40.3227 49.9995L38.0459 47.7234Z" fill="#FF7070"/>
<path d="M56.2568 47.7249L58.5336 45.4487L60.8097 47.7249L58.5336 50.0016L56.2568 47.7249Z" fill="#FF7070"/>
<path d="M38.0479 65.9348L40.324 63.6587L42.6007 65.9348L40.324 68.2109L38.0479 65.9348Z" fill="#FF7070"/>
<path d="M56.2588 65.9364L58.5349 63.6597L60.8117 65.9364L58.5349 68.2125L56.2588 65.9364Z" fill="#FF7070"/>
<path d="M14.9484 32.2566H15.0756C17.7087 32.2104 20.2558 31.3135 22.3363 29.6995L29.2944 32.4807L36.5539 38.2913C36.5539 38.3153 36.5539 38.3413 36.5539 38.3653C36.5539 38.9964 36.5539 39.6192 36.5767 40.2275C31.3307 37.6874 24.0668 36.0348 14.9712 35.3132C10.5411 34.9499 6.65595 38.247 6.29263 42.6764C6.11666 44.8222 6.80722 46.9489 8.21113 48.5807C14.342 55.7515 20.1361 60.7513 25.4188 63.4388C26.3847 63.9313 27.3247 64.3756 28.2469 64.775C27.4677 65.3852 26.6854 66.0416 25.8891 66.7499C21.4609 70.6888 17.1264 76.9899 13.0121 85.4792C11.069 89.4909 12.7457 94.3191 16.758 96.2623C17.8271 96.7801 18.9968 97.0554 20.1849 97.0693C21.1103 97.0675 22.0287 96.9092 22.9015 96.6029C31.8124 93.5007 38.5756 89.9308 43.0069 85.9906C45.3172 84.005 47.3845 81.7523 49.1631 79.2787C50.9423 81.7523 53.009 84.005 55.3199 85.9906C59.7525 89.9327 66.5164 93.5026 75.4253 96.6029C79.6187 98.0751 84.2121 95.8686 85.6843 91.6746C86.397 89.6447 86.2673 87.4142 85.3242 85.4805C81.2036 76.9912 76.8691 70.69 72.4472 66.7511C71.6041 65.9998 70.7749 65.3029 69.9476 64.6592C71.8389 63.5939 73.6511 62.3951 75.3702 61.0709C80.0915 57.4896 84.902 51.5423 89.6713 43.398C91.3557 40.5927 91.1436 37.0412 89.139 34.4549C88.582 33.7264 87.906 33.0959 87.1395 32.5915L87.4984 31.93C93.1242 22.9989 96.1086 12.6589 96.1079 2.10425C96.1079 1.21557 95.3876 0.494629 94.4989 0.494629H89.6701C76.8292 0.511719 64.382 4.92662 54.3996 13.0032C50.8525 10.3163 45.8002 11.0138 43.1133 14.5609C42.7063 15.0983 42.3683 15.6857 42.1068 16.3073C39.5446 22.071 37.7723 28.1544 36.8374 34.3929L31.725 30.3008V26.1049C36.533 25.3111 39.7731 20.9671 39.7731 14.9812C39.7731 8.12941 35.807 0.495262 30.116 0.495262C25.6296 0.495262 22.1597 5.38299 20.9412 10.8271C18.7018 8.88263 16.1497 7.33188 13.3919 6.24129C9.03525 4.56584 5.34445 4.74876 3.01515 6.76095C0.686488 8.77313 -0.0610389 12.4057 0.908025 17.0042C1.76949 20.9893 3.58292 24.7067 6.19262 27.8386C8.32253 30.5236 11.5234 32.1389 14.9484 32.2566ZM84.7096 30.309L84.1234 31.3895C82.9696 31.1933 81.7872 31.2483 80.6567 31.5502C74.2176 33.0751 68.0361 35.5316 62.3072 38.8413C62.3072 38.7274 62.3072 38.6128 62.3072 38.4989C62.3395 32.5655 60.5482 25.1244 56.9846 16.3845C56.8479 16.0585 56.6915 15.7408 56.5162 15.4338C65.7182 8.02434 77.133 3.90439 88.946 3.73033L88.7396 3.86072C80.113 9.36875 72.8175 16.7238 67.3804 25.3953L70.1166 27.1012C75.2987 18.8366 82.2524 11.8265 90.4746 6.57739L92.7811 5.10955C92.2697 14.0577 89.4922 22.7293 84.7096 30.309ZM39.963 42.841C39.8345 41.4523 39.7731 39.9439 39.7813 38.3824C39.8098 32.9516 41.6435 25.7492 45.083 17.5529C45.8204 15.7446 47.587 14.5698 49.5403 14.5881H49.5625C51.5247 14.5806 53.2906 15.7756 54.0128 17.5998C57.3593 25.8295 59.117 33.0504 59.0879 38.4805C59.0879 39.5737 59.0367 40.6586 58.943 41.8947C58.943 42.522 59.3126 43.0904 59.8861 43.3436C60.4969 43.6189 61.2096 43.5328 61.7375 43.1195C66.0556 39.8408 72.8821 36.9114 81.477 34.6499C84.0538 33.9618 86.7002 35.4923 87.3883 38.0691C87.7231 39.3205 87.5402 40.6535 86.8819 41.7694C82.3929 49.439 77.735 55.2249 73.4131 58.5087C71.1939 60.2576 68.7754 61.7374 66.2087 62.9173C65.3929 63.2698 65.0162 64.2168 65.3688 65.0333C65.4903 65.3137 65.6884 65.5542 65.9416 65.7264C67.4664 66.7733 68.9216 67.9177 70.2989 69.1532C74.3531 72.7586 78.5477 78.8907 82.4271 86.8825C83.6006 89.277 82.6107 92.1696 80.2155 93.3437C79.0528 93.9134 77.709 93.9925 76.4874 93.5621C68.0969 90.6442 61.5185 87.1933 57.4625 83.5828C54.7021 81.2991 52.3779 78.5356 50.6006 75.4259C50.122 74.6328 49.0909 74.3777 48.2978 74.8568C48.0649 74.9974 47.87 75.1923 47.7288 75.4259C45.9521 78.5356 43.6272 81.2997 40.8675 83.5828C36.8128 87.1901 30.2344 90.6391 21.842 93.5621C19.3266 94.4476 16.5694 93.126 15.6839 90.6106C15.2541 89.389 15.3326 88.0459 15.9029 86.8825C19.7817 78.8907 23.9763 72.7586 28.0298 69.1532C29.4286 67.9006 30.9085 66.7416 32.4592 65.6827C33.1947 65.1839 33.3872 64.1832 32.8884 63.4471C32.6947 63.1622 32.4156 62.9464 32.0902 62.8325C30.3059 62.1976 28.5653 61.445 26.8803 60.5785C22.0515 58.1163 16.4371 53.2469 10.6588 46.4964C8.91625 44.4779 9.14095 41.4282 11.1595 39.6857C12.0311 38.9337 13.1425 38.5179 14.2933 38.5128C14.4319 38.5128 14.5737 38.5128 14.7167 38.5305C23.5693 39.2325 30.8123 40.9048 35.6411 43.3594C36.3171 43.7056 36.9469 44.0481 37.5565 44.3911C38.3312 44.8266 39.313 44.5519 39.7484 43.7772C39.9086 43.4923 39.9782 43.1664 39.9484 42.841H39.963ZM15.0756 29.0374H14.9857C14.3471 29.0292 13.7122 28.9367 13.0976 28.7621L14.7686 25.9777C15.8706 24.1535 17.8442 23.0357 19.9753 23.0293H23.4826C23.0364 24.451 22.1768 25.708 21.0134 26.6391C19.3848 28.1228 17.2783 28.9735 15.0756 29.0374ZM28.5064 26.1112V28.6981L24.8618 27.2493C25.3321 26.6429 25.734 25.9865 26.0594 25.2922C26.8316 25.6814 27.6551 25.9574 28.5064 26.1112ZM30.116 23.0293C29.3356 23.0325 28.5627 22.8837 27.8399 22.5913L28.7874 21.6881C29.7597 20.7646 31.206 20.5475 32.4061 21.1456L33.7885 21.8362C32.7327 22.635 31.4389 23.0553 30.116 23.0293ZM30.116 3.71387C33.3042 3.71387 36.5539 9.4004 36.5539 14.9812C36.5811 16.4345 36.3114 17.8783 35.762 19.224L33.8448 18.2663C31.4623 17.0839 28.5975 17.4941 26.6423 19.2961C26.1024 17.2485 25.1131 15.3471 23.7453 13.7305C24.1763 8.50412 27.1715 3.71387 30.116 3.71387ZM5.12228 9.19785C5.93184 8.57438 6.93951 8.26423 7.95985 8.32373C9.43085 8.37183 10.881 8.68452 12.2412 9.24595C15.5199 10.5454 18.4524 12.588 20.8077 15.2129C22.023 16.5275 22.9268 18.0986 23.4535 19.8101H19.9753C16.715 19.8177 13.6945 21.526 12.0083 24.3168L10.2372 27.2721C9.65238 26.8106 9.1131 26.2935 8.62762 25.7283C6.37934 23.0053 4.8134 19.7848 4.05827 16.3351C3.35189 12.995 3.73926 10.3903 5.12228 9.19785Z" fill="#FF7070"/>
</g>
<defs>
<clipPath id="clip0">
<rect width="96.5827" height="96.5827" fill="white" transform="translate(0 0.494629)"/>
</clipPath>
</defs>
</svg>
