<svg width="148" height="148" viewBox="0 0 148 148" fill="none" xmlns="http://www.w3.org/2000/svg">
<path d="M73.894 143.894C112.554 143.894 143.894 112.554 143.894 73.894C143.894 35.2341 112.554 3.89404 73.894 3.89404C35.2341 3.89404 3.89404 35.2341 3.89404 73.894C3.89404 112.554 35.2341 143.894 73.894 143.894Z" stroke="#1F4C45" stroke-width="7.78808" stroke-miterlimit="22.93"/>
<path d="M115.831 57.3236L88.7192 30.1952C87.8481 29.3545 86.6847 28.8846 85.4741 28.8846C84.2635 28.8846 83.1002 29.3545 82.2291 30.1952L51.9205 60.3902H42.6559C41.428 60.3945 40.2519 60.8853 39.3851 61.7551C38.5184 62.6248 38.0317 63.8027 38.0317 65.0306V103.371C38.0317 104.599 38.5184 105.776 39.3851 106.646C40.2519 107.516 41.428 108.007 42.6559 108.011H100.19C101.421 108.011 102.601 107.522 103.472 106.652C104.342 105.782 104.831 104.601 104.831 103.371V74.8793L115.831 63.8786C116.684 63.0135 117.161 61.8479 117.161 60.6336C117.161 59.4192 116.684 58.2536 115.831 57.3885V57.3236ZM84.3708 32.4505C84.6699 32.1768 85.0606 32.0251 85.466 32.0251C85.8714 32.0251 86.2621 32.1768 86.5612 32.4505L90.0172 35.9064L65.4198 60.3902H56.3337L84.3708 32.4505ZM101.732 103.371C101.732 103.584 101.69 103.795 101.608 103.992C101.527 104.188 101.407 104.367 101.257 104.518C101.106 104.669 100.927 104.788 100.73 104.87C100.533 104.951 100.322 104.993 100.109 104.993H42.6559C42.2398 104.972 41.8477 104.792 41.5607 104.49C41.2738 104.188 41.114 103.787 41.1145 103.371V65.0306C41.114 64.614 41.2738 64.2131 41.5607 63.9111C41.8477 63.609 42.2398 63.4289 42.6559 63.4081H100.19C100.621 63.4081 101.033 63.579 101.338 63.8833C101.642 64.1876 101.813 64.6003 101.813 65.0306L101.732 103.371ZM113.576 61.6558L104.766 70.4822V65.0306C104.766 63.7999 104.277 62.6196 103.407 61.7493C102.536 60.8791 101.356 60.3902 100.125 60.3902H81.1258L97.8539 43.7107L113.576 59.4978C113.718 59.6395 113.83 59.8076 113.907 59.9928C113.984 60.1779 114.023 60.3764 114.023 60.5768C114.023 60.7772 113.984 60.9756 113.907 61.1608C113.83 61.3459 113.718 61.5141 113.576 61.6558Z" fill="#1F4C45" stroke="#1F4C45" stroke-width="1.46027" stroke-miterlimit="22.93"/>
<path d="M50.6604 80.4931C53.734 80.4931 56.2257 78.0015 56.2257 74.9279C56.2257 71.8543 53.734 69.3627 50.6604 69.3627C47.5869 69.3627 45.0952 71.8543 45.0952 74.9279C45.0952 78.0015 47.5869 80.4931 50.6604 80.4931Z" fill="#1F4C45" stroke="#1F4C45" stroke-width="1.46027" stroke-miterlimit="22.93"/>
<path d="M46.0524 91.007H52.5425C52.7853 91.0824 53.0424 91.0997 53.2932 91.0575C53.5439 91.0152 53.7812 90.9147 53.9859 90.7639C54.1907 90.6131 54.3571 90.4163 54.4718 90.1894C54.5865 89.9624 54.6462 89.7117 54.6462 89.4575C54.6462 89.2032 54.5865 88.9525 54.4718 88.7256C54.3571 88.4987 54.1907 88.3019 53.9859 88.1511C53.7812 88.0003 53.5439 87.8997 53.2932 87.8575C53.0424 87.8153 52.7853 87.8326 52.5425 87.908H46.0524C45.7217 88.0107 45.4326 88.2165 45.2272 88.4953C45.0219 88.774 44.9111 89.1112 44.9111 89.4575C44.9111 89.8037 45.0219 90.1409 45.2272 90.4197C45.4326 90.6985 45.7217 90.9043 46.0524 91.007Z" fill="#1F4C45" stroke="#1F4C45" stroke-width="1.46027" stroke-miterlimit="22.93"/>
<path d="M66.6421 96.5721H46.0524C45.7217 96.6748 45.4326 96.8806 45.2272 97.1594C45.0219 97.4382 44.9111 97.7754 44.9111 98.1216C44.9111 98.4679 45.0219 98.8051 45.2272 99.0839C45.4326 99.3627 45.7217 99.5684 46.0524 99.6711H66.6421C66.9728 99.5684 67.262 99.3627 67.4673 99.0839C67.6726 98.8051 67.7834 98.4679 67.7834 98.1216C67.7834 97.7754 67.6726 97.4382 67.4673 97.1594C67.262 96.8806 66.9728 96.6748 66.6421 96.5721Z" fill="#1F4C45" stroke="#1F4C45" stroke-width="1.46027" stroke-miterlimit="22.93"/>
<path d="M94.8584 96.5721H88.3683C88.0377 96.6748 87.7485 96.8806 87.5432 97.1594C87.3378 97.4382 87.2271 97.7754 87.2271 98.1216C87.2271 98.4679 87.3378 98.8051 87.5432 99.0839C87.7485 99.3627 88.0377 99.5684 88.3683 99.6711H94.8584C95.1891 99.5684 95.4782 99.3627 95.6835 99.0839C95.8889 98.8051 95.9997 98.4679 95.9997 98.1216C95.9997 97.7754 95.8889 97.4382 95.6835 97.1594C95.4782 96.8806 95.1891 96.6748 94.8584 96.5721Z" fill="#1F4C45" stroke="#1F4C45" stroke-width="1.46027" stroke-miterlimit="22.93"/>
<path d="M66.6421 87.9081H60.152C59.8213 88.0108 59.5322 88.2166 59.3269 88.4954C59.1215 88.7742 59.0107 89.1113 59.0107 89.4576C59.0107 89.8038 59.1215 90.141 59.3269 90.4198C59.5322 90.6986 59.8213 90.9044 60.152 91.0071H66.6421C66.9727 90.9044 67.2619 90.6986 67.4672 90.4198C67.6726 90.141 67.7833 89.8038 67.7833 89.4576C67.7833 89.1113 67.6726 88.7742 67.4672 88.4954C67.2619 88.2166 66.9727 88.0108 66.6421 87.9081Z" fill="#1F4C45" stroke="#1F4C45" stroke-width="1.46027" stroke-miterlimit="22.93"/>
<path d="M80.7584 87.908H74.2683C74.0255 87.8326 73.7683 87.8153 73.5176 87.8575C73.2669 87.8997 73.0296 88.0003 72.8248 88.1511C72.6201 88.3019 72.4537 88.4987 72.339 88.7256C72.2243 88.9525 72.1646 89.2032 72.1646 89.4575C72.1646 89.7117 72.2243 89.9624 72.339 90.1894C72.4537 90.4163 72.6201 90.6131 72.8248 90.7639C73.0296 90.9147 73.2669 91.0152 73.5176 91.0575C73.7683 91.0997 74.0255 91.0824 74.2683 91.007H80.7584C81.089 90.9043 81.3782 90.6985 81.5835 90.4197C81.7889 90.1409 81.8996 89.8037 81.8996 89.4575C81.8996 89.1112 81.7889 88.774 81.5835 88.4953C81.3782 88.2165 81.089 88.0107 80.7584 87.908Z" fill="#1F4C45" stroke="#1F4C45" stroke-width="1.46027" stroke-miterlimit="22.93"/>
<path d="M94.8584 87.9081H88.3683C88.0377 88.0108 87.7485 88.2166 87.5432 88.4954C87.3378 88.7742 87.2271 89.1113 87.2271 89.4576C87.2271 89.8038 87.3378 90.141 87.5432 90.4198C87.7485 90.6986 88.0377 90.9044 88.3683 91.0071H94.8584C95.1891 90.9044 95.4782 90.6986 95.6835 90.4198C95.8889 90.141 95.9997 89.8038 95.9997 89.4576C95.9997 89.1113 95.8889 88.7742 95.6835 88.4954C95.4782 88.2166 95.1891 88.0108 94.8584 87.9081Z" fill="#1F4C45" stroke="#1F4C45" stroke-width="1.46027" stroke-miterlimit="22.93"/>
<path d="M81.2456 72.4455V77.3941C81.2456 78.216 81.5721 79.0043 82.1533 79.5855C82.7345 80.1666 83.5227 80.4931 84.3446 80.4931H86.5026V69.3627H84.3446C83.5255 69.3627 82.7397 69.6869 82.159 70.2646C81.5783 70.8423 81.2499 71.6264 81.2456 72.4455Z" fill="#1F4C45" stroke="#1F4C45" stroke-width="1.46027" stroke-miterlimit="22.93"/>
<path d="M94.858 77.3941V72.4455C94.858 71.6279 94.5332 70.8437 93.9551 70.2656C93.377 69.6875 92.5929 69.3627 91.7752 69.3627H89.6011V80.4931H91.7752C92.1815 80.4931 92.5837 80.4129 92.9587 80.2569C93.3338 80.101 93.6744 79.8725 93.9609 79.5845C94.2473 79.2965 94.4741 78.9547 94.628 78.5788C94.782 78.2029 94.8602 77.8003 94.858 77.3941Z" fill="#1F4C45" stroke="#1F4C45" stroke-width="1.46027" stroke-miterlimit="22.93"/>
</svg>
