<svg width="87" height="87" viewBox="0 0 87 87" fill="none" xmlns="http://www.w3.org/2000/svg">
<g clip-path="url(#clip0)">
<path d="M78.6859 29.0173C79.8935 23.26 78.1347 17.2496 73.9326 13.0474C70.628 9.74253 66.2337 7.92266 61.56 7.92266C60.3482 7.92266 59.1433 8.04735 57.9626 8.29457C54.7453 3.36855 49.2516 0.362549 43.3087 0.362549C37.3658 0.362549 31.8721 3.36873 28.6544 8.29457C27.4737 8.04753 26.269 7.92266 25.0573 7.92266C20.3835 7.92266 15.9895 9.74271 12.6846 13.0474C8.48259 17.2496 6.72389 23.26 7.93148 29.0175C3.00618 32.235 0 37.7289 0 43.6716C0 49.6145 3.00618 55.1082 7.93148 58.3257C6.72407 64.0835 8.48295 70.0937 12.6848 74.2959C15.9896 77.6007 20.3837 79.4206 25.0574 79.4206C26.2694 79.4206 27.4741 79.2959 28.655 79.0487C31.8723 83.9743 37.366 86.9803 43.3089 86.9803C49.2518 86.9803 54.7455 83.9742 57.963 79.0483C59.1437 79.2953 60.3486 79.42 61.5605 79.4202C61.5609 79.4202 61.5611 79.4202 61.5611 79.4202C66.2343 79.4202 70.6281 77.6002 73.9332 74.2953C78.135 70.0931 79.8939 64.0827 78.6865 58.3252C83.6121 55.1077 86.6178 49.6143 86.6178 43.6713C86.6174 37.7284 83.6111 32.2348 78.6859 29.0173ZM75.7476 55.88L74.4664 56.5771L74.8793 57.976C76.3229 62.8663 74.9823 68.1417 71.3808 71.7434C68.7576 74.3666 65.2699 75.8113 61.5605 75.8111C60.2212 75.811 58.8934 75.6195 57.6136 75.2416L56.2149 74.8286L55.5179 76.1098C53.0803 80.5888 48.4024 83.3713 43.3089 83.3713C38.2156 83.3713 33.5375 80.589 31.1003 76.1102L30.403 74.8289L29.0043 75.242C27.7244 75.6199 26.3966 75.8113 25.0576 75.8113C21.3479 75.8113 17.86 74.3668 15.237 71.7437C11.6355 68.1421 10.2949 62.8668 11.7385 57.9764L12.1514 56.5775L10.8702 55.8804C6.39149 53.4434 3.60907 48.7653 3.60907 43.6716C3.60907 38.5781 6.39149 33.9001 10.8702 31.463L12.1516 30.7659L11.7385 29.3671C10.2947 24.4768 11.6351 19.2014 15.2368 15.5997C17.8599 12.9766 21.3475 11.5321 25.0573 11.5321C26.3962 11.5321 27.724 11.7237 29.004 12.1014L30.4027 12.5143L31.0998 11.2333C33.5373 6.75404 38.2152 3.97162 43.3087 3.97162C48.402 3.97162 53.0799 6.75386 55.5171 11.2329L56.2142 12.5139L57.6131 12.1011C58.8931 11.7232 60.2208 11.5317 61.5598 11.5317C65.2698 11.5317 68.7576 12.9763 71.3806 15.5993C74.9821 19.2012 76.3227 24.4764 74.8789 29.3665L74.4659 30.7654L75.7473 31.4625C80.2259 33.8995 83.0083 38.5778 83.0087 43.6714C83.0087 48.7647 80.2263 53.4428 75.7476 55.88Z" fill="#FF7070"/>
<path d="M71.0847 32.1662C69.5115 28.3684 66.1924 25.6201 62.2329 24.747C61.3602 20.7881 58.6119 17.469 54.8141 15.8956C53.2867 15.2629 51.6801 14.9423 50.0391 14.9423C47.6551 14.9423 45.3114 15.6336 43.3087 16.9099C41.3064 15.6336 38.963 14.9423 36.579 14.9423C34.9378 14.9423 33.3312 15.2629 31.8039 15.8958C28.0062 17.4686 25.2577 20.7879 24.3849 24.7476C20.4254 25.6204 17.1063 28.3687 15.5334 32.1664C13.9602 35.9642 14.3639 40.2547 16.5461 43.6716C14.3637 47.0885 13.9602 51.3788 15.5334 55.1764C17.1066 58.974 20.4255 61.7227 24.3851 62.5957C25.2579 66.5551 28.0064 69.8744 31.8041 71.4474C33.3316 72.08 34.9382 72.4007 36.5792 72.4007C38.9632 72.4007 41.3067 71.7094 43.3091 70.4332C45.3114 71.7092 47.6549 72.4005 50.0389 72.4007C50.0391 72.4007 50.0391 72.4007 50.0391 72.4007C51.6801 72.4007 53.2867 72.0799 54.8142 71.4472C58.6119 69.8742 61.3602 66.5549 62.2332 62.5954C66.1926 61.7225 69.5118 58.974 71.085 55.1762C72.6579 51.3784 72.2544 47.0881 70.0722 43.6714C72.2544 40.2545 72.6581 35.964 71.0847 32.1662ZM66.4483 44.8057C68.4979 47.3415 68.9968 50.7861 67.7508 53.7952C66.5044 56.8043 63.7157 58.8871 60.4731 59.2308L59.0228 59.3848L58.8689 60.8351C58.5249 64.0778 56.4421 66.8666 53.4332 68.1129C52.3458 68.5634 51.2041 68.7916 50.0394 68.7916C50.0393 68.7916 50.0391 68.7916 50.0391 68.7916C48.0113 68.7916 46.024 68.088 44.4432 66.8106L43.3091 65.8937L42.1747 66.8106C40.5941 68.0882 38.607 68.7916 36.5792 68.7916C35.4144 68.7916 34.2725 68.5634 33.1851 68.1129C30.176 66.8666 28.0932 64.078 27.7494 60.8354L27.5955 59.3851L26.1452 59.2312C22.9026 58.8873 20.1141 56.8045 18.8677 53.7952C17.6213 50.7861 18.1202 47.3416 20.17 44.8057L21.0869 43.6714L20.17 42.5371C18.1202 40.001 17.6213 36.5563 18.8677 33.5472C20.1137 30.5383 22.9023 28.4555 26.1448 28.1118L27.5953 27.958L27.7491 26.5075C28.0928 23.2646 30.1756 20.4761 33.1847 19.2297C34.2719 18.7792 35.414 18.551 36.5789 18.551C38.6063 18.551 40.5934 19.2546 42.1742 20.5322L43.3083 21.4491L44.4427 20.5324C46.0238 19.2546 48.0111 18.551 50.0389 18.551C51.2035 18.551 52.3455 18.7792 53.4327 19.2297C56.4418 20.4764 58.5247 23.2648 58.8683 26.5072L59.0222 27.9577L60.4726 28.1116C63.7153 28.4554 66.5039 30.5383 67.7504 33.5474C68.9968 36.5565 68.4979 40.0011 66.4481 42.5371L65.5314 43.6714L66.4483 44.8057Z" fill="#FF7070"/>
<path d="M57.6357 37.7371C57.8822 35.467 57.098 33.1793 55.4494 31.5309C54.0111 30.0929 52.0992 29.3009 50.0655 29.3009C49.7905 29.3009 49.516 29.3156 49.2435 29.3451C47.8126 27.5654 45.6401 26.5022 43.3088 26.5022C40.9771 26.5022 38.8047 27.5652 37.3737 29.3451C37.1012 29.3156 36.8271 29.3009 36.5519 29.3009C34.518 29.3009 32.6059 30.0929 31.1679 31.5309C29.5194 33.1793 28.7352 35.467 28.9817 37.7371C27.2022 39.1679 26.1392 41.3402 26.1392 43.6715C26.1392 46.0027 27.2022 48.1752 28.9817 49.606C28.7352 51.8761 29.5196 54.1638 31.168 55.8122C32.6061 57.2504 34.5182 58.0424 36.5521 58.0424C36.8273 58.0424 37.1014 58.0276 37.3738 57.9982C38.8048 59.7779 40.9773 60.8411 43.3088 60.8411C45.6402 60.8411 47.8127 59.778 49.2437 57.9982C49.5162 58.0276 49.7903 58.0424 50.0655 58.0424C50.0657 58.0424 50.0657 58.0424 50.0657 58.0424C52.0996 58.0424 54.0115 57.2504 55.4495 55.8122C57.098 54.1638 57.8826 51.876 57.6359 49.606C59.4154 48.175 60.4784 46.0027 60.4784 43.6715C60.4782 41.3402 59.4152 39.1679 57.6357 37.7371ZM54.7743 47.193L53.4932 47.8901L53.9061 49.289C54.3226 50.6996 53.9361 52.2214 52.8972 53.2602C52.1409 54.0167 51.1351 54.4334 50.0655 54.4334C49.6786 54.4332 49.2953 54.378 48.9263 54.269L47.5276 53.8559L46.8305 55.1369C46.1273 56.4292 44.7779 57.2318 43.3088 57.2318C41.8397 57.2318 40.4905 56.4292 39.7874 55.1371L39.0903 53.8559L37.6914 54.269C37.3221 54.378 36.9388 54.4334 36.5522 54.4334C35.4823 54.4334 34.4767 54.0167 33.7204 53.2602C32.6815 52.2215 32.2952 50.7 32.7115 49.289L33.1243 47.8901L31.8431 47.193C30.5511 46.4898 29.7484 45.1405 29.7484 43.6715C29.7484 42.2026 30.5511 40.8533 31.8431 40.1501L33.1243 39.453L32.7115 38.0539C32.295 36.6432 32.6815 35.1214 33.7202 34.0827C34.4765 33.3264 35.4823 32.9097 36.5521 32.9097C36.9388 32.9097 37.3222 32.965 37.6913 33.074L39.0901 33.4868L39.7872 32.2058C40.4903 30.9136 41.8397 30.1109 43.3088 30.1109C44.7777 30.1109 46.1268 30.9136 46.83 32.2058L47.5271 33.4868L48.9259 33.074C49.2953 32.965 49.6786 32.9096 50.0655 32.9096C51.1352 32.9096 52.1411 33.3262 52.8974 34.0825C53.9361 35.1212 54.3224 36.643 53.9061 38.0538L53.4932 39.4526L54.7745 40.1497C56.0665 40.8528 56.8692 42.2022 56.8693 43.6713C56.8693 45.1405 56.0665 46.49 54.7743 47.193Z" fill="#FF7070"/>
<path d="M51.0292 40.4734C50.5992 39.4356 49.7892 38.6263 48.7907 38.1891C48.3535 37.1908 47.5443 36.3807 46.5067 35.9509C45.9836 35.7342 45.4326 35.6243 44.8691 35.6243C44.3331 35.6243 43.8035 35.726 43.3089 35.9197C42.8141 35.7262 42.2843 35.6244 41.7485 35.6244C41.1851 35.6244 40.6342 35.7343 40.1109 35.9511C39.0731 36.3811 38.2639 37.1911 37.8269 38.1896C36.8286 38.6267 36.0184 39.436 35.5887 40.4736C35.1587 41.5114 35.1592 42.6565 35.5562 43.6718C35.1592 44.687 35.1587 45.832 35.5885 46.8696C36.0184 47.9074 36.8284 48.7167 37.8269 49.154C38.2641 50.1522 39.0733 50.9625 40.1112 51.3923C40.6342 51.609 41.1853 51.7189 41.7487 51.7189C42.2845 51.7189 42.8143 51.617 43.3089 51.4237C43.8035 51.6172 44.3333 51.7189 44.8691 51.7189C44.8691 51.7189 44.8691 51.7189 44.8693 51.7189C45.4326 51.7189 45.9836 51.609 46.5065 51.3923C47.5443 50.9625 48.3535 50.1522 48.7907 49.154C49.7892 48.7169 50.5994 47.9076 51.0291 46.87C51.4591 45.8322 51.4585 44.687 51.0617 43.6718C51.4585 42.6564 51.4591 41.5112 51.0292 40.4734ZM47.5956 44.8058C47.7177 44.9568 47.808 45.2154 47.6948 45.4882C47.5819 45.7609 47.3354 45.88 47.1419 45.9004L45.6918 46.0541L45.5377 47.5044C45.5173 47.6977 45.3982 47.9446 45.1255 48.0575C45.0423 48.0918 44.9561 48.1093 44.8691 48.1093C44.7148 48.1093 44.5636 48.0555 44.443 47.9581L43.3087 47.0414L42.1744 47.9581C41.9856 48.1108 41.722 48.1526 41.4919 48.0575C41.2192 47.9446 41.1001 47.6979 41.0797 47.5048L40.926 46.0545L39.4757 45.9004C39.2824 45.88 39.0356 45.7607 38.9226 45.4877C38.8096 45.2152 38.9 44.9564 39.0222 44.8054L39.9386 43.6712L39.0222 42.5371C38.8999 42.3859 38.8096 42.1273 38.9228 41.8544C39.0356 41.5818 39.2822 41.4627 39.4755 41.4423L40.926 41.2883L41.0797 39.8377C41.1001 39.6446 41.2192 39.3979 41.4917 39.285C41.7222 39.1895 41.9856 39.2317 42.1746 39.3844L43.3089 40.3009L44.443 39.3842C44.632 39.2315 44.8954 39.1895 45.1253 39.2848C45.3982 39.3977 45.5173 39.6446 45.5377 39.8377L45.6918 41.288L47.1419 41.4417C47.3352 41.4621 47.5819 41.5812 47.695 41.8541C47.808 42.1269 47.7177 42.3855 47.5956 42.5365L46.6787 43.6714L47.5956 44.8058Z" fill="#FF7070"/>
</g>
<defs>
<clipPath id="clip0">
<rect width="86.6178" height="86.6178" fill="white" transform="translate(0 0.362549)"/>
</clipPath>
</defs>
</svg>
