<svg width="148" height="148" viewBox="0 0 148 148" fill="none" xmlns="http://www.w3.org/2000/svg">
<path d="M73.9468 143.947C112.607 143.947 143.947 112.607 143.947 73.9471C143.947 35.2872 112.607 3.94714 73.9468 3.94714C35.2868 3.94714 3.94678 35.2872 3.94678 73.9471C3.94678 112.607 35.2868 143.947 73.9468 143.947Z" stroke="#1F4C45" stroke-width="7.89404" stroke-miterlimit="22.93"/>
<path d="M77.0468 109.437C76.6656 109.438 76.2961 109.305 76.0025 109.062C75.794 108.883 75.6339 108.655 75.5369 108.398C75.44 108.142 75.4093 107.865 75.4478 107.593L76.5899 99.2062C76.6335 98.9018 76.7574 98.6145 76.9489 98.374L100.69 70.1945C101.085 69.7307 101.567 69.3499 102.11 69.0739C102.652 68.7979 103.244 68.6324 103.851 68.5869C104.458 68.5413 105.069 68.6167 105.646 68.8087C106.224 69.0006 106.758 69.3052 107.217 69.705L109.501 71.6141C109.972 72.0015 110.361 72.4787 110.646 73.0178C110.931 73.557 111.106 74.1473 111.16 74.7546C111.215 75.3619 111.148 75.974 110.964 76.5553C110.781 77.1366 110.483 77.6756 110.089 78.1409L107.233 81.5675C106.945 81.8477 106.562 82.0113 106.16 82.0269C105.758 82.0425 105.365 81.9089 105.055 81.6519C104.745 81.3949 104.542 81.0326 104.483 80.6345C104.424 80.2364 104.515 79.8307 104.737 79.4952L107.609 76.0686C107.72 75.9331 107.803 75.7768 107.854 75.6087C107.904 75.4406 107.921 75.2641 107.902 75.0896C107.887 74.9074 107.836 74.73 107.752 74.5675C107.668 74.4051 107.553 74.2609 107.413 74.1432L105.096 72.1525C104.825 71.916 104.473 71.794 104.113 71.8123C103.754 71.8305 103.416 71.9876 103.17 72.2504L79.7391 100.104L79.0049 105.488L84.1284 103.857L101.751 82.9544C102.029 82.6279 102.425 82.4243 102.853 82.3877C103.28 82.351 103.705 82.4843 104.035 82.7586C104.362 83.0371 104.565 83.433 104.602 83.8606C104.639 84.2882 104.505 84.713 104.231 85.043L86.2823 106.255C86.0871 106.483 85.8331 106.652 85.548 106.745L77.5526 109.355C77.3887 109.406 77.2184 109.434 77.0468 109.437Z" fill="#1F4C45"/>
<path d="M105.944 82.0728C105.555 82.0729 105.179 81.934 104.883 81.6812L98.0302 75.8724C97.8176 75.7549 97.6339 75.5914 97.4925 75.3939C97.351 75.1964 97.2555 74.9698 97.2129 74.7306C97.1702 74.4915 97.1815 74.2458 97.2459 74.0116C97.3103 73.7773 97.4261 73.5604 97.585 73.3767C97.744 73.193 97.9419 73.047 98.1644 72.9495C98.3869 72.852 98.6284 72.8055 98.8712 72.8132C99.114 72.8209 99.352 72.8828 99.5678 72.9943C99.7837 73.1057 99.9719 73.264 100.119 73.4574L106.988 79.2826C107.312 79.5634 107.513 79.9605 107.546 80.388C107.58 80.8155 107.444 81.239 107.168 81.567C107.01 81.7322 106.82 81.8625 106.61 81.9496C106.399 82.0368 106.172 82.0787 105.944 82.0728Z" fill="#1F4C45"/>
<path d="M85.352 106.565C84.9652 106.569 84.5893 106.436 84.2914 106.189L77.4383 100.381C77.2345 100.259 77.0598 100.094 76.9263 99.8979C76.7928 99.7016 76.7036 99.4787 76.6652 99.2444C76.6267 99.0102 76.6397 98.7705 76.7034 98.5418C76.7672 98.3132 76.88 98.1012 77.034 97.9207C77.1881 97.7401 77.3797 97.5954 77.5955 97.4965C77.8112 97.3976 78.046 97.347 78.2833 97.3482C78.5207 97.3493 78.7549 97.4023 78.9697 97.5033C79.1844 97.6043 79.3746 97.7509 79.5269 97.933L86.3963 103.742C86.7228 104.02 86.9264 104.416 86.9631 104.844C86.9997 105.271 86.8665 105.696 86.5921 106.026C86.4359 106.199 86.2444 106.337 86.0305 106.43C85.8166 106.523 85.5852 106.569 85.352 106.565Z" fill="#1F4C45"/>
<path d="M58.4618 59.9472C55.7052 59.9472 53.0614 58.8521 51.1122 56.9029C49.1629 54.9536 48.0679 52.3099 48.0679 49.5532C48.0679 46.7966 49.1629 44.1529 51.1122 42.2036C53.0614 40.2544 55.7052 39.1593 58.4618 39.1593C59.7276 39.1635 60.9823 39.3956 62.1658 39.8446C62.5127 40.0299 62.781 40.3343 62.9213 40.7017C63.0616 41.069 63.0645 41.4748 62.9295 41.8441C62.7945 42.2135 62.5306 42.5217 62.1864 42.7119C61.8422 42.9022 61.4408 42.9617 61.0562 42.8796C59.6309 42.3217 58.0644 42.2351 56.5862 42.6324C55.1081 43.0297 53.7961 43.89 52.8424 45.0872C51.8888 46.2845 51.3438 47.7557 51.2872 49.2852C51.2306 50.8148 51.6655 52.3222 52.528 53.5867C53.3905 54.8511 54.6354 55.806 56.0802 56.3114C57.5249 56.8168 59.0935 56.8462 60.5562 56.3952C62.0188 55.9442 63.2986 55.0365 64.2078 53.8053C65.117 52.574 65.608 51.0838 65.6087 49.5532C65.6087 49.1205 65.7806 48.7055 66.0866 48.3995C66.3926 48.0935 66.8076 47.9215 67.2404 47.9215C67.6731 47.9215 68.0881 48.0935 68.3942 48.3995C68.7002 48.7055 68.8721 49.1205 68.8721 49.5532V49.6511C68.842 52.3923 67.7319 55.0109 65.7829 56.9386C63.8338 58.8662 61.2031 59.9473 58.4618 59.9472Z" fill="#1F4C45"/>
<path d="M58.3643 53.3715C58.1406 53.3708 57.9194 53.3241 57.7145 53.2342C57.5096 53.1444 57.3253 53.0134 57.1732 52.8494L54.4156 49.896C54.1891 49.5735 54.087 49.18 54.128 48.7881C54.1691 48.3962 54.3506 48.0324 54.639 47.7639C54.9274 47.4954 55.3032 47.3403 55.697 47.3273C56.0909 47.3143 56.4761 47.4443 56.7816 47.6932L58.4133 49.3249L64.5648 42.7981C64.7191 42.6427 64.9024 42.5193 65.1044 42.4348C65.3064 42.3503 65.5231 42.3064 65.742 42.3057C65.961 42.3049 66.1779 42.3473 66.3805 42.4304C66.583 42.5135 66.7673 42.6356 66.9226 42.7899C67.078 42.9442 67.2014 43.1276 67.2859 43.3295C67.3704 43.5315 67.4142 43.7482 67.415 43.9671C67.4158 44.1861 67.3734 44.403 67.2903 44.6056C67.2072 44.8082 67.085 44.9924 66.9308 45.1477L59.5881 52.8657C59.4308 53.0308 59.2406 53.1612 59.0298 53.2483C58.819 53.3354 58.5923 53.3774 58.3643 53.3715Z" fill="#1F4C45"/>
<path d="M58.4612 84.651C55.7175 84.651 53.0863 83.5611 51.1462 81.621C49.2061 79.6809 48.1162 77.0497 48.1162 74.306C48.1162 71.5623 49.2061 68.931 51.1462 66.991C53.0863 65.0509 55.7175 63.961 58.4612 63.961C59.7205 63.9213 60.9763 64.1149 62.1652 64.5321C62.3935 64.5809 62.6088 64.6781 62.7964 64.8172C62.9839 64.9563 63.1395 65.1341 63.2524 65.3385C63.3654 65.5428 63.4332 65.7691 63.4512 66.0019C63.4692 66.2348 63.4371 66.4688 63.3569 66.6881C63.2767 66.9074 63.1504 67.107 62.9864 67.2733C62.8225 67.4396 62.6248 67.5688 62.4066 67.6521C62.1884 67.7354 61.9549 67.771 61.7219 67.7563C61.4888 67.7416 61.2616 67.6771 61.0556 67.5671C60.2201 67.2884 59.3415 67.1613 58.4612 67.1918C56.6355 67.2793 54.9134 68.0662 53.6523 69.3892C52.3911 70.7123 51.6876 72.47 51.6876 74.2978C51.6876 76.1257 52.3911 77.8834 53.6523 79.2064C54.9134 80.5295 56.6355 81.3164 58.4612 81.4039C60.3553 81.3996 62.1707 80.6452 63.51 79.3059C64.8494 77.9665 65.6037 76.1512 65.6081 74.257C65.6081 73.8243 65.78 73.4093 66.086 73.1033C66.392 72.7973 66.807 72.6253 67.2398 72.6253C67.6725 72.6253 68.0875 72.7973 68.3935 73.1033C68.6995 73.4093 68.8715 73.8243 68.8715 74.257V74.3549C68.8414 77.0961 67.7313 79.7147 65.7823 81.6424C63.8332 83.5701 61.2025 84.6511 58.4612 84.651Z" fill="#1F4C45"/>
<path d="M58.3639 78.0587C58.1452 78.06 57.9286 78.0173 57.7268 77.9332C57.5249 77.8491 57.3421 77.7253 57.189 77.5692L54.4315 74.7137C54.2543 74.5674 54.11 74.3853 54.0081 74.1793C53.9062 73.9734 53.849 73.7482 53.8401 73.5186C53.8312 73.289 53.8709 73.0601 53.9567 72.8469C54.0424 72.6337 54.1721 72.4411 54.3375 72.2815C54.5028 72.1219 54.7 71.9991 54.9161 71.921C55.1322 71.8429 55.3624 71.8114 55.5915 71.8284C55.8207 71.8455 56.0436 71.9107 56.2458 72.0199C56.448 72.129 56.6249 72.2797 56.7648 72.4619L58.3965 74.0936L64.5643 67.6811C64.8629 67.3673 65.2739 67.185 65.7069 67.1743C66.1399 67.1636 66.5594 67.3254 66.8732 67.624C67.1869 67.9226 67.3692 68.3336 67.3799 68.7666C67.3906 69.1995 67.2289 69.6191 66.9303 69.9328L59.5876 77.5692C59.4346 77.7253 59.2517 77.8491 59.0499 77.9332C58.8481 78.0173 58.6315 78.06 58.4128 78.0587H58.3639Z" fill="#1F4C45"/>
<path d="M58.4618 109.436C55.7052 109.436 53.0614 108.341 51.1122 106.392C49.1629 104.443 48.0679 101.799 48.0679 99.0425C48.0679 96.2859 49.1629 93.6421 51.1122 91.6929C53.0614 89.7436 55.7052 88.6486 58.4618 88.6486C59.7258 88.6564 60.9789 88.8827 62.1658 89.3176C62.5298 89.4933 62.8157 89.798 62.9679 90.1725C63.1201 90.547 63.1279 90.9647 62.9898 91.3446C62.8516 91.7245 62.5774 92.0396 62.2201 92.2288C61.8629 92.4181 61.4481 92.468 61.0562 92.3688C59.6309 91.811 58.0644 91.7244 56.5862 92.1216C55.1081 92.5189 53.7961 93.3792 52.8424 94.5765C51.8888 95.7737 51.3438 97.2449 51.2872 98.7745C51.2306 100.304 51.6655 101.811 52.528 103.076C53.3905 104.34 54.6354 105.295 56.0802 105.801C57.5249 106.306 59.0935 106.335 60.5562 105.884C62.0188 105.433 63.2986 104.526 64.2078 103.295C65.117 102.063 65.608 100.573 65.6087 99.0425C65.6087 98.6097 65.7806 98.1947 66.0866 97.8887C66.3926 97.5827 66.8076 97.4108 67.2404 97.4108C67.654 97.4098 68.0527 97.5659 68.3556 97.8476C68.6585 98.1294 68.8431 98.5156 68.8721 98.9283V99.1241C68.8463 101.868 67.7381 104.491 65.7886 106.422C63.8391 108.353 61.2059 109.437 58.4618 109.436Z" fill="#1F4C45"/>
<path d="M58.3646 102.828C58.1377 102.836 57.9118 102.797 57.701 102.712C57.4903 102.628 57.2995 102.501 57.1408 102.338L54.3832 99.385C54.142 99.0636 54.0279 98.6645 54.0628 98.2642C54.0976 97.8639 54.279 97.4905 54.5721 97.2156C54.8652 96.9407 55.2494 96.7836 55.6511 96.7744C56.0529 96.7653 56.4438 96.9047 56.7492 97.1659L58.3809 98.7976L64.5324 92.2708C64.6899 92.1133 64.8769 91.9884 65.0826 91.9032C65.2884 91.8179 65.509 91.774 65.7317 91.774C65.9544 91.774 66.175 91.8179 66.3808 91.9032C66.5865 91.9884 66.7735 92.1133 66.931 92.2708C67.0885 92.4283 67.2134 92.6153 67.2986 92.8211C67.3839 93.0268 67.4278 93.2474 67.4278 93.4701C67.4278 93.6928 67.3839 93.9134 67.2986 94.1192C67.2134 94.325 67.0885 94.5119 66.931 94.6694L59.5883 102.404C59.4241 102.554 59.2308 102.669 59.0203 102.742C58.8099 102.815 58.5867 102.844 58.3646 102.828Z" fill="#1F4C45"/>
<path d="M98.9773 116.306H49.5041C47.2292 116.302 45.0486 115.396 43.44 113.788C41.8313 112.179 40.9257 109.998 40.9214 107.723V40.8237C40.9257 38.5488 41.8313 36.3682 43.44 34.7596C45.0486 33.1509 47.2292 32.2453 49.5041 32.241H98.9773C101.252 32.2453 103.433 33.1509 105.041 34.7596C106.65 36.3682 107.556 38.5488 107.56 40.8237V64.6466C107.56 65.0793 107.388 65.4943 107.082 65.8004C106.776 66.1064 106.361 66.2783 105.928 66.2783C105.496 66.2783 105.081 66.1064 104.775 65.8004C104.469 65.4943 104.297 65.0793 104.297 64.6466V40.8237C104.297 39.4071 103.735 38.0483 102.735 37.0451C101.735 36.0418 100.378 35.4761 98.961 35.4717H49.5041C48.7958 35.4631 48.0929 35.5952 47.436 35.8602C46.7791 36.1253 46.1814 36.5182 45.6775 37.016C45.1735 37.5139 44.7735 38.1068 44.5004 38.7604C44.2274 39.414 44.0868 40.1154 44.0869 40.8237V107.723C44.0912 109.14 44.657 110.497 45.6602 111.497C46.6634 112.498 48.0223 113.059 49.4389 113.059H98.9773C100.391 113.055 101.746 112.491 102.745 111.492C103.745 110.492 104.309 109.137 104.313 107.723V89.7748C104.313 89.342 104.485 88.927 104.791 88.621C105.097 88.315 105.512 88.1431 105.945 88.1431C106.377 88.1431 106.792 88.315 107.098 88.621C107.404 88.927 107.576 89.342 107.576 89.7748V107.723C107.572 110.001 106.664 112.184 105.052 113.793C103.44 115.403 101.255 116.306 98.9773 116.306Z" fill="#1F4C45"/>
<path d="M98.6999 47.7422H74.8607C74.428 47.7422 74.0129 47.5703 73.7069 47.2643C73.4009 46.9582 73.229 46.5432 73.229 46.1105C73.229 45.6777 73.4009 45.2627 73.7069 44.9567C74.0129 44.6507 74.428 44.4788 74.8607 44.4788H98.6999C99.1326 44.4788 99.5476 44.6507 99.8536 44.9567C100.16 45.2627 100.332 45.6777 100.332 46.1105C100.332 46.5432 100.16 46.9582 99.8536 47.2643C99.5476 47.5703 99.1326 47.7422 98.6999 47.7422Z" fill="#1F4C45"/>
<path d="M86.7721 54.6115H74.8607C74.428 54.6115 74.0129 54.4396 73.7069 54.1336C73.4009 53.8276 73.229 53.4126 73.229 52.9798C73.229 52.5471 73.4009 52.1321 73.7069 51.8261C74.0129 51.5201 74.428 51.3481 74.8607 51.3481H86.7721C87.2049 51.3481 87.6199 51.5201 87.9259 51.8261C88.2319 52.1321 88.4038 52.5471 88.4038 52.9798C88.4038 53.4126 88.2319 53.8276 87.9259 54.1336C87.6199 54.4396 87.2049 54.6115 86.7721 54.6115Z" fill="#1F4C45"/>
<path d="M94.8817 72.5276H74.8607C74.428 72.5276 74.0129 72.3557 73.7069 72.0497C73.4009 71.7436 73.229 71.3286 73.229 70.8959C73.229 70.4631 73.4009 70.0481 73.7069 69.7421C74.0129 69.4361 74.428 69.2642 74.8607 69.2642H94.8817C95.3144 69.2642 95.7295 69.4361 96.0355 69.7421C96.3415 70.0481 96.5134 70.4631 96.5134 70.8959C96.5134 71.3286 96.3415 71.7436 96.0355 72.0497C95.7295 72.3557 95.3144 72.5276 94.8817 72.5276Z" fill="#1F4C45"/>
<path d="M86.7721 79.299H74.8607C74.428 79.299 74.0129 79.1271 73.7069 78.8211C73.4009 78.5151 73.229 78.1001 73.229 77.6673C73.229 77.2346 73.4009 76.8196 73.7069 76.5136C74.0129 76.2076 74.428 76.0356 74.8607 76.0356H86.7721C87.2049 76.0356 87.6199 76.2076 87.9259 76.5136C88.2319 76.8196 88.4038 77.2346 88.4038 77.6673C88.4038 78.1001 88.2319 78.5151 87.9259 78.8211C87.6199 79.1271 87.2049 79.299 86.7721 79.299Z" fill="#1F4C45"/>
</svg>
