<svg width="96" height="96" viewBox="0 0 96 96" fill="none" xmlns="http://www.w3.org/2000/svg">
<g clip-path="url(#clip0)">
<path d="M95.0865 47.2282C94.4421 46.6815 93.5094 46.6392 92.8179 47.1254C91.337 48.1664 86.8307 51.335 77.245 41.7489C76.1887 40.6928 75.0204 39.8327 73.7525 39.1679C77.7769 33.2967 79.9339 26.1587 80.005 18.4128C80.0141 17.4147 79.2325 16.5881 78.2354 16.5413C70.2655 16.1681 63.0997 18.3638 57.3909 22.9024C56.7132 21.5579 55.8193 20.3232 54.7086 19.2123C53.9837 18.4874 52.8082 18.4874 52.083 19.2123C51.3581 19.9373 51.3581 21.1128 52.083 21.8379C58.7385 28.4932 53.025 39.3374 51.4671 41.9825C50.524 41.3619 49.4965 40.8937 48.4149 40.5875C51.576 36.7221 51.9518 30.8739 48.9568 26.1651C48.4064 25.3 47.2589 25.0447 46.394 25.5951C45.5289 26.1454 45.2736 27.2928 45.8239 28.1579C47.5671 30.8986 47.7223 34.1618 46.5059 36.712C46.0238 34.7786 45.0302 32.9752 43.585 31.53C43.0424 30.9873 42.4528 30.5089 41.8266 30.0957C43.1519 26.1355 42.1451 21.687 39.1442 18.6858C38.4144 17.9561 37.6067 17.3522 36.7489 16.8678C37.632 13.7544 40.1576 9.92067 44.3222 6.83342C44.25 7.7672 44.3038 8.7255 44.4846 9.70607C44.6705 10.7143 45.638 11.3809 46.6468 11.1953C47.6551 11.0095 48.3219 10.0415 48.1361 9.03311C47.7733 7.06454 48.1645 5.30019 49.3322 3.63942C49.8184 2.94789 49.776 2.0154 49.2293 1.37085C48.6826 0.726294 47.7694 0.532111 47.0077 0.899314C39.3132 4.60681 34.763 10.6194 33.2513 15.6095C29.7846 14.9887 26.0786 16.0124 23.4048 18.686C20.216 21.875 19.3737 26.5326 20.8717 30.5008C18.5242 30.8412 16.3124 31.9222 14.5971 33.6374C12.4949 35.7395 11.3372 38.5343 11.3372 41.5072C11.3372 43.1693 11.6998 44.7755 12.3863 46.2365C10.4882 46.7316 8.73187 47.7207 7.32321 49.1294C5.22098 51.2314 4.0633 54.0263 4.0633 56.9992C4.0633 58.7786 4.481 60.4928 5.26479 62.0342C4.80124 62.3726 4.362 62.7456 3.95266 63.1551C1.85006 65.2568 0.692383 68.0517 0.692383 71.0246C0.692383 73.9975 1.85006 76.7922 3.9521 78.8944C4.04344 78.9857 4.13756 79.0722 4.23112 79.1597C3.75495 82.5889 4.90891 86.1111 7.37927 88.5815C9.4841 90.6861 12.3517 91.8362 15.2754 91.836C15.7835 91.836 16.2931 91.8 16.8009 91.7294C16.8883 91.823 16.975 91.9173 17.0662 92.0086C19.236 94.1784 22.086 95.2631 24.936 95.2631C27.786 95.2631 30.6362 94.1781 32.8058 92.0084C33.2162 91.598 33.5901 91.1576 33.9291 90.6928C35.5058 91.4909 37.2334 91.8924 38.9617 91.8924C41.8117 91.8924 44.6619 90.8075 46.8315 88.6381C48.2402 87.2294 49.2291 85.4729 49.7242 83.5748C51.1853 84.2613 52.7914 84.6239 54.4535 84.6239C57.4264 84.6239 60.2211 83.4662 62.3233 81.364C63.9423 79.7452 64.9977 77.6773 65.397 75.4715C66.8846 76.1641 68.4947 76.5109 70.1053 76.5109C72.955 76.5109 75.8057 75.4258 77.9751 73.2566C80.7126 70.5189 81.7212 66.6985 81.0047 63.1613C83.3068 62.445 85.6877 61.1303 87.8828 59.3402C91.0188 56.7824 93.6728 53.3624 95.558 49.4502C95.9248 48.6883 95.731 47.7751 95.0865 47.2282ZM58.6676 26.675C63.4647 22.4262 69.3653 20.2556 76.234 20.2126C75.8673 26.9203 73.8128 32.8451 70.1239 37.8597C67.28 37.2435 64.0819 37.4017 60.6106 38.355C60.5699 38.3661 60.5302 38.378 60.4897 38.3893L65.0369 33.8422C65.7618 33.1172 65.7618 31.9417 65.0369 31.2166C64.3119 30.4915 63.1364 30.4917 62.4113 31.2166L58.2161 35.4118C59.0304 32.2456 59.1767 29.3121 58.6676 26.675ZM45.3674 43.8771C47.3484 43.8771 49.2109 44.6487 50.6116 46.0495C52.0123 47.4502 52.7838 49.3128 52.7838 51.2938C52.7838 53.2748 52.0123 55.1372 50.6116 56.538C47.7746 59.3758 43.1924 59.4272 40.2893 56.696C40.2835 56.6903 40.2774 56.6849 40.2714 56.6791C40.2219 56.6322 40.1716 56.5865 40.1229 56.538C37.2312 53.6465 37.2312 48.9411 40.1229 46.0494C41.5236 44.6487 43.3862 43.8771 45.3674 43.8771ZM40.9593 34.1557C42.5996 35.7955 43.3663 38.1279 43.0598 40.4047C40.9674 40.8437 39.0443 41.877 37.4974 43.4242C36.4967 44.4248 35.7299 45.571 35.1907 46.7942C33.4216 46.6676 31.7341 45.9077 30.4706 44.644C30.0798 44.2533 29.7397 43.8252 29.4499 43.37C29.4371 43.3488 29.4239 43.3282 29.4104 43.3078C28.6869 42.1456 28.2982 40.8029 28.2982 39.4C28.2982 37.419 29.0697 35.5564 30.4706 34.1555C31.8713 32.7549 33.7338 31.9833 35.7148 31.9833C37.6958 31.9833 39.5584 32.7549 40.9593 34.1557ZM31.7961 74.653C31.1133 75.3358 30.3202 75.8678 29.4577 76.2352C29.4254 76.2477 29.3938 76.2616 29.3623 76.2759C28.4821 76.6362 27.5316 76.8256 26.5518 76.8256C24.6415 76.8256 22.8428 76.1062 21.4605 74.7989C21.3569 74.7029 21.2571 74.6036 21.1613 74.4996C19.8542 73.1175 19.1352 71.3188 19.1352 69.4087C19.1352 68.4272 19.3251 67.4753 19.6865 66.5936C19.6995 66.5647 19.7123 66.5359 19.7238 66.5062C20.0912 65.6424 20.6238 64.848 21.3076 64.1643C21.8819 63.5899 22.531 63.1245 23.2429 62.7703C25.0936 63.9913 27.2311 64.6017 29.3693 64.6013C30.1078 64.6013 30.8459 64.5269 31.5725 64.3811C31.4283 65.1011 31.3539 65.8403 31.3539 66.5912C31.3539 68.8032 31.9958 70.916 33.1897 72.7188C32.8355 73.4301 32.3703 74.079 31.7961 74.653ZM24.1247 58.7214C22.724 57.3205 21.9525 55.4582 21.9525 53.4772C21.9525 52.6945 22.0748 51.9309 22.3069 51.2064C22.3197 51.1703 22.3323 51.134 22.3431 51.0968C22.7034 50.0303 23.3055 49.0521 24.1249 48.2329C24.9629 47.3949 25.9704 46.7806 27.0807 46.4231C27.3198 46.7156 27.5743 46.9986 27.8454 47.2694C29.5873 49.0111 31.8623 50.1133 34.2792 50.4298C34.1027 52.7177 34.6279 55.0488 35.8563 57.0712C35.523 57.6731 35.1085 58.2265 34.6136 58.7214C31.7218 61.6128 27.0167 61.6132 24.1247 58.7214ZM26.0298 21.3112C28.9216 18.4194 33.6269 18.4194 36.5185 21.3112C38.4384 23.2311 39.1333 26.0397 38.4048 28.5961C37.5352 28.3813 36.6338 28.2701 35.715 28.2701C32.7423 28.2701 29.9474 29.4277 27.8454 31.5298C27.5168 31.8584 27.2142 32.2057 26.9326 32.5662C26.6131 32.3353 26.3105 32.0804 26.03 31.7999C23.1382 28.9083 23.1382 24.203 26.0298 21.3112ZM17.2221 36.2626C18.7767 34.708 20.9441 33.9346 23.1202 34.126C23.2136 34.2266 23.3068 34.3273 23.4046 34.4253C23.9418 34.9625 24.5313 35.44 25.1626 35.8551C24.785 36.9829 24.5857 38.1757 24.5857 39.3998C24.5857 40.6969 24.8062 41.9598 25.2293 43.1465C23.8416 43.7004 22.577 44.5302 21.4995 45.6075C20.6925 46.4145 20.0263 47.3242 19.5098 48.3062C18.6616 47.9381 17.8856 47.4148 17.2221 46.7515C17.1373 46.6666 17.0548 46.5797 16.9746 46.4916C16.9706 46.4869 16.9663 46.4825 16.9622 46.478C15.7264 45.1128 15.0499 43.362 15.0499 41.5072C15.0497 39.5258 15.8212 37.6635 17.2221 36.2626ZM9.94821 51.7546C11.2498 50.453 12.9963 49.6887 14.8249 49.5966C15.8558 50.5709 17.0528 51.3322 18.3579 51.8494C18.2801 52.3837 18.24 52.9275 18.24 53.4772C18.24 55.9005 19.0097 58.2053 20.4328 60.1134C19.8085 60.5253 19.2222 60.9989 18.6824 61.5389C17.8696 62.3517 17.1998 63.2689 16.6817 64.2592C14.2499 64.7591 11.728 64.0225 9.94839 62.2431C9.72711 62.0216 9.52327 61.7875 9.33391 61.5445C9.32296 61.5296 9.31126 61.5155 9.29976 61.5009C8.3125 60.214 7.77599 58.6479 7.77599 56.9988C7.77581 55.0178 8.54734 53.1554 9.94821 51.7546ZM10.0048 85.9559C8.75693 84.708 8.0216 83.1105 7.8638 81.4227C9.13602 81.9048 10.4786 82.1489 11.8221 82.1489C12.5634 82.1489 13.3045 82.0737 14.0339 81.9271C13.621 83.9782 13.7901 86.1228 14.5383 88.0969C12.85 87.9391 11.2525 87.2038 10.0048 85.9559ZM17.0665 76.2688C14.4308 78.905 10.2891 79.137 7.38651 76.9676C7.38094 76.9633 7.37537 76.9589 7.36962 76.9546C7.09394 76.7472 6.82865 76.5196 6.57785 76.2688C5.17679 74.868 4.40526 73.0056 4.40526 71.0246C4.40526 69.0436 5.17679 67.1812 6.57766 65.7801C6.8578 65.5 7.15873 65.2451 7.47673 65.0149C9.58249 67.0427 12.3428 68.1308 15.1778 68.1308C15.2845 68.1308 15.3915 68.1278 15.4984 68.1246C15.4501 68.5481 15.4227 68.9762 15.4227 69.4087C15.4227 71.7439 16.1398 73.9676 17.4649 75.8335C17.3372 75.9829 17.2058 76.1294 17.0665 76.2688ZM30.1802 89.3829C27.2888 92.275 22.5835 92.2752 19.6917 89.3829C19.4409 89.1321 19.2133 88.8668 19.0061 88.5911C19.0019 88.5854 18.9974 88.5798 18.993 88.5742C16.8239 85.6717 17.056 81.5302 19.6917 78.8942C19.8311 78.7548 19.9776 78.6233 20.1271 78.4958C21.9931 79.8211 24.2168 80.5383 26.5518 80.5383C26.984 80.5383 27.4119 80.511 27.835 80.4625C27.75 83.4089 28.8402 86.3003 30.9445 88.4851C30.7145 88.8026 30.4602 89.1029 30.1802 89.3829ZM44.206 86.0121C41.5435 88.6748 37.3442 88.8837 34.438 86.643C34.4339 86.64 34.43 86.6367 34.4259 86.6337C34.1803 86.4434 33.9427 86.2377 33.7173 86.0123C31.9379 84.2329 31.2011 81.7112 31.7012 79.279C32.6914 78.7609 33.6085 78.0911 34.4214 77.2784C34.9615 76.7383 35.4351 76.1521 35.847 75.5277C37.755 76.9509 40.0598 77.7206 42.4832 77.7206C43.0329 77.7206 43.5765 77.6805 44.1109 77.6027C44.6283 78.9079 45.3896 80.1051 46.3641 81.136C46.2728 82.9637 45.5073 84.7108 44.206 86.0121ZM44.8507 73.6217C44.8206 73.6306 44.7911 73.6407 44.7618 73.6511C44.035 73.8848 43.2688 74.0079 42.4834 74.0079C40.5024 74.0079 38.6398 73.2363 37.239 71.8355C35.8383 70.4346 35.0667 68.5722 35.0667 66.5912C35.0667 64.6102 35.8383 62.7478 37.2391 61.347C37.6832 60.9027 38.174 60.522 38.705 60.2075C40.6724 61.68 43.0193 62.4181 45.3674 62.4181C45.6544 62.4181 45.9414 62.404 46.2278 62.3821C46.5404 64.7977 47.6376 67.0616 49.3918 68.8158C49.433 68.857 49.476 68.8951 49.5176 68.9355C49.1567 70.0234 48.5504 71.0133 47.7278 71.8358C46.9051 72.6584 45.9224 73.262 44.8507 73.6217ZM59.6979 78.7384C58.2971 80.1393 56.4347 80.9109 54.4535 80.9109C52.4723 80.9109 50.6099 80.1393 49.2091 78.7384C48.5458 78.0751 48.0224 77.299 47.6543 76.4508C48.6364 75.9343 49.546 75.2678 50.353 74.4608C51.3373 73.4766 52.1174 72.3328 52.668 71.0816C54.1236 71.7391 55.6921 72.0699 57.2612 72.0699C58.4588 72.0699 59.6556 71.8759 60.8027 71.4928C61.1118 71.9637 61.4556 72.4111 61.8343 72.8316C62.0282 75.01 61.2518 77.1848 59.6979 78.7384ZM52.7671 66.8439C52.7664 66.8431 52.7655 66.8426 52.7647 66.842C52.505 66.6436 52.2542 66.4277 52.0169 66.1904C50.7443 64.9178 49.9912 63.2418 49.8666 61.4704C51.0898 60.9313 52.2362 60.1644 53.2368 59.1638C54.7841 57.6165 55.8176 55.693 56.2565 53.6002C58.5347 53.2889 60.8501 54.0463 62.5056 55.7019C63.9065 57.1024 64.6778 58.9648 64.6778 60.946C64.6778 62.927 63.9063 64.7894 62.5054 66.1902C59.852 68.8436 55.6723 69.0603 52.7671 66.8439ZM75.3498 70.631C72.4736 73.507 67.8045 73.5213 64.9092 70.6767C64.9088 70.6763 64.9086 70.6759 64.9082 70.6756C64.8919 70.6594 64.8744 70.6429 64.8561 70.6256C64.5769 70.3459 64.3231 70.0453 64.0938 69.7279C64.4532 69.4479 64.8009 69.1459 65.131 68.8156C67.2332 66.7136 68.3909 63.9187 68.3909 60.9458C68.3909 60.0265 68.2795 59.1244 68.0645 58.2543C70.6212 57.5192 73.4137 58.2059 75.3498 60.142C78.2413 63.0341 78.2413 67.7394 75.3498 70.631ZM79.6671 59.6908C79.2052 58.9152 78.6418 58.1836 77.975 57.5168C74.949 54.491 70.5282 53.4992 66.5651 54.8344C66.152 54.2082 65.6736 53.6186 65.1308 53.076C63.1162 51.0616 60.4511 49.9315 57.6932 49.8246C59.1156 49.0174 60.7036 48.6033 62.3111 48.6406C64.502 48.6931 66.4669 49.5842 67.8434 51.1494C68.2105 51.5665 68.723 51.7798 69.2382 51.7798C69.6737 51.7798 70.1109 51.6276 70.4636 51.3174C71.2335 50.6403 71.3087 49.4672 70.6314 48.6974C68.5624 46.3451 65.6391 45.0068 62.4002 44.929C59.9914 44.8709 57.6241 45.5195 55.5431 46.7797C55.2616 46.1457 54.92 45.5379 54.5209 44.9633C57.2437 43.3676 68.0022 37.7572 74.6194 44.3745C80.1351 49.8901 85.1618 52.4875 89.6332 52.142C86.5834 56.2869 82.8236 58.7903 79.6671 59.6908Z" fill="#FF7070"/>
<path d="M50.2155 13.8262L50.1858 13.7803C49.6313 12.9178 48.4827 12.6681 47.6204 13.2226C46.7579 13.777 46.5082 14.9255 47.0627 15.788L47.1021 15.8489C47.4578 16.3964 48.0529 16.6942 48.6606 16.6942C49.0072 16.6942 49.358 16.5973 49.6703 16.3942C50.53 15.8356 50.7741 14.6857 50.2155 13.8262Z" fill="#FF7070"/>
<path d="M69.7075 26.5452C69.3622 26.1999 68.8833 26.0012 68.395 26.0012C67.9068 26.0012 67.4278 26.1999 67.0825 26.5452C66.7372 26.8905 66.5386 27.3694 66.5386 27.8577C66.5386 28.3459 66.7372 28.8249 67.0825 29.1702C67.4278 29.5156 67.9068 29.7141 68.395 29.7141C68.8833 29.7141 69.3622 29.5155 69.7075 29.1702C70.0528 28.8249 70.2514 28.3459 70.2514 27.8577C70.2514 27.3694 70.0528 26.8905 69.7075 26.5452Z" fill="#FF7070"/>
</g>
<defs>
<clipPath id="clip0">
<rect width="95.0496" height="95.0496" fill="white" transform="translate(0.692383 0.463867)"/>
</clipPath>
</defs>
</svg>
