<svg width="174" height="174" viewBox="0 0 174 174" fill="none" xmlns="http://www.w3.org/2000/svg">
<g clip-path="url(#clip0)">
<path d="M106.275 103.004C105.914 102.726 97.2298 96.6033 87.6689 98.7321C85.9511 99.1139 84.3564 99.8094 82.8247 100.66L91.333 87.2835C99.8446 92.6974 111.177 90.1766 116.59 81.665L128.876 62.3504C129.614 61.1894 130.809 60.3523 132.151 60.0538L136.196 59.154C137.296 58.9094 138.114 57.9898 138.229 56.8712C138.343 55.7549 137.74 54.6725 136.706 54.2202L129.829 51.1117L131.818 47.9837C132.594 46.7647 132.235 45.1508 131.016 44.3754C126.841 41.7201 122.33 39.8218 117.909 38.7931C115.445 35.4841 112.454 32.5695 108.962 30.3478C107.742 29.5724 106.129 29.9314 105.353 31.1505L103.364 34.2783L97.6327 29.3677C96.7834 28.6248 95.5486 28.5352 94.5859 29.1118C93.6219 29.6905 93.1356 30.8213 93.3802 31.9206L94.2803 35.9656C94.579 37.3081 94.3273 38.7453 93.589 39.906L81.3037 59.2207C75.8899 67.7322 78.4107 79.0642 86.9222 84.478L51.8529 139.613C51.0775 140.832 51.4365 142.446 52.6556 143.222C53.8746 143.997 55.4885 143.638 56.2639 142.419L74.5286 113.704C75.0348 114.066 75.5392 114.409 76.0464 114.732C81.4372 118.161 86.7932 119.314 91.9905 118.158C101.549 116.033 106.812 106.794 107.031 106.401C107.681 105.241 107.356 103.779 106.275 103.004ZM125.959 47.4546L124.951 49.0398C124.31 48.799 123.673 48.546 123.016 48.3479L122.517 47.0259C122.322 46.5099 122.031 46.0394 121.811 45.5341C123.205 46.0995 124.599 46.7057 125.959 47.4546ZM124.687 54.5255L128.117 56.0754C126.646 56.9148 125.38 58.1061 124.465 59.5448L112.179 78.8594C117.333 70.7568 118.382 61.0633 115.893 52.3001C119 52.5515 121.95 53.285 124.687 54.5255ZM108.296 36.2646C111.989 39.1231 114.903 42.9072 116.84 47.1579C115.867 47.0638 114.878 47.0268 113.88 47.0163C112.261 43.6528 110.044 40.572 107.272 37.8738L108.296 36.2646ZM89.7277 80.067C83.6478 76.1998 81.8473 68.1061 85.7145 62.0262L97.9997 42.7115C98.9148 41.2729 99.4571 39.6213 99.5936 37.9323L102.452 40.3824C112.786 49.2366 115.071 64.5721 107.768 76.0538C103.901 82.1338 95.8078 83.9343 89.7277 80.067ZM90.8553 113.055C87.2717 113.853 83.4725 113.073 79.5284 110.736C82.1034 106.959 85.2031 104.645 88.7724 103.841C93.5812 102.759 98.3414 104.591 101.022 105.961C99.1913 108.33 95.6861 111.981 90.8553 113.055Z" fill="#FF7D7D" fill-opacity="0.94"/>
</g>
<defs>
<clipPath id="clip0">
<rect width="125.459" height="125.459" fill="white" transform="translate(67.333 0.000976562) rotate(32.4588)"/>
</clipPath>
</defs>
</svg>
