<svg width="148" height="148" viewBox="0 0 148 148" fill="none" xmlns="http://www.w3.org/2000/svg">
<path fill-rule="evenodd" clip-rule="evenodd" d="M74.3355 105.467C81.7361 99.662 108.28 77.9862 108.74 65.9972C108.74 65.29 108.74 64.6157 108.74 63.9414C108.726 61.6265 108.231 59.3397 107.289 57.2253C106.346 55.1109 104.976 53.2148 103.264 51.6563C100.281 49.0834 96.5105 47.6041 92.574 47.4626H91.2254C83.2656 47.808 77.6576 53.6134 76.6872 54.6166L76.605 54.7153C76.0242 55.3158 75.2289 55.6617 74.3936 55.6771C73.5582 55.6925 72.7508 55.3762 72.1482 54.7975L71.9837 54.633C71.1121 53.7285 65.4053 47.808 57.4291 47.4626H56.0805C52.1483 47.6012 48.3819 49.0811 45.4071 51.6563C43.6953 53.2148 42.3248 55.1109 41.3823 57.2253C40.4397 59.3397 39.9454 61.6265 39.9306 63.9414C39.9306 64.6157 39.9306 65.29 39.9306 65.9972C40.3911 78.0685 66.9513 99.7442 74.3519 105.467H74.3355ZM115.023 66.1452C114.398 82.8214 77.8056 110.763 76.2761 111.914C75.7255 112.341 75.0486 112.572 74.3519 112.572C73.6553 112.572 72.9784 112.341 72.4277 111.914C72.362 111.832 34.2732 83.1503 33.6318 66.1452C33.6318 65.2571 33.6318 64.4019 33.6318 63.5796C33.6724 60.4154 34.3685 57.294 35.6763 54.4124C36.9841 51.5308 38.875 48.9516 41.2298 46.8377C45.3323 43.3159 50.5124 41.2972 55.916 41.1145C56.541 41.1145 57.1495 41.1145 57.758 41.1145C63.9158 41.5802 69.7508 44.0529 74.3684 48.1534C78.9709 44.0394 84.8056 41.5645 90.9623 41.1145C91.5544 41.1145 92.1793 41.1145 92.8042 41.1145C98.1899 41.3173 103.346 43.3474 107.425 46.8706C109.779 48.9845 111.67 51.5637 112.978 54.4453C114.286 57.3269 114.982 60.4483 115.023 63.6125C115.088 64.4129 115.088 65.2571 115.023 66.1452Z" fill="#1F4C45"/>
<path fill-rule="evenodd" clip-rule="evenodd" d="M49.338 60.6812C49.3098 61.0359 49.1673 61.372 48.932 61.6389C48.6966 61.9058 48.381 62.0891 48.0326 62.1614C47.6841 62.2337 47.3217 62.191 46.9995 62.0398C46.6774 61.8885 46.4131 61.6369 46.2461 61.3226C46.2461 60.9937 46.131 60.6648 46.0981 60.3523C46.0652 60.0398 46.0981 59.6616 46.0981 59.3655C46.1024 56.7919 47.1256 54.3247 48.9439 52.5034C50.7621 50.682 53.2276 49.6547 55.8012 49.646C56.2252 49.648 56.6484 49.681 57.0675 49.7447C57.4905 49.7904 57.9088 49.873 58.3174 49.9914C58.5755 49.9749 58.8338 50.0196 59.0713 50.1217C59.3089 50.2238 59.519 50.3805 59.6847 50.5791C59.8503 50.7776 59.9668 51.0124 60.0247 51.2644C60.0826 51.5164 60.0803 51.7785 60.0179 52.0295C59.9555 52.2804 59.8348 52.5131 59.6656 52.7086C59.4964 52.9042 59.2835 53.0571 59.0442 53.1549C58.8048 53.2528 58.5458 53.2928 58.2881 53.2718C58.0304 53.2507 57.7812 53.1692 57.5609 53.0339C57.2858 52.9584 57.0054 52.9035 56.7222 52.8694C56.4322 52.8431 56.1405 52.8431 55.8505 52.8694C54.111 52.8724 52.4435 53.5642 51.2128 54.7936C50.0175 56.016 49.345 57.6558 49.338 59.3655C49.338 59.6122 49.338 59.826 49.338 60.0234C49.338 60.2536 49.338 60.4674 49.338 60.6812Z" fill="#1F4C45"/>
<path d="M73.9463 143.947C112.606 143.947 143.946 112.607 143.946 73.9468C143.946 35.2868 112.606 3.94678 73.9463 3.94678C35.2864 3.94678 3.94629 35.2868 3.94629 73.9468C3.94629 112.607 35.2864 143.947 73.9463 143.947Z" stroke="#1F4C45" stroke-width="7.89404" stroke-miterlimit="22.93"/>
</svg>
