<svg width="83" height="83" viewBox="0 0 83 83" fill="none" xmlns="http://www.w3.org/2000/svg">
<g clip-path="url(#clip0)">
<path d="M69.7438 15.9684H69.202L69.5585 15.612C71.2278 13.9428 72.147 11.7235 72.147 9.3629C72.147 7.00247 71.2277 4.78316 69.5586 3.11411C67.8896 1.44506 65.6703 0.525879 63.3097 0.525879C60.9492 0.525879 58.7298 1.44506 57.0606 3.11427L44.2067 15.9684H13.1212C8.95791 15.9684 5.5708 19.3556 5.5708 23.5188C5.5708 27.682 8.95791 31.0693 13.1212 31.0693H13.4092L15.5474 73.8351C15.7872 78.6374 19.8944 82.5445 24.7031 82.5445H58.1622C62.9709 82.5445 67.0779 78.6374 67.3177 73.8353L69.4559 31.0693H69.744C73.9074 31.0693 77.2946 27.682 77.2946 23.5188C77.2946 19.3556 73.9072 15.9684 69.7438 15.9684ZM60.4587 6.51244C61.2203 5.75104 62.2327 5.33166 63.3097 5.33166C64.3866 5.33166 65.3989 5.75104 66.1605 6.5126C66.9219 7.27399 67.3412 8.28625 67.3412 9.36306C67.3412 10.44 66.9219 11.4525 66.1601 12.214L62.406 15.9684H51.003L60.4587 6.51244ZM62.954 64.87H19.9111L19.2444 51.5368C25.5664 46.6296 33.3979 43.9381 41.4325 43.9381C49.4671 43.9381 57.2986 46.6296 63.6206 51.5368L62.954 64.87ZM58.162 77.7387H24.7031C22.4541 77.7387 20.4594 75.8412 20.3474 73.5953L20.1515 69.6757H62.7139L62.5178 73.5955C62.4057 75.8412 60.411 77.7387 58.162 77.7387ZM63.9056 45.8399C57.2629 41.4903 49.4362 39.1323 41.4325 39.1323C33.4288 39.1323 25.6021 41.4903 18.9595 45.8399L18.2211 31.0693H64.6441L63.9056 45.8399ZM69.7438 26.2635H67.1702H15.695H13.1212C11.6078 26.2635 10.3766 25.0321 10.3766 23.5188C10.3766 22.0055 11.6078 20.7742 13.1212 20.7742H45.189C45.1932 20.7742 45.1973 20.7747 45.2015 20.7747H63.4008C63.404 20.7747 63.4071 20.7742 63.4104 20.7742H69.7438C71.2573 20.7742 72.4887 22.0055 72.4887 23.5188C72.4887 25.0321 71.2573 26.2635 69.7438 26.2635Z" fill="#FF7070"/>
</g>
<defs>
<clipPath id="clip0">
<rect width="82.0186" height="82.0186" fill="white" transform="translate(0.42334 0.525879)"/>
</clipPath>
</defs>
</svg>
